<svg width="155" height="40" viewBox="0 0 155 40" fill="none" xmlns="http://www.w3.org/2000/svg">
<path d="M67.3534 40C77.146 40 83.2317 35.2974 85.666 25.9474L77.146 24.5643C75.7075 29.8202 72.4987 32.4758 67.5194 32.4758C64.4212 32.4758 61.8763 31.314 59.9399 28.9903C58.0035 26.722 57.0077 23.7344 57.0077 20.0277C57.0077 16.3209 58.0035 13.3333 59.9399 11.0097C61.8763 8.68603 64.3106 7.52421 67.3534 7.52421C72.388 7.52421 75.7075 10.7884 77.2566 17.3167L85.3894 15.2144C83.2317 5.47718 77.0353 0 67.6854 0C62.0976 0 57.4503 1.88105 53.8541 5.64315C50.2027 9.46058 48.377 14.2185 48.377 20.0277C48.377 25.9474 50.1474 30.7054 53.6882 34.4122C57.229 38.119 61.7656 40 67.3534 40Z" fill="white"/>
<path d="M98.4964 39.2255V24.7303H113.711V17.2061H98.4964V8.29876H117.141V0.774551H90.2529V39.2255H98.4964Z" fill="white"/>
<path d="M127.596 39.2255L136.172 25.3942L144.969 39.2255H154.706L141.87 19.6957L154.318 0.774551H144.913L136.891 13.7759L128.648 0.774551H118.966L131.248 19.5297L118.247 39.2255H127.596Z" fill="white"/>
<path fill-rule="evenodd" clip-rule="evenodd" d="M38.4702 0.756348H0V39.2265H7.22261L7.22261 33.3231C7.22563 32.3355 7.45443 31.3616 7.89158 30.4756C8.32873 29.5897 8.96267 28.8152 9.74508 28.211L10.6687 27.5019H3.29292V22.2549C3.29408 21.5307 3.5827 20.8364 4.09554 20.3242C4.60838 19.8121 5.3036 19.5239 6.02887 19.5227H10.6905V21.1325H12.1325C12.3149 21.1326 12.4955 21.096 12.6634 21.0247C12.8313 20.9535 12.983 20.8491 13.1096 20.7179C13.2361 20.5867 13.3348 20.4313 13.3997 20.261C13.4646 20.0908 13.4945 19.9092 13.4874 19.7272C13.464 19.3698 13.304 19.0351 13.0405 18.7922C12.777 18.5493 12.4301 18.4168 12.0715 18.422H6.02454C5.29927 18.4208 4.60402 18.1326 4.09118 17.6205C3.57833 17.1083 3.28971 16.414 3.28856 15.6898V10.6821H9.50547L11.9234 8.26747H14.3544C14.406 7.08047 14.9139 5.95904 15.7724 5.13653C16.6309 4.31401 17.774 3.85375 18.9637 3.85151H31.5108V9.3856C31.5102 10.5736 31.1268 11.7299 30.4173 12.6834H36.3205V18.2132C36.3215 19.2573 36.0272 20.2804 35.4715 21.1648C34.9158 22.0492 34.1213 22.7589 33.1794 23.2121L32.382 23.6071L38.4702 30.6884V0.756348ZM38.4702 34.1045L30.9924 25.3949C30.9546 26.2956 30.7294 27.1795 30.3302 27.99C29.8939 28.8758 29.2611 29.6507 28.48 30.2557L21.0737 35.9464C20.5633 36.342 20.1497 36.8484 19.8644 37.4273C19.5881 37.988 19.439 38.6023 19.4276 39.2265H38.4702V34.1045ZM17.1924 39.2265C17.2045 38.2599 17.4328 37.3079 17.8609 36.4402C18.2981 35.5543 18.932 34.7798 19.7144 34.1757L27.1207 28.4849C27.6319 28.09 28.046 27.5837 28.3314 27.0046C28.6168 26.4255 28.7659 25.789 28.7675 25.1436L28.7672 24.8197C28.7669 24.8122 28.7666 24.8047 28.7664 24.7971C28.7662 24.788 28.7661 24.7788 28.7661 24.7697V23.6874L28.7631 20.645H28.7661V17.7912H31.001V21.5153C31.8394 21.4633 32.6264 21.0942 33.2019 20.4832C33.7773 19.8721 34.098 19.0651 34.0986 18.2262V14.9284H24.2701C23.8894 15.4321 23.399 15.8428 22.8359 16.1292C22.2728 16.4156 21.6519 16.5703 21.02 16.5816V19.1921C21.0175 20.1787 20.7893 21.1518 20.3529 22.037C19.9165 22.9222 19.2834 23.6961 18.5019 24.2998L11.0956 29.9905C10.5875 30.3856 10.1759 30.891 9.89213 31.4684C9.60834 32.0457 9.45974 32.68 9.45756 33.3231V39.2265H12.1369L12.1369 36.4208C12.1399 35.4332 12.3687 34.4593 12.8059 33.5733C13.243 32.6874 13.877 31.9129 14.6594 31.3088L22.0656 25.6181C22.5768 25.2231 22.9909 24.7168 23.2763 24.1377C23.5617 23.5586 23.7108 22.9221 23.7124 22.2767L23.7081 17.7781H25.943V22.2767C25.9399 23.2639 25.7114 24.2374 25.2751 25.1232C24.8388 26.009 24.206 26.7838 23.4249 27.3888L16.0186 33.0795C15.5082 33.4751 15.0946 33.9815 14.8093 34.5605C14.524 35.1394 14.3744 35.7756 14.3718 36.4208L14.3718 39.2265H17.1924ZM14.9469 14.1366H11.5139L13.8142 11.8611H16.2539V12.8531C16.2482 13.1955 16.1079 13.5219 15.8634 13.762C15.619 14.0021 15.2898 14.1366 14.9469 14.1366ZM18.7764 14.328H20.9547C21.4642 14.328 21.9529 14.1258 22.3132 13.766C22.6735 13.4062 22.876 12.9182 22.876 12.4093C22.876 11.9005 22.6735 11.4124 22.3132 11.0526C21.9529 10.6928 21.4642 10.4907 20.9547 10.4907H12.8383L10.4204 12.9053H5.52351V15.681C5.52465 15.8134 5.5778 15.94 5.67152 16.0336C5.76523 16.1272 5.89201 16.1803 6.02454 16.1814H12.0497C12.9885 16.1704 13.8947 16.5249 14.5762 17.1697C15.2577 17.8146 15.661 18.6991 15.7006 19.6358C15.7175 20.1173 15.6373 20.5973 15.4645 21.0472C15.2918 21.497 15.0301 21.9076 14.6951 22.2543C14.3601 22.601 13.9586 22.8768 13.5146 23.0653C13.0706 23.2538 12.5932 23.351 12.1107 23.3513H8.4381V21.7416H6.02454C5.89201 21.7427 5.76523 21.7958 5.67152 21.8894C5.5778 21.983 5.52465 22.1096 5.52351 22.2419V25.2569H10.7732C11.486 25.2541 12.183 25.4665 12.7729 25.866L17.1296 22.5116C17.6404 22.1174 18.0543 21.6118 18.3397 21.0335C18.6251 20.4552 18.7744 19.8194 18.7764 19.1747V14.328ZM28.2684 11.7029C28.8846 11.0851 29.2311 10.2489 29.2323 9.37689L29.2192 6.08341H18.9289C18.333 6.08447 17.7592 6.30841 17.3205 6.71108C16.8818 7.11374 16.61 7.66592 16.5588 8.25876H20.9155C22.0174 8.25991 23.0739 8.69758 23.8531 9.47571C24.6323 10.2538 25.0705 11.3089 25.0717 12.4093V12.6747H25.943C26.8162 12.6701 27.6522 12.3208 28.2684 11.7029Z" fill="white"/>
</svg>
