<svg width="20" height="22" viewBox="0 0 20 22" fill="none" xmlns="http://www.w3.org/2000/svg">
<path fill-rule="evenodd" clip-rule="evenodd" d="M0 6.29226C0 4.76133 1.27653 3.52026 2.8512 3.52026H12.9888C14.5635 3.52026 15.84 4.76133 15.84 6.29226V19.2283C15.84 20.7592 14.5635 22.0003 12.9888 22.0003H2.8512C1.27653 22.0003 0 20.7592 0 19.2283V6.29226ZM2.8512 5.36826C2.32631 5.36826 1.9008 5.78195 1.9008 6.29226V19.2283C1.9008 19.7386 2.32631 20.1523 2.8512 20.1523H12.9888C13.5137 20.1523 13.9392 19.7386 13.9392 19.2283V6.29226C13.9392 5.78195 13.5137 5.36826 12.9888 5.36826H2.8512Z" fill="#E9E9CF"/>
<path fill-rule="evenodd" clip-rule="evenodd" d="M7.04053 0.863077C7.04053 0.386413 7.43452 0 7.92053 0H16.7205C18.1786 0 19.3605 1.15924 19.3605 2.58923V14.0969C19.3605 14.5736 18.9665 14.96 18.4805 14.96C17.9945 14.96 17.6005 14.5736 17.6005 14.0969V2.58923C17.6005 2.11257 17.2065 1.72615 16.7205 1.72615H7.92053C7.43452 1.72615 7.04053 1.33974 7.04053 0.863077Z" fill="#E9E9CF"/>
</svg>
