<svg width="157" height="53" viewBox="0 0 157 53" fill="none" xmlns="http://www.w3.org/2000/svg">
<path d="M43.1189 29.389C43.1189 32.3223 42.4588 35.1003 41.2776 37.5846L38.708 35.9783L37.5044 35.2252C38.2794 33.4363 38.708 31.4618 38.708 29.389C38.708 27.3163 38.2794 25.3418 37.5044 23.5529L38.708 22.7998L41.2776 21.1936C42.4588 23.6778 43.1189 26.4558 43.1189 29.389Z" fill="#146C76"/>
<path d="M38.7081 35.9776L37.5041 35.2245L32.8867 32.339C32.6167 32.171 32.4863 31.8477 32.5634 31.5391C32.736 30.8504 32.827 30.1304 32.827 29.3884C32.827 28.6463 32.736 27.9263 32.5634 27.2376C32.4863 26.929 32.6176 26.6066 32.8867 26.4377L37.5041 23.5522L41.2777 21.1929L43.8683 19.5739C44.539 19.1551 44.7618 18.279 44.365 17.5957C44.2328 17.3671 44.0962 17.1411 43.9567 16.918C43.5654 16.2935 43.1447 15.6874 42.6984 15.1042C38.4683 9.57663 31.8406 5.97944 24.3698 5.86647C24.1678 5.86372 24.0052 5.70114 24.0052 5.49911V2.2059C24.0052 0.988152 23.018 0 21.7993 0C20.5816 0 19.5934 0.987235 19.5934 2.2059V5.97759C19.5934 6.15299 19.4695 6.30267 19.2968 6.33759C18.0524 6.59013 16.8439 6.94093 15.6794 7.38176C15.4388 7.47267 15.1826 7.29542 15.1826 7.03828V2.2059C15.1826 0.988152 14.1953 0 12.9767 0C11.7589 0 10.7708 0.987235 10.7708 2.2059V9.55275C10.7708 9.79337 10.6514 10.0174 10.4549 10.157C4.4424 14.4008 0.507231 21.395 0.480598 29.3094C0.437435 42.2922 11.196 52.9139 24.1788 52.9139H41.6487C42.4607 52.9139 43.119 52.2556 43.119 51.4436V39.7538C43.119 39.1201 42.7922 38.5306 42.2549 38.1954L41.2777 37.5845L38.7081 35.9785V35.9776ZM37.9726 48.5031H24.1742C13.6508 48.5031 4.88045 39.8932 4.89056 29.37C4.89516 24.1152 7.02114 19.358 10.4567 15.906C10.5724 15.7893 10.7717 15.871 10.7717 16.0354V19.1C10.7717 20.3177 11.7589 21.3059 12.9776 21.3059C14.1953 21.3059 15.1835 20.3187 15.1835 19.1V12.8809C15.1835 12.5999 15.3433 12.3436 15.5949 12.2196C18.1332 10.9743 20.9875 10.2737 24.0052 10.2737C29.7376 10.2737 34.8804 12.7973 38.3839 16.794C38.6824 17.1347 38.6052 17.6628 38.2205 17.9025L35.1642 19.8135L30.9884 22.4235C30.4705 22.7468 29.8083 22.7165 29.3216 22.3482C27.832 21.2205 25.9724 20.5565 23.9575 20.5666C19.1774 20.5923 15.2542 24.4779 15.1844 29.257C15.1128 34.1895 19.0893 38.2099 24.0052 38.2099C26.0054 38.2099 27.8504 37.5443 29.3299 36.4219C29.8129 36.0556 30.4741 36.0318 30.9884 36.353L35.1642 38.9632L38.2766 40.9092C38.5455 41.0773 38.7081 41.3719 38.7081 41.6878V47.7676C38.7081 48.1734 38.3795 48.5031 37.9726 48.5031ZM28.4124 29.235V29.5435C28.3849 30.3443 28.1443 31.0901 27.7457 31.7274C27.337 32.3813 26.7594 32.9213 26.0761 33.2849C25.459 33.6137 24.7537 33.8001 24.0052 33.8001C21.5688 33.8001 19.5944 31.8257 19.5944 29.3893C19.5944 26.9528 21.5688 24.9784 24.0052 24.9784C24.7546 24.9784 25.459 25.1648 26.0761 25.4936C26.7594 25.8573 27.337 26.3973 27.7457 27.0511C28.1443 27.6876 28.3849 28.4342 28.4124 29.235Z" fill="#130C03"/>
<path d="M88.1594 37.9223V24.6981H84.417V20.819H96.0986V24.6981H92.3562V37.9223H88.1601H88.1594Z" fill="#130C03"/>
<path d="M57.4956 29.4386C57.4956 24.1305 61.5558 20.5011 66.6819 20.5011C69.7667 20.5011 72.5569 21.7482 74.3486 24.4252L70.6511 26.3529C69.6529 24.9919 68.3598 24.2664 66.7272 24.2664C63.846 24.2664 61.8275 26.5117 61.8275 29.4606C61.8275 32.4094 64.0279 34.6098 66.5913 34.6098C68.7007 34.6098 70.2203 33.3397 70.4924 31.661V31.638H66.909V28.4173H75.1877V29.1428C75.1877 34.7228 71.8533 38.2164 66.546 38.2164C61.5329 38.2164 57.4956 34.6098 57.4956 29.4376V29.4386Z" fill="#130C03"/>
<path d="M78.0659 37.9227V20.8201H82.2619V37.9227H78.0659Z" fill="#130C03"/>
<path d="M133.083 37.9227V20.8201H137.28V37.9227H133.083Z" fill="#130C03"/>
<path d="M152.894 20.8201H157.001V37.9227H153.598L145.024 27.1485L145.092 37.9227H140.964V20.8201H144.457L153.031 31.5263L152.895 20.8201H152.894Z" fill="#130C03"/>
<path d="M106.266 34.3386C103.658 34.3386 101.457 32.2971 101.457 29.3712C101.457 26.6042 103.567 24.4038 106.312 24.4038C107.663 24.4038 108.843 24.9153 109.702 25.762C110.116 24.4396 110.761 23.2026 111.618 22.0969C110.119 21.0959 108.292 20.5247 106.335 20.5247C101.3 20.5247 97.126 24.2899 97.126 29.3482C97.126 34.6563 101.322 38.2169 106.267 38.2169C108.242 38.2169 110.081 37.664 111.59 36.6814C110.743 35.5765 110.105 34.3321 109.697 32.9932C108.825 33.8362 107.627 34.3386 106.267 34.3386H106.266Z" fill="#130C03"/>
<path d="M121.307 20.5253C118.147 20.5253 115.327 22.0084 113.664 24.3631C112.677 25.7608 112.098 27.4653 112.098 29.3489C112.098 31.2324 112.676 33.0452 113.655 34.4411C115.314 36.8078 118.129 38.2176 121.239 38.2176C126.297 38.2176 130.471 34.5881 130.471 29.3939C130.471 24.1996 126.321 20.5253 121.307 20.5253ZM121.239 34.3392C118.631 34.3392 116.431 32.2977 116.431 29.3718C116.431 26.6048 118.54 24.4044 121.285 24.4044C124.03 24.4044 126.139 26.5818 126.139 29.3948C126.139 32.2077 124.03 34.3392 121.24 34.3392H121.239Z" fill="#130C03"/>
</svg>
