<svg width="1600" height="900" viewBox="0 0 1600 900" fill="none" xmlns="http://www.w3.org/2000/svg">
<rect width="1600" height="900" fill="white"/>
<path d="M152 452.076C152 451.368 152 450.677 152 449.969C152 426.09 155.413 403.011 161.748 381.177C161.825 382.392 161.917 383.622 161.963 384.883C162.363 393.186 164.285 400.874 165.73 409.131C171.327 439.006 181.905 464.484 198.665 488.609C207.014 500.156 216.3 509.582 227.125 518.423C233.598 523.313 241.654 528.633 249.849 526.157C254.185 519.192 248.112 511.688 247.759 504.431C236.042 476.939 227.986 449.785 223.911 419.31C219.744 386.774 223.435 355.407 232.844 324.302C243.484 289.183 261.919 257.662 286.305 230.723C298.421 224.542 311.106 219.33 324.267 215.209C320.162 218.592 316.164 222.128 312.289 225.895C277.003 259.292 251.449 300.546 242.393 349.826C234.613 393.34 239.333 437.284 259.89 475.785C260.489 477.323 260.535 478.353 261.12 479.891C277.633 509.751 301.634 533.538 329.11 553.526C337.167 558.862 344.716 564.72 348.775 573.361C349.913 575.391 349.514 578.005 348.576 580.127C345.224 586 338.551 587.892 332.385 589.214C328.234 589.414 325.174 590.598 321.023 590.798C316.333 590.506 311.152 590.752 306.462 590.459C287.642 588.245 271.79 582.771 255.292 574.73C204.738 549.052 170.896 505 152 452.06V452.076ZM189.9 406.486C192.422 409.684 193.099 413.913 197.819 413.682C202.047 413.005 202.724 407.286 203.031 403.964C205.799 363.11 211.98 324.455 229.2 288.599C234.351 277.005 240.409 265.965 247.266 255.54C218.022 278.235 194.037 307.388 177.446 340.846C177.446 360.158 180.352 379.701 186.687 399.075C187.763 401.858 188.347 404.21 189.885 406.501L189.9 406.486ZM581.36 342.338C575.287 345.751 577.27 354.485 580.622 359.528C602.671 396.399 621.06 432.933 626.257 476.339C629.193 501.586 627.748 526.634 622.505 550.682C636.312 519.945 644 485.857 644 449.985C644 418.064 637.911 387.558 626.856 359.574C618.631 353.224 609.836 347.873 599.627 344.075C593.799 341.753 586.388 339.001 581.36 342.353V342.338ZM457.772 268.779C434.279 277.19 414.675 291.12 400.621 312.062C393.856 322.779 389.766 334.926 394.471 346.135C397.439 353.793 404.85 356.545 412.691 357.729C422.624 358.805 431.403 357.867 440.736 357.421C442.32 357.867 443.35 357.821 444.934 358.252C444.934 358.252 445.964 358.206 446.471 357.652C447.501 357.606 448.593 358.59 449.639 358.544C450.131 358.006 450.669 358.498 451.176 357.944C452.206 357.898 453.298 358.882 454.343 358.836C518.336 360.435 569.475 407.854 583.928 470.558C599.611 537.366 576.194 601.376 531.636 647.166C522.272 656.668 512.217 665.371 501.562 673.197C531.682 659.205 558.497 639.293 580.515 614.969C586.05 605.851 590.878 596.333 594.721 586.462C602.071 566.365 608.421 547.345 609.99 525.957C609.79 521.806 610.128 518.162 610.42 513.457C611.834 478.046 604.008 445.172 586.957 414.804C578.454 400.136 569.506 387.066 557.513 375.165C539.477 356.806 518.536 342.737 496.011 328.238C490.63 324.332 485.14 318.366 486.371 311.555C490.414 298.362 505.913 296.579 518.259 293.903C519.289 293.857 519.843 294.349 520.873 294.303C534.25 291.581 547.334 293.55 560.48 296.548C574.872 299.285 587.941 303.805 600.195 309.725C588.156 292.396 573.934 276.682 557.943 262.998C524.732 255.725 490.276 257.062 457.818 268.748L457.772 268.779ZM338.089 653.901C353.157 653.701 366.626 653.04 381.541 649.734C411.861 642.553 438.322 630.883 460.724 610.587C468.673 602.929 475.577 595.318 481.896 586.185C496.395 563.659 505.467 536.198 496.426 510.135C495.827 508.598 494.689 506.584 494.104 505.046C490.645 497.942 484.618 491.469 477.207 488.717C470.887 486.948 463.63 487.287 457.511 489.67C446.302 494.36 435.647 499.557 424.438 504.262C412.691 508.459 401.882 510.551 389.382 510.105C384.692 509.812 380.541 510.012 375.806 508.675C366.872 506.507 358.969 504.293 351.02 501.033C329.233 491.161 312.335 474.832 299.943 454.644C284.121 428.381 278.525 398.506 281.185 367.2C282.015 363.003 282.369 359.343 282.707 355.699C285.213 343.106 287.781 331.544 292.409 319.889C299.851 301.868 309.968 285.262 322.206 269.609C341.841 245.792 365.888 226.972 393.779 212.641C399.883 209.566 406.018 206.845 412.215 204.4C407.525 204.138 402.789 204 398.023 204C386.338 204 374.837 204.815 363.582 206.399C322.391 231.615 288.688 268.564 271.375 314.692C270.437 316.813 269.453 317.905 268.515 320.027C262.211 340.077 257.43 359.543 256.891 380.87C257.291 400.074 258.152 417.71 264.226 436.116C271.006 458.134 280.739 476.893 295.607 494.36C323.129 526.296 360.814 542.671 403.62 546.838C408.847 547.622 414.629 548.914 419.872 549.698C424.607 551.035 429.405 553.403 432.71 557.401C434.386 559.923 435.524 561.937 435.678 565.058C435.432 570.794 433.064 575.575 430.696 580.373C421.963 593.258 409.432 602.699 395.701 609.08C337.69 634.742 270.929 618.72 220.836 582.156C210.073 574.361 200.279 565.473 190.992 556.048C180.353 544.947 171.035 533.522 162.455 521.191C173.111 556.494 191.484 588.445 215.609 615.092C224.634 620.935 234.09 626.239 243.976 630.929C273.759 645.09 304.817 653.47 338.105 653.947L338.089 653.901ZM544.551 592.504C554.069 574.376 560.481 556.402 563.094 534.968C566.2 512.995 564.755 493.837 559.066 472.803C550.363 443.081 532.574 418.987 505.313 403.149C490.353 394.524 474.547 390.08 457.403 390.387C444.965 390.987 432.08 393.17 420.379 398.414C408.678 403.657 399.145 410.868 387.46 416.111C376.251 420.801 362.075 417.849 353.834 408.377C348.345 402.411 344.394 395.846 342.472 388.143C324.667 320.396 379.096 263.736 437.845 242.717C441.443 242.025 444.503 240.841 448.07 239.103C463.922 233.66 479.913 231.338 496.995 229.985C500.624 229.816 504.191 229.724 507.712 229.709C492.89 222.313 477.222 216.378 460.878 212.072C453.99 213.456 447.117 215.132 440.244 217.146C374.13 236.443 318.809 285.354 307.692 356.56C300.158 405.256 319.347 458.38 367.411 474.248C370.024 474.648 372.146 475.586 374.775 475.97C380.556 477.246 386.23 476.462 391.965 476.708C401.79 475.709 410.969 472.157 418.473 466.083C422.47 462.777 425.929 458.964 428.297 454.182C436.431 439.76 451.099 431.257 467.197 430.995C481.22 430.842 493.966 436.469 504.237 444.803C510.218 450.231 515.153 455.704 520.15 462.224C521.826 464.746 522.964 466.76 524.64 469.281C548.718 515.932 534.327 573.269 501.362 611.755C457.096 663.772 388.567 686.821 318.547 678.764C312.689 678.102 306.908 677.241 301.204 676.211C330.925 688.942 363.659 696 398.038 696C400.037 696 402.021 695.969 404.004 695.923C418.857 692.479 433.371 687.528 447.517 680.855C488.2 662.265 522.641 633.066 544.598 592.52L544.551 592.504Z" fill="black"/>
<path d="M816.166 279V407.942H785V279H816.166Z" fill="black"/>
<path d="M835.731 407.942V311.236H865.009V328.99H866.079C868.094 323.114 871.494 318.476 876.279 315.076C881.064 311.676 886.772 309.976 893.404 309.976C900.12 309.976 905.871 311.697 910.656 315.139C915.441 318.581 918.484 323.198 919.785 328.99H920.793C922.598 323.24 926.124 318.644 931.37 315.202C936.617 311.718 942.808 309.976 949.944 309.976C959.094 309.976 966.524 312.914 972.232 318.791C977.941 324.625 980.795 332.642 980.795 342.841V407.942H950.007V349.893C950.007 345.066 948.769 341.393 946.292 338.875C943.816 336.315 940.605 335.034 936.659 335.034C932.42 335.034 929.083 336.42 926.648 339.19C924.256 341.918 923.059 345.591 923.059 350.208V407.942H893.467V349.578C893.467 345.087 892.25 341.54 889.816 338.938C887.381 336.336 884.17 335.034 880.182 335.034C877.496 335.034 875.124 335.685 873.068 336.986C871.011 338.245 869.395 340.05 868.22 342.401C867.086 344.751 866.52 347.522 866.52 350.711V407.942H835.731Z" fill="black"/>
<path d="M999.873 444.207V311.236H1030.35V327.794H1031.29C1032.55 324.856 1034.33 322.023 1036.64 319.294C1038.99 316.566 1041.97 314.342 1045.58 312.621C1049.23 310.858 1053.6 309.976 1058.68 309.976C1065.39 309.976 1071.67 311.739 1077.5 315.265C1083.38 318.791 1088.12 324.226 1091.73 331.572C1095.34 338.917 1097.15 348.277 1097.15 359.652C1097.15 370.607 1095.41 379.778 1091.92 387.165C1088.48 394.553 1083.82 400.093 1077.95 403.787C1072.11 407.48 1065.63 409.327 1058.49 409.327C1053.62 409.327 1049.4 408.53 1045.83 406.935C1042.27 405.34 1039.27 403.241 1036.83 400.639C1034.44 398.036 1032.59 395.245 1031.29 392.265H1030.66V444.207H999.873ZM1030.03 359.589C1030.03 364.794 1030.72 369.327 1032.11 373.188C1033.54 377.05 1035.57 380.051 1038.22 382.192C1040.9 384.29 1044.11 385.34 1047.85 385.34C1051.63 385.34 1054.84 384.29 1057.48 382.192C1060.13 380.051 1062.12 377.05 1063.46 373.188C1064.85 369.327 1065.54 364.794 1065.54 359.589C1065.54 354.384 1064.85 349.872 1063.46 346.052C1062.12 342.233 1060.13 339.274 1057.48 337.175C1054.88 335.076 1051.67 334.027 1047.85 334.027C1044.07 334.027 1040.86 335.055 1038.22 337.112C1035.57 339.169 1033.54 342.107 1032.11 345.927C1030.72 349.746 1030.03 354.3 1030.03 359.589Z" fill="black"/>
<path d="M1140.54 409.579C1134.37 409.579 1128.9 408.551 1124.11 406.494C1119.37 404.395 1115.61 401.247 1112.84 397.05C1110.11 392.811 1108.75 387.501 1108.75 381.121C1108.75 375.749 1109.69 371.215 1111.58 367.522C1113.47 363.828 1116.07 360.827 1119.39 358.519C1122.71 356.21 1126.53 354.468 1130.85 353.293C1135.17 352.076 1139.79 351.257 1144.7 350.837C1150.2 350.334 1154.63 349.809 1157.99 349.263C1161.34 348.676 1163.78 347.857 1165.29 346.808C1166.84 345.717 1167.62 344.185 1167.62 342.212V341.897C1167.62 338.665 1166.51 336.168 1164.28 334.405C1162.06 332.642 1159.06 331.761 1155.28 331.761C1151.21 331.761 1147.93 332.642 1145.46 334.405C1142.98 336.168 1141.41 338.602 1140.73 341.708L1112.34 340.701C1113.18 334.825 1115.34 329.578 1118.82 324.961C1122.35 320.302 1127.18 316.65 1133.3 314.006C1139.47 311.319 1146.88 309.976 1155.53 309.976C1161.7 309.976 1167.39 310.711 1172.59 312.18C1177.8 313.607 1182.33 315.706 1186.19 318.476C1190.05 321.204 1193.03 324.562 1195.13 328.55C1197.27 332.537 1198.34 337.091 1198.34 342.212V407.942H1169.38V394.469H1168.63C1166.9 397.743 1164.7 400.513 1162.01 402.779C1159.37 405.046 1156.24 406.746 1152.63 407.879C1149.07 409.012 1145.04 409.579 1140.54 409.579ZM1150.05 389.432C1153.37 389.432 1156.35 388.76 1158.99 387.417C1161.68 386.074 1163.82 384.227 1165.41 381.877C1167.01 379.484 1167.81 376.714 1167.81 373.566V364.374C1166.93 364.836 1165.86 365.255 1164.6 365.633C1163.38 366.011 1162.04 366.368 1160.57 366.703C1159.1 367.039 1157.59 367.333 1156.03 367.585C1154.48 367.837 1152.99 368.067 1151.56 368.277C1148.67 368.739 1146.19 369.453 1144.13 370.418C1142.12 371.383 1140.57 372.643 1139.47 374.196C1138.43 375.707 1137.9 377.511 1137.9 379.61C1137.9 382.8 1139.03 385.235 1141.3 386.914C1143.61 388.592 1146.53 389.432 1150.05 389.432Z" fill="black"/>
<path d="M1262.31 409.768C1252.11 409.768 1243.36 407.669 1236.06 403.472C1228.8 399.275 1223.21 393.44 1219.31 385.969C1215.41 378.456 1213.45 369.767 1213.45 359.904C1213.45 349.998 1215.41 341.309 1219.31 333.838C1223.26 326.325 1228.86 320.47 1236.12 316.272C1243.42 312.075 1252.13 309.976 1262.25 309.976C1271.19 309.976 1278.98 311.592 1285.61 314.824C1292.28 318.056 1297.49 322.631 1301.22 328.55C1305 334.426 1306.99 341.33 1307.2 349.263H1278.43C1277.84 344.311 1276.16 340.428 1273.39 337.616C1270.67 334.804 1267.1 333.397 1262.69 333.397C1259.12 333.397 1256 334.405 1253.31 336.42C1250.62 338.392 1248.52 341.33 1247.01 345.234C1245.54 349.096 1244.81 353.88 1244.81 359.589C1244.81 365.297 1245.54 370.124 1247.01 374.07C1248.52 377.973 1250.62 380.932 1253.31 382.947C1256 384.92 1259.12 385.906 1262.69 385.906C1265.54 385.906 1268.06 385.298 1270.25 384.08C1272.47 382.863 1274.3 381.079 1275.72 378.729C1277.15 376.336 1278.05 373.44 1278.43 370.04H1307.2C1306.91 378.015 1304.92 384.983 1301.22 390.943C1297.57 396.903 1292.43 401.541 1285.8 404.857C1279.21 408.131 1271.38 409.768 1262.31 409.768Z" fill="black"/>
<path d="M1377.55 311.236V333.901H1316.54V311.236H1377.55ZM1329.32 288.066H1360.11V377.532C1360.11 379.421 1360.4 380.953 1360.99 382.129C1361.62 383.262 1362.52 384.08 1363.7 384.584C1364.87 385.046 1366.28 385.277 1367.92 385.277C1369.09 385.277 1370.33 385.172 1371.63 384.962C1372.97 384.71 1373.98 384.5 1374.65 384.332L1379.31 406.557C1377.84 406.977 1375.76 407.501 1373.08 408.131C1370.43 408.761 1367.26 409.159 1363.57 409.327C1356.35 409.663 1350.16 408.824 1345 406.809C1339.88 404.752 1335.95 401.562 1333.22 397.239C1330.54 392.916 1329.24 387.48 1329.32 380.932V288.066Z" fill="black"/>
<path d="M861.971 531.889C861.551 527.272 859.683 523.684 856.367 521.123C853.093 518.521 848.413 517.22 842.327 517.22C838.297 517.22 834.939 517.744 832.253 518.794C829.566 519.843 827.552 521.291 826.208 523.138C824.865 524.943 824.173 527.021 824.131 529.371C824.047 531.302 824.425 533.002 825.264 534.471C826.145 535.94 827.405 537.241 829.042 538.374C830.721 539.466 832.735 540.431 835.086 541.271C837.437 542.11 840.081 542.845 843.019 543.474L854.101 545.993C860.481 547.378 866.105 549.225 870.974 551.533C875.885 553.842 879.999 556.591 883.315 559.781C886.673 562.971 889.212 566.643 890.933 570.799C892.654 574.954 893.536 579.613 893.578 584.776C893.536 592.919 891.479 599.907 887.407 605.742C883.336 611.576 877.48 616.046 869.841 619.152C862.244 622.258 853.072 623.811 842.327 623.811C831.539 623.811 822.137 622.195 814.12 618.963C806.103 615.731 799.869 610.82 795.42 604.231C790.971 597.641 788.683 589.309 788.557 579.235H818.401C818.653 583.391 819.765 586.854 821.738 589.624C823.711 592.394 826.418 594.493 829.86 595.92C833.344 597.347 837.374 598.06 841.949 598.06C846.146 598.06 849.714 597.494 852.652 596.361C855.633 595.227 857.92 593.653 859.515 591.639C861.11 589.624 861.929 587.315 861.971 584.713C861.929 582.279 861.173 580.201 859.704 578.48C858.235 576.717 855.968 575.206 852.904 573.947C849.882 572.646 846.02 571.449 841.319 570.358L827.845 567.21C816.68 564.65 807.887 560.515 801.464 554.807C795.042 549.057 791.852 541.292 791.894 531.512C791.852 523.537 793.993 516.548 798.316 510.546C802.64 504.544 808.621 499.864 816.261 496.506C823.9 493.148 832.61 491.469 842.39 491.469C852.38 491.469 861.047 493.169 868.393 496.569C875.78 499.927 881.51 504.649 885.581 510.735C889.653 516.821 891.731 523.873 891.815 531.889H861.971Z" fill="black"/>
<path d="M963.906 525.468V548.133H902.896V525.468H963.906ZM915.677 502.298H946.465V591.765C946.465 593.653 946.759 595.185 947.347 596.361C947.976 597.494 948.879 598.312 950.054 598.816C951.229 599.278 952.636 599.509 954.273 599.509C955.448 599.509 956.686 599.404 957.987 599.194C959.331 598.942 960.338 598.732 961.01 598.564L965.669 620.789C964.2 621.209 962.122 621.733 959.436 622.363C956.791 622.993 953.622 623.391 949.928 623.559C942.709 623.895 936.517 623.056 931.355 621.041C926.234 618.984 922.309 615.794 919.581 611.471C916.894 607.148 915.593 601.712 915.677 595.164V502.298Z" fill="black"/>
<path d="M979.615 622.174V525.468H1009.52V543.096H1010.53C1012.29 536.716 1015.17 531.973 1019.15 528.867C1023.14 525.719 1027.78 524.145 1033.07 524.145C1034.5 524.145 1035.97 524.25 1037.48 524.46C1038.99 524.628 1040.39 524.901 1041.7 525.279V552.037C1040.23 551.533 1038.3 551.134 1035.9 550.84C1033.55 550.547 1031.45 550.4 1029.61 550.4C1025.95 550.4 1022.66 551.218 1019.72 552.855C1016.83 554.45 1014.54 556.696 1012.86 559.592C1011.22 562.446 1010.4 565.804 1010.4 569.666V622.174H979.615Z" fill="black"/>
<path d="M1094.43 624C1084.31 624 1075.58 622.006 1068.23 618.019C1060.93 613.989 1055.31 608.26 1051.36 600.831C1047.46 593.359 1045.5 584.482 1045.5 574.199C1045.5 564.209 1047.48 555.479 1051.42 548.007C1055.37 540.494 1060.93 534.66 1068.11 530.504C1075.29 526.307 1083.74 524.208 1093.48 524.208C1100.36 524.208 1106.66 525.279 1112.37 527.419C1118.08 529.56 1123.01 532.729 1127.17 536.926C1131.32 541.124 1134.55 546.307 1136.86 552.477C1139.17 558.606 1140.32 565.636 1140.32 573.569V581.25H1056.27V563.37H1111.68C1111.64 560.096 1110.86 557.178 1109.35 554.618C1107.84 552.058 1105.76 550.064 1103.11 548.637C1100.51 547.168 1097.51 546.433 1094.11 546.433C1090.67 546.433 1087.58 547.21 1084.86 548.763C1082.13 550.274 1079.97 552.352 1078.37 554.996C1076.78 557.598 1075.94 560.557 1075.85 563.873V582.069C1075.85 586.014 1076.63 589.477 1078.18 592.457C1079.73 595.395 1081.94 597.683 1084.79 599.32C1087.65 600.957 1091.05 601.775 1094.99 601.775C1097.72 601.775 1100.2 601.397 1102.42 600.642C1104.65 599.886 1106.56 598.774 1108.15 597.305C1109.75 595.836 1110.94 594.031 1111.74 591.89L1140.01 592.709C1138.83 599.047 1136.25 604.566 1132.27 609.267C1128.32 613.926 1123.14 617.557 1116.71 620.159C1110.29 622.72 1102.86 624 1094.43 624Z" fill="black"/>
<path d="M1183.31 623.811C1177.14 623.811 1171.66 622.783 1166.88 620.726C1162.14 618.627 1158.38 615.479 1155.61 611.282C1152.88 607.043 1151.52 601.733 1151.52 595.353C1151.52 589.981 1152.46 585.447 1154.35 581.754C1156.24 578.06 1158.84 575.059 1162.16 572.751C1165.47 570.442 1169.29 568.7 1173.62 567.525C1177.94 566.308 1182.56 565.489 1187.47 565.069C1192.97 564.566 1197.39 564.041 1200.75 563.495C1204.11 562.908 1206.54 562.089 1208.06 561.04C1209.61 559.949 1210.39 558.417 1210.39 556.444V556.129C1210.39 552.897 1209.27 550.4 1207.05 548.637C1204.82 546.874 1201.82 545.993 1198.04 545.993C1193.97 545.993 1190.7 546.874 1188.22 548.637C1185.75 550.4 1184.17 552.834 1183.5 555.94L1155.1 554.933C1155.94 549.057 1158.11 543.81 1161.59 539.193C1165.12 534.534 1169.94 530.882 1176.07 528.238C1182.24 525.552 1189.65 524.208 1198.3 524.208C1204.47 524.208 1210.15 524.943 1215.36 526.412C1220.56 527.839 1225.1 529.938 1228.96 532.708C1232.82 535.436 1235.8 538.794 1237.9 542.782C1240.04 546.769 1241.11 551.323 1241.11 556.444V622.174H1212.15V608.701H1211.39C1209.67 611.975 1207.47 614.745 1204.78 617.011C1202.14 619.278 1199.01 620.978 1195.4 622.111C1191.83 623.244 1187.8 623.811 1183.31 623.811ZM1192.82 603.664C1196.13 603.664 1199.12 602.992 1201.76 601.649C1204.45 600.306 1206.59 598.459 1208.18 596.109C1209.78 593.716 1210.57 590.946 1210.57 587.798V578.606C1209.69 579.068 1208.62 579.487 1207.36 579.865C1206.15 580.243 1204.8 580.6 1203.33 580.935C1201.86 581.271 1200.35 581.565 1198.8 581.817C1197.25 582.069 1195.76 582.3 1194.33 582.509C1191.43 582.971 1188.96 583.685 1186.9 584.65C1184.89 585.615 1183.33 586.875 1182.24 588.428C1181.19 589.939 1180.67 591.744 1180.67 593.842C1180.67 597.032 1181.8 599.467 1184.07 601.146C1186.38 602.824 1189.29 603.664 1192.82 603.664Z" fill="black"/>
<path d="M1259.94 622.174V525.468H1289.21V543.222H1290.28C1292.3 537.346 1295.7 532.708 1300.48 529.308C1305.27 525.908 1310.98 524.208 1317.61 524.208C1324.33 524.208 1330.08 525.929 1334.86 529.371C1339.65 532.813 1342.69 537.43 1343.99 543.222H1345C1346.8 537.472 1350.33 532.876 1355.58 529.434C1360.82 525.95 1367.01 524.208 1374.15 524.208C1383.3 524.208 1390.73 527.147 1396.44 533.023C1402.15 538.857 1405 546.874 1405 557.074V622.174H1374.21V564.125C1374.21 559.298 1372.97 555.625 1370.5 553.107C1368.02 550.547 1364.81 549.266 1360.86 549.266C1356.62 549.266 1353.29 550.652 1350.85 553.422C1348.46 556.15 1347.26 559.823 1347.26 564.44V622.174H1317.67V563.81C1317.67 559.319 1316.45 555.772 1314.02 553.17C1311.59 550.568 1308.37 549.266 1304.39 549.266C1301.7 549.266 1299.33 549.917 1297.27 551.218C1295.22 552.477 1293.6 554.282 1292.42 556.633C1291.29 558.983 1290.72 561.754 1290.72 564.944V622.174H1259.94Z" fill="black"/>
</svg>
