<svg width="129" height="50" viewBox="0 0 129 50" fill="none" xmlns="http://www.w3.org/2000/svg">
<path d="M0 25.2109C0 25.1391 0 25.0688 0 24.9969C0 22.5702 0.34691 20.2247 0.990701 18.0058C0.998514 18.1293 1.00787 18.2543 1.01256 18.3824C1.05319 19.2262 1.2485 20.0075 1.39539 20.8466C1.96417 23.8827 3.03927 26.472 4.7425 28.9237C5.59099 30.0972 6.5348 31.0551 7.63487 31.9536C8.29272 32.4505 9.11149 32.9911 9.94435 32.7395C10.385 32.0317 9.7678 31.2691 9.73186 30.5316C8.54116 27.7377 7.72236 24.9781 7.30827 21.8811C6.88481 18.5746 7.25984 15.3869 8.21615 12.2258C9.29747 8.65679 11.171 5.45347 13.6493 2.71579C14.8806 2.08763 16.1698 1.55791 17.5073 1.13913C17.0901 1.48291 16.6839 1.8423 16.2901 2.22514C12.7039 5.6191 10.1069 9.81155 9.18652 14.8197C8.39584 19.2418 8.87554 23.7077 10.9647 27.6205C11.0257 27.7767 11.0304 27.8814 11.0898 28.0377C12.768 31.0723 15.2072 33.4896 17.9996 35.521C18.8184 36.0632 19.5856 36.6585 19.9981 37.5367C20.1138 37.743 20.0731 38.0086 19.9778 38.2243C19.6372 38.8212 18.959 39.0134 18.3324 39.1478C17.9105 39.1681 17.5995 39.2884 17.1776 39.3087C16.701 39.279 16.1744 39.304 15.6978 39.2743C13.7852 39.0493 12.1742 38.493 10.4975 37.6758C5.3597 35.0663 1.92043 30.5894 0 25.2094V25.2109ZM3.85179 20.5778C4.10805 20.9029 4.17683 21.3326 4.65655 21.3091C5.08626 21.2404 5.155 20.6591 5.18625 20.3216C5.46752 16.1698 6.09569 12.2414 7.8458 8.59741C8.36927 7.41921 8.98493 6.29727 9.68185 5.23783C6.70979 7.54422 4.27215 10.5069 2.58611 13.9071C2.58611 15.8697 2.88144 17.8558 3.52523 19.8247C3.63461 20.1075 3.69396 20.3466 3.85022 20.5794L3.85179 20.5778ZM43.6355 14.0587C43.0183 14.4056 43.2199 15.2931 43.5605 15.8057C45.8013 19.5528 47.6702 23.2655 48.1983 27.6767C48.4968 30.2425 48.3499 32.788 47.8171 35.2319C49.2203 32.1083 50.0016 28.644 50.0016 24.9984C50.0016 21.7545 49.3828 18.6543 48.2593 15.8104C47.4233 15.165 46.5295 14.6212 45.4919 14.2353C44.8997 13.9993 44.1465 13.7196 43.6355 14.0603V14.0587ZM31.0754 6.58322C28.6877 7.43796 26.6954 8.85368 25.2672 10.9819C24.5797 12.0711 24.164 13.3055 24.6422 14.4447C24.9437 15.2228 25.6969 15.5025 26.4939 15.6229C27.5033 15.7322 28.3955 15.6369 29.344 15.5916C29.505 15.6369 29.6097 15.6322 29.7706 15.676C29.7706 15.676 29.8753 15.6713 29.9269 15.615C30.0316 15.6103 30.1425 15.7104 30.2488 15.7057C30.2988 15.651 30.3535 15.701 30.405 15.6447C30.5097 15.64 30.6206 15.74 30.7269 15.7354C37.2304 15.8979 42.4276 20.7169 43.8965 27.0892C45.4903 33.8787 43.1105 40.3838 38.5821 45.0372C37.6305 46.0029 36.6086 46.8873 35.5257 47.6827C38.5868 46.2607 41.3119 44.2371 43.5496 41.7651C44.1121 40.8385 44.6028 39.8712 44.9934 38.8681C45.7403 36.8257 46.3857 34.8928 46.5451 32.7192C46.5248 32.2973 46.5591 31.927 46.5888 31.4488C46.7326 27.8502 45.9372 24.5093 44.2043 21.4232C43.3402 19.9325 42.4308 18.6043 41.2119 17.3948C39.379 15.5291 37.2508 14.0993 34.9616 12.6258C34.4146 12.2289 33.8568 11.6226 33.9818 10.9304C34.3928 9.58966 35.9679 9.4084 37.2226 9.13651C37.3273 9.13182 37.3836 9.18182 37.4883 9.17714C38.8477 8.90056 40.1775 9.10057 41.5135 9.40528C42.9761 9.68342 44.3043 10.1428 45.5497 10.7444C44.3262 8.98337 42.8808 7.3864 41.2557 5.99569C37.8805 5.25658 34.3787 5.39252 31.0801 6.5801L31.0754 6.58322ZM18.9121 45.7216C20.4435 45.7013 21.8123 45.6341 23.328 45.2981C26.4095 44.5684 29.0987 43.3824 31.3754 41.3198C32.1833 40.5416 32.8849 39.7681 33.5271 38.8399C35.0006 36.5507 35.9226 33.7599 35.0037 31.1113C34.9428 30.9551 34.8272 30.7504 34.7678 30.5941C34.4162 29.8722 33.8037 29.2143 33.0505 28.9346C32.4083 28.7549 31.6707 28.7893 31.0488 29.0315C29.9097 29.5081 28.8268 30.0363 27.6877 30.5144C26.4938 30.941 25.3953 31.1535 24.1249 31.1082C23.6483 31.0785 23.2265 31.0988 22.7452 30.9629C21.8373 30.7425 21.0341 30.5175 20.2263 30.1863C18.0121 29.1831 16.2948 27.5236 15.0353 25.4719C13.4274 22.803 12.8586 19.7669 13.1289 16.5854C13.2133 16.1588 13.2493 15.7869 13.2836 15.4166C13.5383 14.1368 13.7993 12.9617 14.2697 11.7773C15.0259 9.94593 16.0541 8.25833 17.2979 6.6676C19.2934 4.24714 21.7373 2.33452 24.5718 0.87818C25.1922 0.56566 25.8157 0.289081 26.4454 0.0406275C25.9688 0.0140634 25.4875 0 25.0031 0C23.8156 0 22.6467 0.0828177 21.5029 0.243765C17.3167 2.80643 13.8915 6.56135 12.132 11.2491C12.0367 11.4648 11.9367 11.5757 11.8414 11.7914C11.2007 13.829 10.7147 15.8072 10.66 17.9746C10.7007 19.9262 10.7882 21.7185 11.4054 23.589C12.0945 25.8266 13.0836 27.733 14.5946 29.5081C17.3917 32.7536 21.2216 34.4178 25.5719 34.8412C26.1032 34.9209 26.6907 35.0522 27.2236 35.1319C27.7049 35.2678 28.1924 35.5085 28.5284 35.9147C28.6987 36.171 28.8143 36.3757 28.8299 36.6929C28.8049 37.2758 28.5643 37.7617 28.3236 38.2493C27.4361 39.5587 26.1626 40.5182 24.7672 41.1666C18.8715 43.7746 12.0867 42.1464 6.99575 38.4305C5.90193 37.6383 4.90657 36.7351 3.96276 35.7772C2.88145 34.649 1.9345 33.488 1.06257 32.2348C2.14545 35.8226 4.01277 39.0696 6.46448 41.7776C7.38173 42.3714 8.34272 42.9105 9.34747 43.3871C12.3742 44.8262 15.5307 45.6779 18.9137 45.7263L18.9121 45.7216ZM39.8947 39.4822C40.8619 37.6399 41.5135 35.8132 41.7792 33.6349C42.0948 31.402 41.9479 29.455 41.3698 27.3173C40.4853 24.2968 38.6774 21.8482 35.9069 20.2388C34.3865 19.3621 32.7802 18.9106 31.0379 18.9418C29.7738 19.0028 28.4643 19.2246 27.2751 19.7575C26.086 20.2903 25.1172 21.0232 23.9296 21.556C22.7905 22.0326 21.3498 21.7326 20.5122 20.77C19.9544 20.1638 19.5528 19.4965 19.3575 18.7137C17.548 11.8289 23.0796 6.07069 29.0502 3.93462C29.4159 3.8643 29.7269 3.74398 30.0894 3.56741C31.7004 3.01425 33.3255 2.7783 35.0616 2.64079C35.4304 2.6236 35.7929 2.61423 36.1507 2.61266C34.6444 1.86105 33.052 1.25789 31.391 0.820364C30.691 0.960998 29.9925 1.13132 29.294 1.33602C22.5748 3.29708 16.9526 8.2677 15.8229 15.5041C15.0572 20.4528 17.0073 25.8516 21.892 27.4642C22.1576 27.5048 22.3733 27.6002 22.6405 27.6392C23.228 27.7689 23.8046 27.6892 24.3875 27.7142C25.386 27.6127 26.3188 27.2517 27.0814 26.6345C27.4877 26.2985 27.8392 25.911 28.0799 25.425C28.9065 23.9593 30.3972 23.0952 32.0333 23.0686C33.4583 23.053 34.7537 23.6249 35.7976 24.4718C36.4054 25.0234 36.907 25.5797 37.4148 26.2423C37.5852 26.4985 37.7008 26.7032 37.8711 26.9595C40.3182 31.7004 38.8555 37.5273 35.5053 41.4385C31.0066 46.7248 24.0421 49.0671 16.9261 48.2483C16.3307 48.1811 15.7432 48.0936 15.1635 47.9889C18.184 49.2828 21.5107 50 25.0047 50C25.2078 50 25.4094 49.9969 25.611 49.9922C27.1204 49.6422 28.5955 49.139 30.0331 48.4608C34.1678 46.5717 37.668 43.6043 39.8994 39.4837L39.8947 39.4822Z" fill="#213617"/>
<path d="M66.2651 7.65906V20.75H63.1011V7.65906H66.2651Z" fill="#213617"/>
<path d="M68.6115 20.75V10.9318H71.5838V12.7343H71.6924C71.897 12.1378 72.2421 11.6669 72.7279 11.3217C73.2137 10.9765 73.7933 10.8039 74.4666 10.8039C75.1484 10.8039 75.7322 10.9787 76.218 11.3281C76.7038 11.6775 77.0127 12.1463 77.1448 12.7343H77.2471C77.4304 12.1505 77.7883 11.6839 78.321 11.3345C78.8537 10.9808 79.4822 10.8039 80.2066 10.8039C81.1356 10.8039 81.8899 11.1022 82.4694 11.6988C83.049 12.2912 83.3387 13.1051 83.3387 14.1406V20.75H80.213V14.8565C80.213 14.3664 80.0873 13.9936 79.8359 13.7379C79.5845 13.478 79.2585 13.348 78.8579 13.348C78.4275 13.348 78.0887 13.4886 77.8416 13.7699C77.5987 14.0468 77.4772 14.4197 77.4772 14.8885V20.75H74.473V14.8245C74.473 14.3686 74.3494 14.0085 74.1022 13.7443C73.8551 13.4801 73.5291 13.348 73.1242 13.348C72.8515 13.348 72.6108 13.414 72.4019 13.5461C72.1931 13.674 72.0291 13.8572 71.9098 14.0958C71.7947 14.3345 71.7372 14.6157 71.7372 14.9396V20.75H68.6115Z" fill="#213617"/>
<path d="M85.6355 24.4318V10.9318H88.7293V12.6129H88.8252C88.953 12.3146 89.1341 12.027 89.3685 11.75C89.6071 11.473 89.9097 11.2471 90.2762 11.0724C90.6469 10.8934 91.0901 10.8039 91.6057 10.8039C92.2875 10.8039 92.9246 10.9829 93.5169 11.3409C94.1135 11.6988 94.595 12.2507 94.9615 12.9964C95.328 13.7422 95.5112 14.6924 95.5112 15.8473C95.5112 16.9595 95.3344 17.8906 94.9807 18.6406C94.6313 19.3906 94.1583 19.9531 93.5617 20.3281C92.9693 20.7031 92.311 20.8906 91.5865 20.8906C91.0922 20.8906 90.6639 20.8096 90.3017 20.6477C89.9395 20.4858 89.6348 20.2727 89.3877 20.0085C89.1448 19.7443 88.9573 19.4609 88.8252 19.1583H88.7612V24.4318H85.6355ZM88.6973 15.8409C88.6973 16.3693 88.7676 16.8295 88.9083 17.2216C89.0531 17.6136 89.2598 17.9183 89.5283 18.1356C89.801 18.3487 90.127 18.4552 90.5063 18.4552C90.8898 18.4552 91.2158 18.3487 91.4842 18.1356C91.7527 17.9183 91.9551 17.6136 92.0915 17.2216C92.2321 16.8295 92.3024 16.3693 92.3024 15.8409C92.3024 15.3125 92.2321 14.8544 92.0915 14.4666C91.9551 14.0788 91.7527 13.7784 91.4842 13.5653C91.22 13.3522 90.8941 13.2457 90.5063 13.2457C90.1227 13.2457 89.7967 13.3501 89.5283 13.5589C89.2598 13.7677 89.0531 14.066 88.9083 14.4538C88.7676 14.8416 88.6973 15.3039 88.6973 15.8409Z" fill="#213617"/>
<path d="M100.277 20.9162C99.6505 20.9162 99.0944 20.8118 98.6086 20.603C98.1271 20.3899 97.7457 20.0703 97.4645 19.6441C97.1875 19.2137 97.049 18.6747 97.049 18.027C97.049 17.4815 97.1449 17.0213 97.3366 16.6463C97.5284 16.2713 97.7926 15.9666 98.1292 15.7322C98.4659 15.4978 98.8537 15.321 99.2926 15.2017C99.7315 15.0781 100.2 14.995 100.699 14.9524C101.257 14.9012 101.707 14.848 102.048 14.7926C102.388 14.7329 102.636 14.6498 102.789 14.5433C102.947 14.4325 103.026 14.277 103.026 14.0767V14.0447C103.026 13.7166 102.913 13.463 102.687 13.2841C102.461 13.1051 102.156 13.0156 101.773 13.0156C101.359 13.0156 101.027 13.1051 100.776 13.2841C100.524 13.463 100.364 13.7102 100.296 14.0255L97.4133 13.9233C97.4985 13.3267 97.718 12.794 98.0717 12.3253C98.4297 11.8522 98.9197 11.4815 99.5419 11.213C100.168 10.9403 100.92 10.8039 101.798 10.8039C102.425 10.8039 103.002 10.8785 103.531 11.0277C104.059 11.1726 104.519 11.3856 104.911 11.6669C105.303 11.9439 105.606 12.2848 105.819 12.6896C106.036 13.0944 106.145 13.5568 106.145 14.0767V20.75H103.205V19.3821H103.128C102.953 19.7145 102.729 19.9957 102.457 20.2258C102.188 20.4559 101.871 20.6285 101.504 20.7436C101.142 20.8586 100.733 20.9162 100.277 20.9162ZM101.242 18.8707C101.579 18.8707 101.881 18.8025 102.15 18.6662C102.423 18.5298 102.64 18.3423 102.802 18.1037C102.964 17.8608 103.045 17.5795 103.045 17.2599V16.3267C102.955 16.3735 102.847 16.4162 102.719 16.4545C102.595 16.4929 102.459 16.5291 102.31 16.5632C102.16 16.5973 102.007 16.6271 101.849 16.6527C101.692 16.6782 101.54 16.7017 101.396 16.723C101.102 16.7699 100.85 16.8423 100.641 16.9403C100.437 17.0383 100.279 17.1662 100.168 17.3238C100.062 17.4772 100.008 17.6605 100.008 17.8735C100.008 18.1974 100.124 18.4446 100.354 18.615C100.588 18.7855 100.884 18.8707 101.242 18.8707Z" fill="#213617"/>
<path d="M112.999 20.9353C111.964 20.9353 111.075 20.7223 110.334 20.2961C109.596 19.87 109.03 19.2777 108.633 18.5191C108.237 17.7564 108.039 16.8743 108.039 15.8728C108.039 14.8672 108.237 13.9851 108.633 13.2265C109.034 12.4637 109.603 11.8693 110.34 11.4431C111.082 11.017 111.966 10.8039 112.993 10.8039C113.9 10.8039 114.691 10.968 115.364 11.2961C116.042 11.6243 116.57 12.0887 116.949 12.6896C117.333 13.2862 117.535 13.9872 117.557 14.7926H114.636C114.576 14.2897 114.405 13.8956 114.124 13.6101C113.847 13.3245 113.485 13.1818 113.038 13.1818C112.675 13.1818 112.358 13.2841 112.085 13.4886C111.812 13.6889 111.599 13.9872 111.446 14.3835C111.297 14.7755 111.222 15.2613 111.222 15.8409C111.222 16.4204 111.297 16.9105 111.446 17.311C111.599 17.7074 111.812 18.0078 112.085 18.2123C112.358 18.4126 112.675 18.5128 113.038 18.5128C113.327 18.5128 113.583 18.451 113.805 18.3274C114.03 18.2038 114.216 18.0227 114.361 17.7841C114.506 17.5412 114.597 17.2471 114.636 16.902H117.557C117.527 17.7116 117.324 18.419 116.949 19.0241C116.579 19.6292 116.057 20.1001 115.383 20.4368C114.714 20.7691 113.92 20.9353 112.999 20.9353Z" fill="#213617"/>
<path d="M125.058 10.9318V13.2329H118.864V10.9318H125.058ZM120.162 8.57951H123.288V17.6626C123.288 17.8544 123.317 18.0099 123.377 18.1292C123.441 18.2443 123.533 18.3274 123.652 18.3785C123.771 18.4254 123.914 18.4488 124.08 18.4488C124.2 18.4488 124.325 18.4382 124.457 18.4169C124.594 18.3913 124.696 18.37 124.764 18.353L125.237 20.6093C125.088 20.652 124.877 20.7052 124.604 20.7691C124.336 20.8331 124.014 20.8735 123.639 20.8906C122.906 20.9247 122.278 20.8395 121.754 20.6349C121.234 20.4261 120.835 20.1022 120.558 19.6633C120.285 19.2244 120.153 18.6726 120.162 18.0078V8.57951Z" fill="#213617"/>
<path d="M71.0954 33.3338C71.0527 32.865 70.8631 32.5007 70.5265 32.2407C70.1941 31.9765 69.7189 31.8444 69.101 31.8444C68.6919 31.8444 68.351 31.8977 68.0783 32.0042C67.8056 32.1108 67.601 32.2578 67.4647 32.4453C67.3283 32.6285 67.258 32.8395 67.2537 33.0781C67.2452 33.2741 67.2836 33.4467 67.3688 33.5958C67.4583 33.745 67.5861 33.8771 67.7523 33.9922C67.9228 34.103 68.1273 34.201 68.3659 34.2862C68.6046 34.3714 68.873 34.446 69.1713 34.5099L70.2963 34.7656C70.9441 34.9062 71.5151 35.0937 72.0094 35.3281C72.508 35.5625 72.9256 35.8416 73.2623 36.1654C73.6032 36.4893 73.861 36.8622 74.0357 37.2841C74.2104 37.7059 74.2999 38.1789 74.3042 38.7031C74.2999 39.5298 74.0911 40.2393 73.6777 40.8316C73.2644 41.424 72.6699 41.8778 71.8944 42.1931C71.123 42.5085 70.1919 42.6662 69.101 42.6662C68.0059 42.6662 67.0513 42.5021 66.2374 42.174C65.4235 41.8458 64.7907 41.3473 64.339 40.6782C63.8873 40.0092 63.655 39.1633 63.6422 38.1406H66.6721C66.6976 38.5625 66.8105 38.914 67.0108 39.1953C67.2111 39.4765 67.486 39.6896 67.8354 39.8345C68.1891 39.9794 68.5982 40.0518 69.0627 40.0518C69.4888 40.0518 69.851 39.9943 70.1493 39.8792C70.4519 39.7642 70.6841 39.6044 70.8461 39.3998C71.008 39.1953 71.0911 38.9609 71.0954 38.6967C71.0911 38.4495 71.0144 38.2386 70.8652 38.0639C70.7161 37.8849 70.486 37.7315 70.1749 37.6037C69.8681 37.4716 69.476 37.3501 68.9988 37.2393L67.6309 36.9197C66.4973 36.6598 65.6046 36.24 64.9526 35.6605C64.3006 35.0767 63.9767 34.2883 63.981 33.2954C63.9767 32.4858 64.1941 31.7762 64.633 31.1669C65.0719 30.5575 65.6792 30.0824 66.4547 29.7414C67.2303 29.4005 68.1145 29.2301 69.1074 29.2301C70.1216 29.2301 71.0016 29.4027 71.7473 29.7478C72.4973 30.0887 73.079 30.5681 73.4924 31.186C73.9057 31.8039 74.1167 32.5199 74.1252 33.3338H71.0954Z" fill="#213617"/>
<path d="M81.8041 32.6818V34.9829H75.6102V32.6818H81.8041ZM76.9078 30.3295H80.0335V39.4126C80.0335 39.6044 80.0633 39.7599 80.123 39.8792C80.1869 39.9943 80.2785 40.0774 80.3978 40.1285C80.5171 40.1754 80.6599 40.1988 80.8261 40.1988C80.9454 40.1988 81.0711 40.1882 81.2032 40.1669C81.3396 40.1413 81.4419 40.12 81.51 40.103L81.983 42.3593C81.8339 42.402 81.623 42.4552 81.3502 42.5191C81.0818 42.5831 80.76 42.6235 80.385 42.6406C79.6521 42.6747 79.0235 42.5895 78.4994 42.3849C77.9795 42.1761 77.5811 41.8522 77.3041 41.4133C77.0313 40.9744 76.8992 40.4226 76.9078 39.7578V30.3295Z" fill="#213617"/>
<path d="M83.7589 42.5V32.6818H86.7951V34.4716H86.8974C87.0764 33.8238 87.3683 33.3423 87.7731 33.027C88.1779 32.7074 88.6488 32.5476 89.1857 32.5476C89.3306 32.5476 89.4798 32.5582 89.6332 32.5795C89.7866 32.5966 89.9293 32.6243 90.0614 32.6626V35.3792C89.9123 35.3281 89.7163 35.2876 89.4734 35.2578C89.2347 35.228 89.0217 35.213 88.8342 35.213C88.4634 35.213 88.1289 35.2961 87.8306 35.4623C87.5366 35.6243 87.3043 35.8522 87.1339 36.1463C86.9677 36.436 86.8846 36.777 86.8846 37.169V42.5H83.7589Z" fill="#213617"/>
<path d="M95.7748 42.6853C94.7478 42.6853 93.8614 42.4829 93.1157 42.0781C92.3742 41.669 91.8032 41.0873 91.4026 40.3331C91.0063 39.5745 90.8082 38.6733 90.8082 37.6292C90.8082 36.615 91.0084 35.7287 91.409 34.9701C91.8096 34.2074 92.3742 33.615 93.1029 33.1931C93.8316 32.767 94.6903 32.5539 95.6789 32.5539C96.3778 32.5539 97.017 32.6626 97.5965 32.8799C98.1761 33.0973 98.6768 33.419 99.0986 33.8451C99.5205 34.2713 99.8486 34.7976 100.083 35.424C100.317 36.0461 100.435 36.7599 100.435 37.5653V38.3451H91.9012V36.5298H97.5262C97.5219 36.1974 97.4431 35.9012 97.2897 35.6413C97.1363 35.3814 96.9254 35.1789 96.6569 35.0341C96.3927 34.8849 96.088 34.8103 95.7428 34.8103C95.3934 34.8103 95.0802 34.8892 94.8032 35.0468C94.5262 35.2003 94.3067 35.4112 94.1448 35.6797C93.9829 35.9439 93.8976 36.2443 93.8891 36.5809V38.4282C93.8891 38.8288 93.968 39.1804 94.1256 39.4829C94.2833 39.7812 94.507 40.0135 94.7968 40.1797C95.0866 40.3458 95.4317 40.4289 95.8323 40.4289C96.1093 40.4289 96.3607 40.3906 96.5866 40.3139C96.8124 40.2372 97.0063 40.1243 97.1682 39.9751C97.3302 39.826 97.4516 39.6427 97.5326 39.4254L100.403 39.5085C100.283 40.152 100.021 40.7123 99.6164 41.1896C99.2158 41.6626 98.6896 42.0312 98.0376 42.2954C97.3856 42.5554 96.6313 42.6853 95.7748 42.6853Z" fill="#213617"/>
<path d="M105.159 42.6662C104.532 42.6662 103.976 42.5618 103.49 42.353C103.009 42.1399 102.628 41.8203 102.346 41.3941C102.069 40.9637 101.931 40.4247 101.931 39.777C101.931 39.2315 102.027 38.7713 102.218 38.3963C102.41 38.0213 102.674 37.7166 103.011 37.4822C103.348 37.2478 103.735 37.071 104.174 36.9517C104.613 36.8281 105.082 36.745 105.581 36.7024C106.139 36.6512 106.588 36.598 106.929 36.5426C107.27 36.4829 107.517 36.3998 107.671 36.2933C107.828 36.1825 107.907 36.027 107.907 35.8267V35.7947C107.907 35.4666 107.794 35.213 107.569 35.0341C107.343 34.8551 107.038 34.7656 106.654 34.7656C106.241 34.7656 105.909 34.8551 105.657 35.0341C105.406 35.213 105.246 35.4602 105.178 35.7755L102.295 35.6733C102.38 35.0767 102.6 34.544 102.953 34.0753C103.311 33.6022 103.802 33.2315 104.424 32.963C105.05 32.6903 105.802 32.5539 106.68 32.5539C107.306 32.5539 107.884 32.6285 108.412 32.7777C108.941 32.9226 109.401 33.1356 109.793 33.4169C110.185 33.6939 110.488 34.0348 110.701 34.4396C110.918 34.8444 111.027 35.3068 111.027 35.8267V42.5H108.086V41.1321H108.01C107.835 41.4645 107.611 41.7457 107.338 41.9758C107.07 42.2059 106.753 42.3785 106.386 42.4936C106.024 42.6086 105.615 42.6662 105.159 42.6662ZM106.124 40.6207C106.461 40.6207 106.763 40.5525 107.032 40.4162C107.304 40.2798 107.522 40.0923 107.684 39.8537C107.846 39.6108 107.927 39.3295 107.927 39.0099V38.0767C107.837 38.1235 107.728 38.1662 107.601 38.2045C107.477 38.2429 107.341 38.2791 107.191 38.3132C107.042 38.3473 106.889 38.3771 106.731 38.4027C106.574 38.4282 106.422 38.4517 106.277 38.473C105.983 38.5199 105.732 38.5923 105.523 38.6903C105.319 38.7883 105.161 38.9162 105.05 39.0738C104.944 39.2272 104.89 39.4105 104.89 39.6235C104.89 39.9474 105.005 40.1946 105.235 40.365C105.47 40.5355 105.766 40.6207 106.124 40.6207Z" fill="#213617"/>
<path d="M113.298 42.5V32.6818H116.27V34.4843H116.379C116.583 33.8878 116.929 33.4169 117.414 33.0717C117.9 32.7265 118.48 32.5539 119.153 32.5539C119.835 32.5539 120.419 32.7287 120.904 33.0781C121.39 33.4275 121.699 33.8963 121.831 34.4843H121.934C122.117 33.9005 122.475 33.4339 123.007 33.0845C123.54 32.7308 124.169 32.5539 124.893 32.5539C125.822 32.5539 126.576 32.8522 127.156 33.4488C127.735 34.0412 128.025 34.8551 128.025 35.8906V42.5H124.899V36.6065C124.899 36.1164 124.774 35.7436 124.522 35.4879C124.271 35.228 123.945 35.098 123.544 35.098C123.114 35.098 122.775 35.2386 122.528 35.5199C122.285 35.7968 122.164 36.1697 122.164 36.6385V42.5H119.159V36.5745C119.159 36.1186 119.036 35.7585 118.789 35.4943C118.541 35.2301 118.215 35.098 117.811 35.098C117.538 35.098 117.297 35.164 117.088 35.2961C116.88 35.424 116.715 35.6072 116.596 35.8458C116.481 36.0845 116.424 36.3657 116.424 36.6896V42.5H113.298Z" fill="#213617"/>
</svg>
