<svg width="201" height="200" viewBox="0 0 201 200" fill="none" xmlns="http://www.w3.org/2000/svg">
<path d="M0 100.844C0 100.556 0 100.275 0 99.9875C0 90.2806 1.38764 80.8988 3.9628 72.0233C3.99405 72.517 4.03149 73.0171 4.05024 73.5296C4.21275 76.9048 4.99402 80.03 5.58156 83.3865C7.8567 95.531 12.1571 105.888 18.97 115.695C22.364 120.389 26.1392 124.22 30.5395 127.814C33.1709 129.802 36.446 131.964 39.7774 130.958C41.54 128.127 39.0712 125.077 38.9274 122.126C34.1647 110.951 30.8894 99.9125 29.2331 87.5242C27.5392 74.2984 29.0394 61.5476 32.8646 48.9031C37.1899 34.6272 44.6841 21.8139 54.5972 10.8632C59.5225 8.35052 64.6791 6.23164 70.0294 4.55653C68.3605 5.93162 66.7354 7.36921 65.1603 8.90056C50.8157 22.4764 40.4275 39.2462 36.7461 59.2787C33.5834 76.9673 35.5022 94.8309 43.8589 110.482C44.1027 111.107 44.1215 111.526 44.359 112.151C51.0719 124.289 60.8288 133.958 71.9982 142.084C75.2734 144.253 78.3424 146.634 79.9925 150.147C80.455 150.972 80.2926 152.034 79.9113 152.897C78.5487 155.285 75.836 156.053 73.3296 156.591C71.642 156.672 70.3981 157.154 68.7105 157.235C66.8041 157.116 64.6978 157.216 62.7914 157.097C55.1409 156.197 48.6967 153.972 41.9901 150.703C21.4388 140.265 7.68173 122.358 0 100.838V100.844ZM15.4072 82.3114C16.4322 83.6115 16.7073 85.3303 18.6262 85.2366C20.3451 84.9616 20.62 82.6364 20.745 81.2863C21.8701 64.679 24.3827 48.9656 31.3832 34.3896C33.4771 29.6769 35.9397 25.1891 38.7274 20.9513C26.8392 30.1769 17.0886 42.0276 10.3444 55.6285C10.3444 63.479 11.5258 71.4232 14.1009 79.2987C14.5384 80.43 14.7759 81.3863 15.4009 82.3176L15.4072 82.3114ZM174.542 56.2348C172.073 57.6223 172.88 61.1726 174.242 63.2227C183.205 78.2111 190.681 93.0621 192.793 110.707C193.987 120.97 193.4 131.152 191.268 140.928C196.881 128.433 200.006 114.576 200.006 99.9937C200.006 87.0179 197.531 74.6172 193.037 63.2415C189.693 60.66 186.118 58.4849 181.968 56.9411C179.599 55.9972 176.586 54.8784 174.542 56.241V56.2348ZM124.302 26.3329C114.751 29.7519 106.782 35.4147 101.069 43.9277C98.3186 48.2843 96.656 53.2221 98.5686 57.7786C99.775 60.8913 102.788 62.0101 105.975 62.4914C110.013 62.9289 113.582 62.5477 117.376 62.3664C118.02 62.5477 118.439 62.5289 119.082 62.7039C119.082 62.7039 119.501 62.6852 119.707 62.4602C120.126 62.4414 120.57 62.8414 120.995 62.8227C121.195 62.6039 121.414 62.8039 121.62 62.5789C122.039 62.5602 122.483 62.9602 122.908 62.9414C148.922 63.5915 169.711 82.8677 175.586 108.357C181.961 135.515 172.442 161.535 154.328 180.149C150.522 184.011 146.434 187.549 142.103 190.731C154.347 185.043 165.248 176.949 174.198 167.06C176.448 163.354 178.411 159.485 179.974 155.472C182.961 147.303 185.543 139.571 186.18 130.877C186.099 129.189 186.237 127.708 186.355 125.795C186.93 111.401 183.749 98.0374 176.817 85.6929C173.361 79.73 169.723 74.4171 164.848 69.5793C157.516 62.1164 149.003 56.3973 139.846 50.5032C137.659 48.9156 135.427 46.4904 135.927 43.7215C137.571 38.3586 143.871 37.6336 148.891 36.546C149.309 36.5273 149.534 36.7273 149.953 36.7085C155.391 35.6022 160.71 36.4023 166.054 37.6211C171.904 38.7337 177.217 40.5713 182.199 42.9777C177.305 35.9335 171.523 29.5456 165.023 23.9827C151.522 21.0263 137.515 21.5701 124.32 26.3204L124.302 26.3329ZM75.6485 182.886C81.7739 182.805 87.2492 182.536 93.3121 181.193C105.638 178.274 116.395 173.53 125.502 165.279C128.733 162.166 131.54 159.072 134.108 155.36C140.003 146.203 143.69 135.04 140.015 124.445C139.771 123.82 139.309 123.001 139.071 122.376C137.665 119.489 135.215 116.857 132.202 115.738C129.633 115.02 126.683 115.157 124.195 116.126C119.639 118.032 115.307 120.145 110.751 122.058C105.975 123.764 101.581 124.614 96.4997 124.433C94.5933 124.314 92.9058 124.395 90.9807 123.851C87.3492 122.97 84.1365 122.07 80.905 120.745C72.0482 116.732 65.1791 110.094 60.1412 101.888C53.7096 91.2119 51.4345 79.0674 52.5158 66.3416C52.8533 64.6353 52.9971 63.1477 53.1346 61.6664C54.1534 56.5473 55.1972 51.847 57.0786 47.1092C60.1038 39.7837 64.2165 33.0333 69.1918 26.6704C77.1735 16.9886 86.9492 9.33808 98.2874 3.51272C100.769 2.26264 103.263 1.15632 105.782 0.16251C103.875 0.0562535 101.95 0 100.013 0C95.2622 0 90.587 0.331271 86.0117 0.975061C69.2669 11.2257 55.5659 26.2454 48.528 44.9966C48.1467 45.8591 47.7468 46.3029 47.3655 47.1654C44.8028 55.316 42.8589 63.2289 42.6401 71.8982C42.8027 79.705 43.1527 86.8742 45.6216 94.3559C48.378 103.306 52.3345 110.932 58.3786 118.032C69.5668 131.014 84.8865 137.671 102.288 139.365C104.413 139.684 106.763 140.209 108.894 140.528C110.819 141.071 112.77 142.034 114.113 143.659C114.795 144.684 115.257 145.503 115.32 146.772C115.22 149.103 114.257 151.047 113.295 152.997C109.744 158.235 104.65 162.073 99.0687 164.667C75.486 175.098 48.3468 168.586 27.983 153.722C23.6077 150.553 19.6263 146.94 15.8511 143.109C11.5258 138.596 7.73801 133.952 4.2503 128.939C8.58182 143.29 16.0511 156.279 25.8579 167.11C29.5269 169.486 33.3709 171.642 37.3899 173.548C49.4969 179.305 62.1227 182.711 75.6547 182.905L75.6485 182.886ZM159.579 157.929C163.448 150.559 166.054 143.253 167.117 134.54C168.379 125.608 167.792 117.82 165.479 109.269C161.941 97.1873 154.71 87.393 143.628 80.9551C137.546 77.4486 131.121 75.6422 124.152 75.7672C119.095 76.011 113.857 76.8986 109.101 79.0299C104.344 81.1613 100.469 84.0928 95.7184 86.2241C91.1619 88.1305 85.3991 86.9304 82.0489 83.0802C79.8175 80.655 78.2112 77.9861 77.4299 74.8547C70.192 47.3155 92.3182 24.2828 116.201 15.7385C117.664 15.4572 118.907 14.9759 120.358 14.2696C126.802 12.057 133.302 11.1132 140.246 10.5632C141.721 10.4944 143.172 10.4569 144.603 10.4507C138.577 7.44421 132.208 5.03156 125.564 3.28145C122.764 3.84399 119.97 4.52528 117.176 5.34408C90.2994 13.1883 67.8105 33.0708 63.2915 62.0164C60.2288 81.8114 68.0293 103.406 87.568 109.857C88.6306 110.019 89.493 110.401 90.5618 110.557C92.912 111.076 95.2185 110.757 97.5499 110.857C101.544 110.451 105.275 109.007 108.326 106.538C109.951 105.194 111.357 103.644 112.319 101.7C115.626 95.8372 121.589 92.3808 128.133 92.2745C133.833 92.212 139.015 94.4997 143.19 97.8874C145.622 100.094 147.628 102.319 149.659 104.969C150.341 105.994 150.803 106.813 151.485 107.838C161.273 126.802 155.422 150.109 142.021 165.754C124.026 186.899 96.1686 196.269 67.7043 192.993C65.3229 192.725 62.9727 192.375 60.6538 191.956C72.7358 197.131 86.0429 200 100.019 200C100.831 200 101.638 199.987 102.444 199.969C108.482 198.569 114.382 196.556 120.132 193.843C136.671 186.287 150.672 174.417 159.598 157.935L159.579 157.929Z" fill="#1D2529"/>
</svg>
