<svg width="201" height="402" viewBox="0 0 201 402" fill="none" xmlns="http://www.w3.org/2000/svg">
<path d="M196.225 64.2505H195.849V24.7278C195.849 11.6231 185.22 1 172.109 1H28.2156C15.1046 1 4.47628 11.6231 4.47628 24.7278V64.2505H4.09976C2.38865 64.2505 1 65.6366 1 67.3487V94.6889C1 96.3992 2.38678 97.7872 4.09976 97.7872H4.47628V104.308H4.09976C2.38865 104.308 1 105.694 1 107.406V134.746C1 136.457 2.38678 137.845 4.09976 137.845H4.47628V377.272C4.47628 390.377 15.1046 401 28.2156 401H172.109C185.22 401 195.849 390.377 195.849 377.272V114.553H196.225C197.936 114.553 199.325 113.167 199.325 111.454V67.3468C199.325 65.6366 197.938 64.2486 196.225 64.2486V64.2505Z" stroke="black" stroke-width="2" stroke-miterlimit="10"/>
<path d="M167.226 9.71022H32.4289C22.1021 9.71022 13.7305 18.2121 13.7305 28.6997V373.3C13.7305 383.788 22.1021 392.29 32.4289 392.29H167.226C177.553 392.29 185.925 383.788 185.925 373.3V28.6997C185.925 18.2121 177.553 9.71022 167.226 9.71022Z" fill="#F9FFE9" stroke="black" stroke-width="2" stroke-miterlimit="10"/>
<path d="M45.7891 129.42C45.7285 128.883 45.4785 128.466 45.0391 128.17C44.5997 127.871 44.0466 127.722 43.38 127.722C42.9027 127.722 42.4898 127.797 42.1413 127.949C41.7929 128.097 41.522 128.301 41.3288 128.562C41.1394 128.82 41.0447 129.114 41.0447 129.443C41.0447 129.72 41.1091 129.958 41.2379 130.159C41.3705 130.36 41.5429 130.528 41.755 130.665C41.9709 130.797 42.2019 130.909 42.4482 131C42.6944 131.087 42.9311 131.159 43.1584 131.216L44.2947 131.511C44.666 131.602 45.0466 131.725 45.4368 131.881C45.8269 132.036 46.1887 132.241 46.522 132.494C46.8554 132.748 47.1243 133.062 47.3288 133.438C47.5372 133.812 47.6413 134.261 47.6413 134.784C47.6413 135.443 47.4709 136.028 47.13 136.54C46.7929 137.051 46.3023 137.455 45.6584 137.75C45.0182 138.045 44.2436 138.193 43.3345 138.193C42.4633 138.193 41.7095 138.055 41.0732 137.778C40.4368 137.502 39.9387 137.11 39.5788 136.602C39.219 136.091 39.0201 135.485 38.9822 134.784H40.7436C40.7777 135.205 40.9141 135.555 41.1527 135.835C41.3951 136.112 41.7038 136.318 42.0788 136.455C42.4576 136.587 42.8724 136.653 43.3232 136.653C43.8194 136.653 44.2607 136.576 44.647 136.42C45.0372 136.261 45.344 136.042 45.5675 135.761C45.791 135.477 45.9027 135.146 45.9027 134.767C45.9027 134.422 45.8042 134.14 45.6072 133.92C45.4141 133.701 45.1508 133.519 44.8175 133.375C44.4879 133.231 44.1148 133.104 43.6982 132.994L42.3232 132.619C41.3913 132.366 40.6527 131.992 40.1072 131.5C39.5656 131.008 39.2947 130.356 39.2947 129.545C39.2947 128.875 39.4766 128.29 39.8402 127.79C40.2038 127.29 40.6963 126.902 41.3175 126.625C41.9387 126.345 42.6394 126.205 43.4197 126.205C44.2076 126.205 44.9027 126.343 45.505 126.619C46.111 126.896 46.5883 127.277 46.9368 127.761C47.2853 128.242 47.4671 128.795 47.4822 129.42H45.7891ZM55.1314 134.381V129.273H56.8359V138H55.1655V136.489H55.0746C54.8738 136.955 54.5518 137.343 54.1087 137.653C53.6693 137.96 53.1219 138.114 52.4666 138.114C51.906 138.114 51.4098 137.991 50.978 137.744C50.55 137.494 50.2128 137.125 49.9666 136.636C49.7242 136.148 49.603 135.544 49.603 134.824V129.273H51.3018V134.619C51.3018 135.214 51.4666 135.687 51.7962 136.04C52.1257 136.392 52.5537 136.568 53.0803 136.568C53.3984 136.568 53.7147 136.489 54.0291 136.33C54.3473 136.17 54.6106 135.93 54.8189 135.608C55.031 135.286 55.1352 134.877 55.1314 134.381ZM59.255 138V126.364H60.9538V130.688H61.0561C61.1546 130.506 61.2966 130.295 61.4822 130.057C61.6679 129.818 61.9254 129.61 62.255 129.432C62.5845 129.25 63.0201 129.159 63.5618 129.159C64.2663 129.159 64.8951 129.337 65.4482 129.693C66.0012 130.049 66.4349 130.562 66.7493 131.233C67.0675 131.903 67.2266 132.71 67.2266 133.653C67.2266 134.597 67.0694 135.405 66.755 136.08C66.4406 136.75 66.0088 137.267 65.4595 137.631C64.9103 137.991 64.2834 138.17 63.5788 138.17C63.0485 138.17 62.6148 138.081 62.2777 137.903C61.9444 137.725 61.683 137.517 61.4936 137.278C61.3042 137.04 61.1584 136.828 61.0561 136.642H60.9141V138H59.255ZM60.9197 133.636C60.9197 134.25 61.0088 134.788 61.1868 135.25C61.3648 135.712 61.6224 136.074 61.9595 136.335C62.2966 136.593 62.7095 136.722 63.1982 136.722C63.7057 136.722 64.13 136.587 64.4709 136.318C64.8118 136.045 65.0694 135.676 65.2436 135.21C65.4216 134.744 65.5107 134.22 65.5107 133.636C65.5107 133.061 65.4235 132.544 65.2493 132.085C65.0788 131.627 64.8213 131.265 64.4766 131C64.1357 130.735 63.7095 130.602 63.1982 130.602C62.7057 130.602 62.2891 130.729 61.9482 130.983C61.611 131.237 61.3554 131.591 61.1811 132.045C61.0069 132.5 60.9197 133.03 60.9197 133.636ZM69.1342 138V129.273H70.7649V130.693H70.8729C71.0547 130.212 71.352 129.837 71.7649 129.568C72.1778 129.295 72.6721 129.159 73.2479 129.159C73.8312 129.159 74.3198 129.295 74.7138 129.568C75.1115 129.841 75.4051 130.216 75.5945 130.693H75.6854C75.8937 130.227 76.2251 129.856 76.6797 129.58C77.1342 129.299 77.6759 129.159 78.3047 129.159C79.0964 129.159 79.7422 129.407 80.2422 129.903C80.746 130.4 80.9979 131.148 80.9979 132.148V138H79.299V132.307C79.299 131.716 79.138 131.288 78.8161 131.023C78.4941 130.758 78.1096 130.625 77.6626 130.625C77.1096 130.625 76.6797 130.795 76.3729 131.136C76.0661 131.473 75.9126 131.907 75.9126 132.438V138H74.2195V132.199C74.2195 131.725 74.0717 131.345 73.7763 131.057C73.4808 130.769 73.0964 130.625 72.6229 130.625C72.3009 130.625 72.0036 130.71 71.7308 130.881C71.4619 131.047 71.2441 131.28 71.0774 131.58C70.9145 131.879 70.8331 132.225 70.8331 132.619V138H69.1342ZM83.2749 138V129.273H84.9737V138H83.2749ZM84.1328 127.926C83.8374 127.926 83.5836 127.828 83.3714 127.631C83.1631 127.43 83.0589 127.191 83.0589 126.915C83.0589 126.634 83.1631 126.396 83.3714 126.199C83.5836 125.998 83.8374 125.898 84.1328 125.898C84.4283 125.898 84.6802 125.998 84.8885 126.199C85.1006 126.396 85.2067 126.634 85.2067 126.915C85.2067 127.191 85.1006 127.43 84.8885 127.631C84.6802 127.828 84.4283 127.926 84.1328 127.926ZM91.3331 129.273V130.636H86.5661V129.273H91.3331ZM87.8445 127.182H89.5433V135.438C89.5433 135.767 89.5926 136.015 89.6911 136.182C89.7895 136.345 89.9164 136.456 90.0717 136.517C90.2308 136.574 90.4032 136.602 90.5888 136.602C90.7251 136.602 90.8445 136.593 90.9467 136.574C91.049 136.555 91.1286 136.54 91.1854 136.528L91.4922 137.932C91.3937 137.97 91.2536 138.008 91.0717 138.045C90.8899 138.087 90.6626 138.11 90.3899 138.114C89.9429 138.121 89.5263 138.042 89.1399 137.875C88.7536 137.708 88.4411 137.451 88.2024 137.102C87.9638 136.754 87.8445 136.316 87.8445 135.79V127.182ZM97.4467 141.273V129.273H99.1058V130.688H99.2479C99.3464 130.506 99.4884 130.295 99.674 130.057C99.8596 129.818 100.117 129.61 100.447 129.432C100.776 129.25 101.212 129.159 101.754 129.159C102.458 129.159 103.087 129.337 103.64 129.693C104.193 130.049 104.627 130.562 104.941 131.233C105.259 131.903 105.418 132.71 105.418 133.653C105.418 134.597 105.261 135.405 104.947 136.08C104.632 136.75 104.201 137.267 103.651 137.631C103.102 137.991 102.475 138.17 101.771 138.17C101.24 138.17 100.807 138.081 100.469 137.903C100.136 137.725 99.8748 137.517 99.6854 137.278C99.496 137.04 99.3501 136.828 99.2479 136.642H99.1456V141.273H97.4467ZM99.1115 133.636C99.1115 134.25 99.2005 134.788 99.3786 135.25C99.5566 135.712 99.8142 136.074 100.151 136.335C100.488 136.593 100.901 136.722 101.39 136.722C101.897 136.722 102.322 136.587 102.663 136.318C103.004 136.045 103.261 135.676 103.435 135.21C103.613 134.744 103.702 134.22 103.702 133.636C103.702 133.061 103.615 132.544 103.441 132.085C103.271 131.627 103.013 131.265 102.668 131C102.327 130.735 101.901 130.602 101.39 130.602C100.897 130.602 100.481 130.729 100.14 130.983C99.8028 131.237 99.5471 131.591 99.3729 132.045C99.1986 132.5 99.1115 133.03 99.1115 133.636ZM107.322 138V129.273H108.964V130.659H109.055C109.214 130.189 109.494 129.82 109.896 129.551C110.301 129.278 110.759 129.142 111.271 129.142C111.377 129.142 111.502 129.146 111.646 129.153C111.793 129.161 111.909 129.17 111.992 129.182V130.807C111.924 130.788 111.803 130.767 111.629 130.744C111.454 130.718 111.28 130.705 111.106 130.705C110.704 130.705 110.346 130.79 110.032 130.96C109.721 131.127 109.475 131.36 109.293 131.659C109.112 131.955 109.021 132.292 109.021 132.67V138H107.322ZM116.826 138.176C116.008 138.176 115.294 137.989 114.684 137.614C114.074 137.239 113.601 136.714 113.263 136.04C112.926 135.366 112.758 134.578 112.758 133.676C112.758 132.771 112.926 131.979 113.263 131.301C113.601 130.623 114.074 130.097 114.684 129.722C115.294 129.347 116.008 129.159 116.826 129.159C117.644 129.159 118.358 129.347 118.968 129.722C119.578 130.097 120.051 130.623 120.388 131.301C120.726 131.979 120.894 132.771 120.894 133.676C120.894 134.578 120.726 135.366 120.388 136.04C120.051 136.714 119.578 137.239 118.968 137.614C118.358 137.989 117.644 138.176 116.826 138.176ZM116.832 136.75C117.362 136.75 117.801 136.61 118.15 136.33C118.498 136.049 118.756 135.676 118.923 135.21C119.093 134.744 119.178 134.231 119.178 133.67C119.178 133.114 119.093 132.602 118.923 132.136C118.756 131.667 118.498 131.29 118.15 131.006C117.801 130.722 117.362 130.58 116.832 130.58C116.298 130.58 115.854 130.722 115.502 131.006C115.154 131.29 114.894 131.667 114.724 132.136C114.557 132.602 114.474 133.114 114.474 133.67C114.474 134.231 114.557 134.744 114.724 135.21C114.894 135.676 115.154 136.049 115.502 136.33C115.854 136.61 116.298 136.75 116.832 136.75ZM122.79 141.273V129.273H124.45V130.688H124.592C124.69 130.506 124.832 130.295 125.018 130.057C125.203 129.818 125.461 129.61 125.79 129.432C126.12 129.25 126.556 129.159 127.097 129.159C127.802 129.159 128.431 129.337 128.984 129.693C129.537 130.049 129.97 130.562 130.285 131.233C130.603 131.903 130.762 132.71 130.762 133.653C130.762 134.597 130.605 135.405 130.29 136.08C129.976 136.75 129.544 137.267 128.995 137.631C128.446 137.991 127.819 138.17 127.114 138.17C126.584 138.17 126.15 138.081 125.813 137.903C125.48 137.725 125.219 137.517 125.029 137.278C124.84 137.04 124.694 136.828 124.592 136.642H124.489V141.273H122.79ZM124.455 133.636C124.455 134.25 124.544 134.788 124.722 135.25C124.9 135.712 125.158 136.074 125.495 136.335C125.832 136.593 126.245 136.722 126.734 136.722C127.241 136.722 127.665 136.587 128.006 136.318C128.347 136.045 128.605 135.676 128.779 135.21C128.957 134.744 129.046 134.22 129.046 133.636C129.046 133.061 128.959 132.544 128.785 132.085C128.614 131.627 128.357 131.265 128.012 131C127.671 130.735 127.245 130.602 126.734 130.602C126.241 130.602 125.825 130.729 125.484 130.983C125.147 131.237 124.891 131.591 124.717 132.045C124.542 132.5 124.455 133.03 124.455 133.636ZM136.342 138.176C135.523 138.176 134.809 137.989 134.2 137.614C133.59 137.239 133.116 136.714 132.779 136.04C132.442 135.366 132.273 134.578 132.273 133.676C132.273 132.771 132.442 131.979 132.779 131.301C133.116 130.623 133.59 130.097 134.2 129.722C134.809 129.347 135.523 129.159 136.342 129.159C137.16 129.159 137.874 129.347 138.484 129.722C139.094 130.097 139.567 130.623 139.904 131.301C140.241 131.979 140.41 132.771 140.41 133.676C140.41 134.578 140.241 135.366 139.904 136.04C139.567 136.714 139.094 137.239 138.484 137.614C137.874 137.989 137.16 138.176 136.342 138.176ZM136.347 136.75C136.878 136.75 137.317 136.61 137.665 136.33C138.014 136.049 138.272 135.676 138.438 135.21C138.609 134.744 138.694 134.231 138.694 133.67C138.694 133.114 138.609 132.602 138.438 132.136C138.272 131.667 138.014 131.29 137.665 131.006C137.317 130.722 136.878 130.58 136.347 130.58C135.813 130.58 135.37 130.722 135.018 131.006C134.669 131.29 134.41 131.667 134.239 132.136C134.073 132.602 133.989 133.114 133.989 133.67C133.989 134.231 134.073 134.744 134.239 135.21C134.41 135.676 134.669 136.049 135.018 136.33C135.37 136.61 135.813 136.75 136.347 136.75ZM148.846 131.403L147.306 131.676C147.242 131.479 147.139 131.292 146.999 131.114C146.863 130.936 146.677 130.79 146.442 130.676C146.208 130.562 145.914 130.506 145.562 130.506C145.081 130.506 144.679 130.614 144.357 130.83C144.035 131.042 143.874 131.316 143.874 131.653C143.874 131.945 143.982 132.18 144.198 132.358C144.414 132.536 144.763 132.682 145.244 132.795L146.63 133.114C147.433 133.299 148.031 133.585 148.425 133.972C148.819 134.358 149.016 134.86 149.016 135.477C149.016 136 148.865 136.466 148.562 136.875C148.263 137.28 147.844 137.598 147.306 137.83C146.772 138.061 146.153 138.176 145.448 138.176C144.471 138.176 143.674 137.968 143.056 137.551C142.439 137.131 142.06 136.534 141.92 135.761L143.562 135.511C143.664 135.939 143.874 136.263 144.192 136.483C144.511 136.699 144.925 136.807 145.437 136.807C145.994 136.807 146.439 136.691 146.772 136.46C147.105 136.225 147.272 135.939 147.272 135.602C147.272 135.33 147.17 135.1 146.965 134.915C146.764 134.729 146.456 134.589 146.039 134.494L144.562 134.17C143.747 133.985 143.145 133.689 142.755 133.284C142.369 132.879 142.175 132.366 142.175 131.744C142.175 131.229 142.319 130.778 142.607 130.392C142.895 130.006 143.293 129.705 143.8 129.489C144.308 129.269 144.889 129.159 145.545 129.159C146.488 129.159 147.23 129.364 147.772 129.773C148.314 130.178 148.672 130.722 148.846 131.403ZM153.424 138.193C152.871 138.193 152.371 138.091 151.924 137.886C151.477 137.678 151.123 137.377 150.862 136.983C150.604 136.589 150.475 136.106 150.475 135.534C150.475 135.042 150.57 134.636 150.759 134.318C150.949 134 151.204 133.748 151.526 133.562C151.848 133.377 152.208 133.237 152.606 133.142C153.004 133.047 153.409 132.975 153.822 132.926C154.344 132.866 154.769 132.816 155.094 132.778C155.42 132.737 155.657 132.67 155.805 132.58C155.952 132.489 156.026 132.341 156.026 132.136V132.097C156.026 131.6 155.886 131.216 155.606 130.943C155.329 130.67 154.916 130.534 154.367 130.534C153.795 130.534 153.344 130.661 153.015 130.915C152.689 131.165 152.464 131.443 152.339 131.75L150.742 131.386C150.932 130.856 151.208 130.428 151.572 130.102C151.939 129.773 152.362 129.534 152.839 129.386C153.316 129.235 153.818 129.159 154.344 129.159C154.693 129.159 155.062 129.201 155.452 129.284C155.846 129.364 156.214 129.511 156.555 129.727C156.899 129.943 157.182 130.252 157.401 130.653C157.621 131.051 157.731 131.568 157.731 132.205V138H156.072V136.807H156.004C155.894 137.027 155.729 137.242 155.509 137.455C155.29 137.667 155.007 137.843 154.663 137.983C154.318 138.123 153.905 138.193 153.424 138.193ZM153.793 136.83C154.263 136.83 154.665 136.737 154.998 136.551C155.335 136.366 155.591 136.123 155.765 135.824C155.943 135.521 156.032 135.197 156.032 134.852V133.727C155.971 133.788 155.854 133.845 155.68 133.898C155.509 133.947 155.314 133.991 155.094 134.028C154.875 134.062 154.661 134.095 154.452 134.125C154.244 134.152 154.07 134.174 153.93 134.193C153.6 134.235 153.299 134.305 153.026 134.403C152.757 134.502 152.541 134.644 152.379 134.83C152.219 135.011 152.14 135.254 152.14 135.557C152.14 135.977 152.295 136.295 152.606 136.511C152.916 136.723 153.312 136.83 153.793 136.83ZM161.692 126.364V138H159.994V126.364H161.692ZM64.4048 148.273V149.636H59.473V148.273H64.4048ZM60.8253 157V147.261C60.8253 146.716 60.9446 146.263 61.1832 145.903C61.4219 145.54 61.7382 145.269 62.1321 145.091C62.526 144.909 62.9541 144.818 63.4162 144.818C63.7571 144.818 64.0488 144.847 64.2912 144.903C64.5336 144.956 64.7135 145.006 64.831 145.051L64.4332 146.426C64.3537 146.403 64.2514 146.377 64.1264 146.347C64.0014 146.312 63.8499 146.295 63.6719 146.295C63.259 146.295 62.9635 146.398 62.7855 146.602C62.6113 146.807 62.5241 147.102 62.5241 147.489V157H60.8253ZM69.4901 157.176C68.6719 157.176 67.9579 156.989 67.348 156.614C66.7382 156.239 66.2647 155.714 65.9276 155.04C65.5904 154.366 65.4219 153.578 65.4219 152.676C65.4219 151.771 65.5904 150.979 65.9276 150.301C66.2647 149.623 66.7382 149.097 67.348 148.722C67.9579 148.347 68.6719 148.159 69.4901 148.159C70.3082 148.159 71.0223 148.347 71.6321 148.722C72.242 149.097 72.7154 149.623 73.0526 150.301C73.3897 150.979 73.5582 151.771 73.5582 152.676C73.5582 153.578 73.3897 154.366 73.0526 155.04C72.7154 155.714 72.242 156.239 71.6321 156.614C71.0223 156.989 70.3082 157.176 69.4901 157.176ZM69.4957 155.75C70.026 155.75 70.4654 155.61 70.8139 155.33C71.1624 155.049 71.42 154.676 71.5866 154.21C71.7571 153.744 71.8423 153.231 71.8423 152.67C71.8423 152.114 71.7571 151.602 71.5866 151.136C71.42 150.667 71.1624 150.29 70.8139 150.006C70.4654 149.722 70.026 149.58 69.4957 149.58C68.9616 149.58 68.5185 149.722 68.1662 150.006C67.8177 150.29 67.5582 150.667 67.3878 151.136C67.2211 151.602 67.1378 152.114 67.1378 152.67C67.1378 153.231 67.2211 153.744 67.3878 154.21C67.5582 154.676 67.8177 155.049 68.1662 155.33C68.5185 155.61 68.9616 155.75 69.4957 155.75ZM75.4545 157V148.273H77.0966V149.659H77.1875C77.3466 149.189 77.6269 148.82 78.0284 148.551C78.4337 148.278 78.892 148.142 79.4034 148.142C79.5095 148.142 79.6345 148.146 79.7784 148.153C79.9261 148.161 80.0417 148.17 80.125 148.182V149.807C80.0568 149.788 79.9356 149.767 79.7614 149.744C79.5871 149.718 79.4129 149.705 79.2386 149.705C78.8371 149.705 78.4792 149.79 78.1648 149.96C77.8542 150.127 77.608 150.36 77.4261 150.659C77.2443 150.955 77.1534 151.292 77.1534 151.67V157H75.4545ZM89.0966 157.17C88.392 157.17 87.7633 156.991 87.2102 156.631C86.661 156.267 86.2292 155.75 85.9148 155.08C85.6042 154.405 85.4489 153.597 85.4489 152.653C85.4489 151.71 85.6061 150.903 85.9205 150.233C86.2386 149.562 86.6742 149.049 87.2273 148.693C87.7803 148.337 88.4072 148.159 89.108 148.159C89.6496 148.159 90.0852 148.25 90.4148 148.432C90.7481 148.61 91.0057 148.818 91.1875 149.057C91.3731 149.295 91.517 149.506 91.6193 149.688H91.7216V145.364H93.4205V157H91.7614V155.642H91.6193C91.517 155.828 91.3693 156.04 91.1761 156.278C90.9867 156.517 90.7254 156.725 90.392 156.903C90.0587 157.081 89.6269 157.17 89.0966 157.17ZM89.4716 155.722C89.9602 155.722 90.3731 155.593 90.7102 155.335C91.0511 155.074 91.3087 154.712 91.483 154.25C91.661 153.788 91.75 153.25 91.75 152.636C91.75 152.03 91.6629 151.5 91.4886 151.045C91.3144 150.591 91.0587 150.237 90.7216 149.983C90.3845 149.729 89.9678 149.602 89.4716 149.602C88.9602 149.602 88.5341 149.735 88.1932 150C87.8523 150.265 87.5947 150.627 87.4205 151.085C87.25 151.544 87.1648 152.061 87.1648 152.636C87.1648 153.22 87.2519 153.744 87.4261 154.21C87.6004 154.676 87.858 155.045 88.1989 155.318C88.5436 155.587 88.9678 155.722 89.4716 155.722ZM99.6065 157.176C98.7467 157.176 98.0062 156.992 97.3849 156.625C96.7675 156.254 96.2902 155.733 95.9531 155.062C95.6198 154.388 95.4531 153.598 95.4531 152.693C95.4531 151.799 95.6198 151.011 95.9531 150.33C96.2902 149.648 96.7599 149.116 97.3622 148.733C97.9683 148.35 98.6766 148.159 99.4872 148.159C99.9796 148.159 100.457 148.241 100.919 148.403C101.381 148.566 101.796 148.822 102.163 149.17C102.531 149.519 102.821 149.972 103.033 150.528C103.245 151.081 103.351 151.754 103.351 152.545V153.148H96.4134V151.875H101.686C101.686 151.428 101.595 151.032 101.413 150.688C101.232 150.339 100.976 150.064 100.646 149.864C100.321 149.663 99.938 149.562 99.4986 149.562C99.0213 149.562 98.6046 149.68 98.2486 149.915C97.8963 150.146 97.6236 150.449 97.4304 150.824C97.241 151.195 97.1463 151.598 97.1463 152.034V153.028C97.1463 153.612 97.2486 154.108 97.4531 154.517C97.6615 154.926 97.9512 155.239 98.3224 155.455C98.6937 155.667 99.1274 155.773 99.6236 155.773C99.9455 155.773 100.239 155.727 100.504 155.636C100.769 155.542 100.999 155.402 101.192 155.216C101.385 155.03 101.533 154.801 101.635 154.528L103.243 154.818C103.114 155.292 102.883 155.706 102.55 156.062C102.22 156.415 101.805 156.689 101.305 156.886C100.809 157.08 100.243 157.176 99.6065 157.176ZM111.776 150.403L110.236 150.676C110.171 150.479 110.069 150.292 109.929 150.114C109.793 149.936 109.607 149.79 109.372 149.676C109.137 149.562 108.844 149.506 108.491 149.506C108.01 149.506 107.609 149.614 107.287 149.83C106.965 150.042 106.804 150.316 106.804 150.653C106.804 150.945 106.912 151.18 107.128 151.358C107.344 151.536 107.692 151.682 108.173 151.795L109.56 152.114C110.363 152.299 110.961 152.585 111.355 152.972C111.749 153.358 111.946 153.86 111.946 154.477C111.946 155 111.795 155.466 111.491 155.875C111.192 156.28 110.774 156.598 110.236 156.83C109.702 157.061 109.082 157.176 108.378 157.176C107.401 157.176 106.603 156.968 105.986 156.551C105.368 156.131 104.99 155.534 104.849 154.761L106.491 154.511C106.594 154.939 106.804 155.263 107.122 155.483C107.44 155.699 107.855 155.807 108.366 155.807C108.923 155.807 109.368 155.691 109.702 155.46C110.035 155.225 110.202 154.939 110.202 154.602C110.202 154.33 110.099 154.1 109.895 153.915C109.694 153.729 109.385 153.589 108.969 153.494L107.491 153.17C106.677 152.985 106.075 152.689 105.685 152.284C105.298 151.879 105.105 151.366 105.105 150.744C105.105 150.229 105.249 149.778 105.537 149.392C105.825 149.006 106.223 148.705 106.73 148.489C107.238 148.269 107.819 148.159 108.474 148.159C109.418 148.159 110.16 148.364 110.702 148.773C111.243 149.178 111.601 149.722 111.776 150.403ZM113.814 157V148.273H115.513V157H113.814ZM114.672 146.926C114.376 146.926 114.123 146.828 113.911 146.631C113.702 146.43 113.598 146.191 113.598 145.915C113.598 145.634 113.702 145.396 113.911 145.199C114.123 144.998 114.376 144.898 114.672 144.898C114.967 144.898 115.219 144.998 115.428 145.199C115.64 145.396 115.746 145.634 115.746 145.915C115.746 146.191 115.64 146.43 115.428 146.631C115.219 146.828 114.967 146.926 114.672 146.926ZM117.798 157V148.273H119.44V149.659H119.531C119.69 149.189 119.971 148.82 120.372 148.551C120.777 148.278 121.236 148.142 121.747 148.142C121.853 148.142 121.978 148.146 122.122 148.153C122.27 148.161 122.385 148.17 122.469 148.182V149.807C122.401 149.788 122.279 149.767 122.105 149.744C121.931 149.718 121.757 149.705 121.582 149.705C121.181 149.705 120.823 149.79 120.509 149.96C120.198 150.127 119.952 150.36 119.77 150.659C119.588 150.955 119.497 151.292 119.497 151.67V157H117.798ZM127.388 157.176C126.528 157.176 125.787 156.992 125.166 156.625C124.549 156.254 124.071 155.733 123.734 155.062C123.401 154.388 123.234 153.598 123.234 152.693C123.234 151.799 123.401 151.011 123.734 150.33C124.071 149.648 124.541 149.116 125.143 148.733C125.75 148.35 126.458 148.159 127.268 148.159C127.761 148.159 128.238 148.241 128.7 148.403C129.162 148.566 129.577 148.822 129.945 149.17C130.312 149.519 130.602 149.972 130.814 150.528C131.026 151.081 131.132 151.754 131.132 152.545V153.148H124.195V151.875H129.467C129.467 151.428 129.376 151.032 129.195 150.688C129.013 150.339 128.757 150.064 128.428 149.864C128.102 149.663 127.719 149.562 127.28 149.562C126.803 149.562 126.386 149.68 126.03 149.915C125.678 150.146 125.405 150.449 125.212 150.824C125.022 151.195 124.928 151.598 124.928 152.034V153.028C124.928 153.612 125.03 154.108 125.234 154.517C125.443 154.926 125.732 155.239 126.104 155.455C126.475 155.667 126.909 155.773 127.405 155.773C127.727 155.773 128.02 155.727 128.286 155.636C128.551 155.542 128.78 155.402 128.973 155.216C129.166 155.03 129.314 154.801 129.416 154.528L131.024 154.818C130.895 155.292 130.664 155.706 130.331 156.062C130.001 156.415 129.587 156.689 129.087 156.886C128.59 157.08 128.024 157.176 127.388 157.176ZM136.284 157.17C135.58 157.17 134.951 156.991 134.398 156.631C133.848 156.267 133.417 155.75 133.102 155.08C132.792 154.405 132.636 153.597 132.636 152.653C132.636 151.71 132.794 150.903 133.108 150.233C133.426 149.562 133.862 149.049 134.415 148.693C134.968 148.337 135.595 148.159 136.295 148.159C136.837 148.159 137.273 148.25 137.602 148.432C137.936 148.61 138.193 148.818 138.375 149.057C138.561 149.295 138.705 149.506 138.807 149.688H138.909V145.364H140.608V157H138.949V155.642H138.807C138.705 155.828 138.557 156.04 138.364 156.278C138.174 156.517 137.913 156.725 137.58 156.903C137.246 157.081 136.814 157.17 136.284 157.17ZM136.659 155.722C137.148 155.722 137.561 155.593 137.898 155.335C138.239 155.074 138.496 154.712 138.67 154.25C138.848 153.788 138.938 153.25 138.938 152.636C138.938 152.03 138.85 151.5 138.676 151.045C138.502 150.591 138.246 150.237 137.909 149.983C137.572 149.729 137.155 149.602 136.659 149.602C136.148 149.602 135.722 149.735 135.381 150C135.04 150.265 134.782 150.627 134.608 151.085C134.438 151.544 134.352 152.061 134.352 152.636C134.352 153.22 134.439 153.744 134.614 154.21C134.788 154.676 135.045 155.045 135.386 155.318C135.731 155.587 136.155 155.722 136.659 155.722ZM56.7124 179.273V167.273H58.3714V168.688H58.5135C58.612 168.506 58.754 168.295 58.9396 168.057C59.1252 167.818 59.3828 167.61 59.7124 167.432C60.0419 167.25 60.4775 167.159 61.0192 167.159C61.7237 167.159 62.3525 167.337 62.9055 167.693C63.4586 168.049 63.8923 168.562 64.2067 169.233C64.5249 169.903 64.6839 170.71 64.6839 171.653C64.6839 172.597 64.5268 173.405 64.2124 174.08C63.898 174.75 63.4661 175.267 62.9169 175.631C62.3677 175.991 61.7408 176.17 61.0362 176.17C60.5059 176.17 60.0722 176.081 59.7351 175.903C59.4018 175.725 59.1404 175.517 58.951 175.278C58.7616 175.04 58.6158 174.828 58.5135 174.642H58.4112V179.273H56.7124ZM58.3771 171.636C58.3771 172.25 58.4661 172.788 58.6442 173.25C58.8222 173.712 59.0798 174.074 59.4169 174.335C59.754 174.593 60.1669 174.722 60.6555 174.722C61.1631 174.722 61.5874 174.587 61.9283 174.318C62.2692 174.045 62.5268 173.676 62.701 173.21C62.879 172.744 62.968 172.22 62.968 171.636C62.968 171.061 62.8809 170.544 62.7067 170.085C62.5362 169.627 62.2786 169.265 61.9339 169C61.593 168.735 61.1669 168.602 60.6555 168.602C60.1631 168.602 59.7464 168.729 59.4055 168.983C59.0684 169.237 58.8127 169.591 58.6385 170.045C58.4643 170.5 58.3771 171.03 58.3771 171.636ZM72.1158 172.381V167.273H73.8203V176H72.1499V174.489H72.0589C71.8582 174.955 71.5362 175.343 71.093 175.653C70.6536 175.96 70.1063 176.114 69.451 176.114C68.8904 176.114 68.3942 175.991 67.9624 175.744C67.5343 175.494 67.1972 175.125 66.951 174.636C66.7086 174.148 66.5874 173.544 66.5874 172.824V167.273H68.2862V172.619C68.2862 173.214 68.451 173.687 68.7805 174.04C69.1101 174.392 69.5381 174.568 70.0646 174.568C70.3828 174.568 70.6991 174.489 71.0135 174.33C71.3317 174.17 71.5949 173.93 71.8033 173.608C72.0154 173.286 72.1196 172.877 72.1158 172.381ZM76.2393 176V164.364H77.9382V168.688H78.0405C78.139 168.506 78.281 168.295 78.4666 168.057C78.6522 167.818 78.9098 167.61 79.2393 167.432C79.5689 167.25 80.0045 167.159 80.5462 167.159C81.2507 167.159 81.8795 167.337 82.4325 167.693C82.9856 168.049 83.4193 168.562 83.7337 169.233C84.0518 169.903 84.2109 170.71 84.2109 171.653C84.2109 172.597 84.0537 173.405 83.7393 174.08C83.425 174.75 82.9931 175.267 82.4439 175.631C81.8946 175.991 81.2678 176.17 80.5632 176.17C80.0329 176.17 79.5992 176.081 79.2621 175.903C78.9287 175.725 78.6674 175.517 78.478 175.278C78.2886 175.04 78.1428 174.828 78.0405 174.642H77.8984V176H76.2393ZM77.9041 171.636C77.9041 172.25 77.9931 172.788 78.1712 173.25C78.3492 173.712 78.6068 174.074 78.9439 174.335C79.281 174.593 79.6939 174.722 80.1825 174.722C80.6901 174.722 81.1143 174.587 81.4553 174.318C81.7962 174.045 82.0537 173.676 82.228 173.21C82.406 172.744 82.495 172.22 82.495 171.636C82.495 171.061 82.4079 170.544 82.2337 170.085C82.0632 169.627 81.8056 169.265 81.4609 169C81.12 168.735 80.6939 168.602 80.1825 168.602C79.6901 168.602 79.2734 168.729 78.9325 168.983C78.5954 169.237 78.3397 169.591 78.1655 170.045C77.9912 170.5 77.9041 171.03 77.9041 171.636ZM87.8175 164.364V176H86.1186V164.364H87.8175ZM90.103 176V167.273H91.8018V176H90.103ZM90.9609 165.926C90.6655 165.926 90.4117 165.828 90.1996 165.631C89.9912 165.43 89.8871 165.191 89.8871 164.915C89.8871 164.634 89.9912 164.396 90.1996 164.199C90.4117 163.998 90.6655 163.898 90.9609 163.898C91.2564 163.898 91.5083 163.998 91.7166 164.199C91.9287 164.396 92.0348 164.634 92.0348 164.915C92.0348 165.191 91.9287 165.43 91.7166 165.631C91.5083 165.828 91.2564 165.926 90.9609 165.926ZM97.7635 176.176C96.9188 176.176 96.1915 175.985 95.5817 175.602C94.9756 175.216 94.5097 174.684 94.1839 174.006C93.8582 173.328 93.6953 172.551 93.6953 171.676C93.6953 170.79 93.862 170.008 94.1953 169.33C94.5286 168.648 94.9983 168.116 95.6044 167.733C96.2105 167.35 96.9245 167.159 97.7464 167.159C98.4093 167.159 99.0002 167.282 99.5192 167.528C100.038 167.771 100.457 168.112 100.775 168.551C101.097 168.991 101.288 169.504 101.349 170.091H99.6953C99.6044 169.682 99.3961 169.33 99.0703 169.034C98.7483 168.739 98.3165 168.591 97.7749 168.591C97.3014 168.591 96.8866 168.716 96.5305 168.966C96.1783 169.212 95.9036 169.564 95.7067 170.023C95.5097 170.477 95.4112 171.015 95.4112 171.636C95.4112 172.273 95.5078 172.822 95.701 173.284C95.8942 173.746 96.1669 174.104 96.5192 174.358C96.8752 174.612 97.2938 174.739 97.7749 174.739C98.0968 174.739 98.3885 174.68 98.6499 174.562C98.915 174.441 99.1366 174.269 99.3146 174.045C99.4964 173.822 99.6233 173.553 99.6953 173.239H101.349C101.288 173.803 101.104 174.307 100.798 174.75C100.491 175.193 100.08 175.542 99.5646 175.795C99.0533 176.049 98.4529 176.176 97.7635 176.176ZM111.059 179.455C110.366 179.455 109.769 179.364 109.269 179.182C108.773 179 108.368 178.759 108.053 178.46C107.739 178.161 107.504 177.833 107.349 177.477L108.809 176.875C108.911 177.042 109.048 177.218 109.218 177.403C109.392 177.593 109.627 177.754 109.923 177.886C110.222 178.019 110.606 178.085 111.076 178.085C111.72 178.085 112.252 177.928 112.673 177.614C113.093 177.303 113.303 176.807 113.303 176.125V174.409H113.195C113.093 174.595 112.945 174.801 112.752 175.028C112.563 175.256 112.301 175.453 111.968 175.619C111.635 175.786 111.201 175.869 110.667 175.869C109.978 175.869 109.356 175.708 108.803 175.386C108.254 175.061 107.818 174.581 107.496 173.949C107.178 173.312 107.019 172.53 107.019 171.602C107.019 170.674 107.176 169.879 107.491 169.216C107.809 168.553 108.245 168.045 108.798 167.693C109.351 167.337 109.978 167.159 110.678 167.159C111.22 167.159 111.657 167.25 111.991 167.432C112.324 167.61 112.584 167.818 112.769 168.057C112.959 168.295 113.104 168.506 113.207 168.688H113.332V167.273H114.996V176.193C114.996 176.943 114.822 177.559 114.474 178.04C114.125 178.521 113.654 178.877 113.059 179.108C112.468 179.339 111.801 179.455 111.059 179.455ZM111.042 174.46C111.531 174.46 111.943 174.347 112.281 174.119C112.621 173.888 112.879 173.559 113.053 173.131C113.231 172.699 113.32 172.182 113.32 171.58C113.32 170.992 113.233 170.475 113.059 170.028C112.885 169.581 112.629 169.233 112.292 168.983C111.955 168.729 111.538 168.602 111.042 168.602C110.531 168.602 110.104 168.735 109.763 169C109.423 169.261 109.165 169.617 108.991 170.068C108.82 170.519 108.735 171.023 108.735 171.58C108.735 172.152 108.822 172.653 108.996 173.085C109.171 173.517 109.428 173.854 109.769 174.097C110.114 174.339 110.538 174.46 111.042 174.46ZM120.951 176.176C120.133 176.176 119.419 175.989 118.809 175.614C118.199 175.239 117.726 174.714 117.388 174.04C117.051 173.366 116.883 172.578 116.883 171.676C116.883 170.771 117.051 169.979 117.388 169.301C117.726 168.623 118.199 168.097 118.809 167.722C119.419 167.347 120.133 167.159 120.951 167.159C121.769 167.159 122.483 167.347 123.093 167.722C123.703 168.097 124.176 168.623 124.513 169.301C124.851 169.979 125.019 170.771 125.019 171.676C125.019 172.578 124.851 173.366 124.513 174.04C124.176 174.714 123.703 175.239 123.093 175.614C122.483 175.989 121.769 176.176 120.951 176.176ZM120.957 174.75C121.487 174.75 121.926 174.61 122.275 174.33C122.623 174.049 122.881 173.676 123.048 173.21C123.218 172.744 123.303 172.231 123.303 171.67C123.303 171.114 123.218 170.602 123.048 170.136C122.881 169.667 122.623 169.29 122.275 169.006C121.926 168.722 121.487 168.58 120.957 168.58C120.423 168.58 119.979 168.722 119.627 169.006C119.279 169.29 119.019 169.667 118.849 170.136C118.682 170.602 118.599 171.114 118.599 171.67C118.599 172.231 118.682 172.744 118.849 173.21C119.019 173.676 119.279 174.049 119.627 174.33C119.979 174.61 120.423 174.75 120.957 174.75ZM130.592 176.176C129.773 176.176 129.059 175.989 128.45 175.614C127.84 175.239 127.366 174.714 127.029 174.04C126.692 173.366 126.523 172.578 126.523 171.676C126.523 170.771 126.692 169.979 127.029 169.301C127.366 168.623 127.84 168.097 128.45 167.722C129.059 167.347 129.773 167.159 130.592 167.159C131.41 167.159 132.124 167.347 132.734 167.722C133.344 168.097 133.817 168.623 134.154 169.301C134.491 169.979 134.66 170.771 134.66 171.676C134.66 172.578 134.491 173.366 134.154 174.04C133.817 174.714 133.344 175.239 132.734 175.614C132.124 175.989 131.41 176.176 130.592 176.176ZM130.597 174.75C131.128 174.75 131.567 174.61 131.915 174.33C132.264 174.049 132.522 173.676 132.688 173.21C132.859 172.744 132.944 172.231 132.944 171.67C132.944 171.114 132.859 170.602 132.688 170.136C132.522 169.667 132.264 169.29 131.915 169.006C131.567 168.722 131.128 168.58 130.597 168.58C130.063 168.58 129.62 168.722 129.268 169.006C128.919 169.29 128.66 169.667 128.489 170.136C128.323 170.602 128.239 171.114 128.239 171.67C128.239 172.231 128.323 172.744 128.489 173.21C128.66 173.676 128.919 174.049 129.268 174.33C129.62 174.61 130.063 174.75 130.597 174.75ZM139.823 176.17C139.119 176.17 138.49 175.991 137.937 175.631C137.388 175.267 136.956 174.75 136.641 174.08C136.331 173.405 136.175 172.597 136.175 171.653C136.175 170.71 136.333 169.903 136.647 169.233C136.965 168.562 137.401 168.049 137.954 167.693C138.507 167.337 139.134 167.159 139.835 167.159C140.376 167.159 140.812 167.25 141.141 167.432C141.475 167.61 141.732 167.818 141.914 168.057C142.1 168.295 142.244 168.506 142.346 168.688H142.448V164.364H144.147V176H142.488V174.642H142.346C142.244 174.828 142.096 175.04 141.903 175.278C141.713 175.517 141.452 175.725 141.119 175.903C140.785 176.081 140.353 176.17 139.823 176.17ZM140.198 174.722C140.687 174.722 141.1 174.593 141.437 174.335C141.778 174.074 142.035 173.712 142.21 173.25C142.388 172.788 142.477 172.25 142.477 171.636C142.477 171.03 142.389 170.5 142.215 170.045C142.041 169.591 141.785 169.237 141.448 168.983C141.111 168.729 140.694 168.602 140.198 168.602C139.687 168.602 139.261 168.735 138.92 169C138.579 169.265 138.321 169.627 138.147 170.085C137.977 170.544 137.891 171.061 137.891 171.636C137.891 172.22 137.978 172.744 138.153 173.21C138.327 173.676 138.585 174.045 138.925 174.318C139.27 174.587 139.694 174.722 140.198 174.722Z" fill="black"/>
<path d="M70.0057 295.148H68.233C68.1648 294.769 68.0379 294.436 67.8523 294.148C67.6667 293.86 67.4394 293.616 67.1705 293.415C66.9015 293.214 66.6004 293.062 66.267 292.96C65.9375 292.858 65.5871 292.807 65.2159 292.807C64.5455 292.807 63.9451 292.975 63.4148 293.312C62.8883 293.65 62.4716 294.144 62.1648 294.795C61.8617 295.447 61.7102 296.242 61.7102 297.182C61.7102 298.129 61.8617 298.928 62.1648 299.58C62.4716 300.231 62.8902 300.723 63.4205 301.057C63.9508 301.39 64.5473 301.557 65.2102 301.557C65.5777 301.557 65.9261 301.508 66.2557 301.409C66.589 301.307 66.8902 301.157 67.1591 300.96C67.428 300.763 67.6553 300.523 67.8409 300.239C68.0303 299.951 68.161 299.621 68.233 299.25L70.0057 299.256C69.911 299.828 69.7273 300.354 69.4545 300.835C69.1856 301.312 68.839 301.725 68.4148 302.074C67.9943 302.419 67.5133 302.686 66.9716 302.875C66.4299 303.064 65.839 303.159 65.1989 303.159C64.1913 303.159 63.2936 302.92 62.5057 302.443C61.7178 301.962 61.0966 301.275 60.642 300.381C60.1913 299.487 59.9659 298.42 59.9659 297.182C59.9659 295.939 60.1932 294.873 60.6477 293.983C61.1023 293.089 61.7235 292.403 62.5114 291.926C63.2992 291.445 64.1951 291.205 65.1989 291.205C65.8163 291.205 66.392 291.294 66.9261 291.472C67.464 291.646 67.947 291.903 68.375 292.244C68.803 292.581 69.1572 292.994 69.4375 293.483C69.7178 293.968 69.9072 294.523 70.0057 295.148ZM74.5099 303.193C73.9569 303.193 73.4569 303.091 73.0099 302.886C72.563 302.678 72.2088 302.377 71.9474 301.983C71.6899 301.589 71.5611 301.106 71.5611 300.534C71.5611 300.042 71.6558 299.636 71.8452 299.318C72.0346 299 72.2902 298.748 72.6122 298.562C72.9342 298.377 73.294 298.237 73.6918 298.142C74.0895 298.047 74.4948 297.975 74.9077 297.926C75.4304 297.866 75.8546 297.816 76.1804 297.778C76.5062 297.737 76.7429 297.67 76.8906 297.58C77.0384 297.489 77.1122 297.341 77.1122 297.136V297.097C77.1122 296.6 76.9721 296.216 76.6918 295.943C76.4152 295.67 76.0024 295.534 75.4531 295.534C74.8812 295.534 74.4304 295.661 74.1009 295.915C73.7751 296.165 73.5497 296.443 73.4247 296.75L71.8281 296.386C72.0175 295.856 72.294 295.428 72.6577 295.102C73.0251 294.773 73.4474 294.534 73.9247 294.386C74.402 294.235 74.9039 294.159 75.4304 294.159C75.7789 294.159 76.1482 294.201 76.5384 294.284C76.9323 294.364 77.2997 294.511 77.6406 294.727C77.9853 294.943 78.2675 295.252 78.4872 295.653C78.7069 296.051 78.8168 296.568 78.8168 297.205V303H77.1577V301.807H77.0895C76.9796 302.027 76.8149 302.242 76.5952 302.455C76.3755 302.667 76.0933 302.843 75.7486 302.983C75.4039 303.123 74.991 303.193 74.5099 303.193ZM74.8793 301.83C75.349 301.83 75.7505 301.737 76.0838 301.551C76.4209 301.366 76.6766 301.123 76.8509 300.824C77.0289 300.521 77.1179 300.197 77.1179 299.852V298.727C77.0573 298.788 76.9399 298.845 76.7656 298.898C76.5952 298.947 76.4001 298.991 76.1804 299.028C75.9607 299.062 75.7467 299.095 75.5384 299.125C75.33 299.152 75.1558 299.174 75.0156 299.193C74.6861 299.235 74.3849 299.305 74.1122 299.403C73.8433 299.502 73.6274 299.644 73.4645 299.83C73.3054 300.011 73.2259 300.254 73.2259 300.557C73.2259 300.977 73.3812 301.295 73.6918 301.511C74.0024 301.723 74.3982 301.83 74.8793 301.83ZM87.6193 296.403L86.0795 296.676C86.0152 296.479 85.9129 296.292 85.7727 296.114C85.6364 295.936 85.4508 295.79 85.2159 295.676C84.9811 295.562 84.6875 295.506 84.3352 295.506C83.8542 295.506 83.4527 295.614 83.1307 295.83C82.8087 296.042 82.6477 296.316 82.6477 296.653C82.6477 296.945 82.7557 297.18 82.9716 297.358C83.1875 297.536 83.536 297.682 84.017 297.795L85.4034 298.114C86.2064 298.299 86.8049 298.585 87.1989 298.972C87.5928 299.358 87.7898 299.86 87.7898 300.477C87.7898 301 87.6383 301.466 87.3352 301.875C87.036 302.28 86.6174 302.598 86.0795 302.83C85.5455 303.061 84.9261 303.176 84.2216 303.176C83.2443 303.176 82.447 302.968 81.8295 302.551C81.2121 302.131 80.8333 301.534 80.6932 300.761L82.3352 300.511C82.4375 300.939 82.6477 301.263 82.9659 301.483C83.2841 301.699 83.6989 301.807 84.2102 301.807C84.767 301.807 85.2121 301.691 85.5455 301.46C85.8788 301.225 86.0455 300.939 86.0455 300.602C86.0455 300.33 85.9432 300.1 85.7386 299.915C85.5379 299.729 85.2292 299.589 84.8125 299.494L83.3352 299.17C82.5208 298.985 81.9186 298.689 81.5284 298.284C81.142 297.879 80.9489 297.366 80.9489 296.744C80.9489 296.229 81.0928 295.778 81.3807 295.392C81.6686 295.006 82.0663 294.705 82.5739 294.489C83.0814 294.269 83.6629 294.159 84.3182 294.159C85.2614 294.159 86.0038 294.364 86.5455 294.773C87.0871 295.178 87.4451 295.722 87.6193 296.403ZM93.7315 294.273V295.636H88.9645V294.273H93.7315ZM90.2429 292.182H91.9418V300.438C91.9418 300.767 91.991 301.015 92.0895 301.182C92.188 301.345 92.3149 301.456 92.4702 301.517C92.6293 301.574 92.8016 301.602 92.9872 301.602C93.1236 301.602 93.2429 301.593 93.3452 301.574C93.4474 301.555 93.527 301.54 93.5838 301.528L93.8906 302.932C93.7921 302.97 93.652 303.008 93.4702 303.045C93.2884 303.087 93.0611 303.11 92.7884 303.114C92.3414 303.121 91.9247 303.042 91.5384 302.875C91.152 302.708 90.8395 302.451 90.6009 302.102C90.3622 301.754 90.2429 301.316 90.2429 300.79V292.182ZM107.311 294.273L104.146 303H102.328L99.1577 294.273H100.982L103.192 300.989H103.283L105.487 294.273H107.311ZM112.287 303.176C111.469 303.176 110.755 302.989 110.145 302.614C109.535 302.239 109.062 301.714 108.724 301.04C108.387 300.366 108.219 299.578 108.219 298.676C108.219 297.771 108.387 296.979 108.724 296.301C109.062 295.623 109.535 295.097 110.145 294.722C110.755 294.347 111.469 294.159 112.287 294.159C113.105 294.159 113.819 294.347 114.429 294.722C115.039 295.097 115.512 295.623 115.849 296.301C116.187 296.979 116.355 297.771 116.355 298.676C116.355 299.578 116.187 300.366 115.849 301.04C115.512 301.714 115.039 302.239 114.429 302.614C113.819 302.989 113.105 303.176 112.287 303.176ZM112.293 301.75C112.823 301.75 113.262 301.61 113.611 301.33C113.959 301.049 114.217 300.676 114.384 300.21C114.554 299.744 114.639 299.231 114.639 298.67C114.639 298.114 114.554 297.602 114.384 297.136C114.217 296.667 113.959 296.29 113.611 296.006C113.262 295.722 112.823 295.58 112.293 295.58C111.759 295.58 111.315 295.722 110.963 296.006C110.615 296.29 110.355 296.667 110.185 297.136C110.018 297.602 109.935 298.114 109.935 298.67C109.935 299.231 110.018 299.744 110.185 300.21C110.355 300.676 110.615 301.049 110.963 301.33C111.315 301.61 111.759 301.75 112.293 301.75ZM122.325 294.273V295.636H117.558V294.273H122.325ZM118.837 292.182H120.536V300.438C120.536 300.767 120.585 301.015 120.683 301.182C120.782 301.345 120.909 301.456 121.064 301.517C121.223 301.574 121.395 301.602 121.581 301.602C121.717 301.602 121.837 301.593 121.939 301.574C122.041 301.555 122.121 301.54 122.178 301.528L122.484 302.932C122.386 302.97 122.246 303.008 122.064 303.045C121.882 303.087 121.655 303.11 121.382 303.114C120.935 303.121 120.518 303.042 120.132 302.875C119.746 302.708 119.433 302.451 119.195 302.102C118.956 301.754 118.837 301.316 118.837 300.79V292.182ZM127.872 303.176C127.012 303.176 126.272 302.992 125.651 302.625C125.033 302.254 124.556 301.733 124.219 301.062C123.885 300.388 123.719 299.598 123.719 298.693C123.719 297.799 123.885 297.011 124.219 296.33C124.556 295.648 125.026 295.116 125.628 294.733C126.234 294.35 126.942 294.159 127.753 294.159C128.245 294.159 128.723 294.241 129.185 294.403C129.647 294.566 130.062 294.822 130.429 295.17C130.796 295.519 131.086 295.972 131.298 296.528C131.51 297.081 131.616 297.754 131.616 298.545V299.148H124.679V297.875H129.952C129.952 297.428 129.861 297.032 129.679 296.688C129.497 296.339 129.241 296.064 128.912 295.864C128.586 295.663 128.204 295.562 127.764 295.562C127.287 295.562 126.87 295.68 126.514 295.915C126.162 296.146 125.889 296.449 125.696 296.824C125.507 297.195 125.412 297.598 125.412 298.034V299.028C125.412 299.612 125.514 300.108 125.719 300.517C125.927 300.926 126.217 301.239 126.588 301.455C126.959 301.667 127.393 301.773 127.889 301.773C128.211 301.773 128.505 301.727 128.77 301.636C129.035 301.542 129.264 301.402 129.457 301.216C129.651 301.03 129.798 300.801 129.901 300.528L131.509 300.818C131.38 301.292 131.149 301.706 130.815 302.062C130.486 302.415 130.071 302.689 129.571 302.886C129.075 303.08 128.509 303.176 127.872 303.176ZM140.041 296.403L138.501 296.676C138.437 296.479 138.335 296.292 138.195 296.114C138.058 295.936 137.873 295.79 137.638 295.676C137.403 295.562 137.109 295.506 136.757 295.506C136.276 295.506 135.875 295.614 135.553 295.83C135.231 296.042 135.07 296.316 135.07 296.653C135.07 296.945 135.178 297.18 135.393 297.358C135.609 297.536 135.958 297.682 136.439 297.795L137.825 298.114C138.628 298.299 139.227 298.585 139.621 298.972C140.015 299.358 140.212 299.86 140.212 300.477C140.212 301 140.06 301.466 139.757 301.875C139.458 302.28 139.039 302.598 138.501 302.83C137.967 303.061 137.348 303.176 136.643 303.176C135.666 303.176 134.869 302.968 134.251 302.551C133.634 302.131 133.255 301.534 133.115 300.761L134.757 300.511C134.859 300.939 135.07 301.263 135.388 301.483C135.706 301.699 136.121 301.807 136.632 301.807C137.189 301.807 137.634 301.691 137.967 301.46C138.301 301.225 138.467 300.939 138.467 300.602C138.467 300.33 138.365 300.1 138.161 299.915C137.96 299.729 137.651 299.589 137.234 299.494L135.757 299.17C134.943 298.985 134.34 298.689 133.95 298.284C133.564 297.879 133.371 297.366 133.371 296.744C133.371 296.229 133.515 295.778 133.803 295.392C134.09 295.006 134.488 294.705 134.996 294.489C135.503 294.269 136.085 294.159 136.74 294.159C137.683 294.159 138.426 294.364 138.967 294.773C139.509 295.178 139.867 295.722 140.041 296.403ZM76.0682 322.176C75.25 322.176 74.536 321.989 73.9261 321.614C73.3163 321.239 72.8428 320.714 72.5057 320.04C72.1686 319.366 72 318.578 72 317.676C72 316.771 72.1686 315.979 72.5057 315.301C72.8428 314.623 73.3163 314.097 73.9261 313.722C74.536 313.347 75.25 313.159 76.0682 313.159C76.8864 313.159 77.6004 313.347 78.2102 313.722C78.8201 314.097 79.2936 314.623 79.6307 315.301C79.9678 315.979 80.1364 316.771 80.1364 317.676C80.1364 318.578 79.9678 319.366 79.6307 320.04C79.2936 320.714 78.8201 321.239 78.2102 321.614C77.6004 321.989 76.8864 322.176 76.0682 322.176ZM76.0739 320.75C76.6042 320.75 77.0436 320.61 77.392 320.33C77.7405 320.049 77.9981 319.676 78.1648 319.21C78.3352 318.744 78.4205 318.231 78.4205 317.67C78.4205 317.114 78.3352 316.602 78.1648 316.136C77.9981 315.667 77.7405 315.29 77.392 315.006C77.0436 314.722 76.6042 314.58 76.0739 314.58C75.5398 314.58 75.0966 314.722 74.7443 315.006C74.3958 315.29 74.1364 315.667 73.9659 316.136C73.7992 316.602 73.7159 317.114 73.7159 317.67C73.7159 318.231 73.7992 318.744 73.9659 319.21C74.1364 319.676 74.3958 320.049 74.7443 320.33C75.0966 320.61 75.5398 320.75 76.0739 320.75ZM83.7315 316.818V322H82.0327V313.273H83.6634V314.693H83.7713C83.9721 314.231 84.2865 313.86 84.7145 313.58C85.1463 313.299 85.6899 313.159 86.3452 313.159C86.9399 313.159 87.4607 313.284 87.9077 313.534C88.3546 313.78 88.7012 314.148 88.9474 314.636C89.1937 315.125 89.3168 315.729 89.3168 316.449V322H87.6179V316.653C87.6179 316.021 87.4531 315.527 87.1236 315.17C86.794 314.811 86.3414 314.631 85.7656 314.631C85.3717 314.631 85.0213 314.716 84.7145 314.886C84.4115 315.057 84.1709 315.307 83.9929 315.636C83.8187 315.962 83.7315 316.356 83.7315 316.818ZM96.9034 325.273C96.6496 325.273 96.4186 325.252 96.2102 325.21C96.0019 325.172 95.8466 325.131 95.7443 325.085L96.1534 323.693C96.464 323.777 96.7405 323.813 96.983 323.801C97.2254 323.79 97.4394 323.699 97.625 323.528C97.8144 323.358 97.9811 323.08 98.125 322.693L98.3352 322.114L95.142 313.273H96.9602L99.1705 320.045H99.2614L101.472 313.273H103.295L99.6989 323.165C99.5322 323.619 99.3201 324.004 99.0625 324.318C98.8049 324.636 98.4981 324.875 98.142 325.034C97.786 325.193 97.3731 325.273 96.9034 325.273ZM108.271 322.176C107.453 322.176 106.739 321.989 106.129 321.614C105.519 321.239 105.046 320.714 104.709 320.04C104.372 319.366 104.203 318.578 104.203 317.676C104.203 316.771 104.372 315.979 104.709 315.301C105.046 314.623 105.519 314.097 106.129 313.722C106.739 313.347 107.453 313.159 108.271 313.159C109.089 313.159 109.804 313.347 110.413 313.722C111.023 314.097 111.497 314.623 111.834 315.301C112.171 315.979 112.339 316.771 112.339 317.676C112.339 318.578 112.171 319.366 111.834 320.04C111.497 320.714 111.023 321.239 110.413 321.614C109.804 321.989 109.089 322.176 108.271 322.176ZM108.277 320.75C108.807 320.75 109.247 320.61 109.595 320.33C109.944 320.049 110.201 319.676 110.368 319.21C110.538 318.744 110.624 318.231 110.624 317.67C110.624 317.114 110.538 316.602 110.368 316.136C110.201 315.667 109.944 315.29 109.595 315.006C109.247 314.722 108.807 314.58 108.277 314.58C107.743 314.58 107.3 314.722 106.947 315.006C106.599 315.29 106.339 315.667 106.169 316.136C106.002 316.602 105.919 317.114 105.919 317.67C105.919 318.231 106.002 318.744 106.169 319.21C106.339 319.676 106.599 320.049 106.947 320.33C107.3 320.61 107.743 320.75 108.277 320.75ZM119.764 318.381V313.273H121.469V322H119.798V320.489H119.707C119.507 320.955 119.185 321.343 118.741 321.653C118.302 321.96 117.755 322.114 117.099 322.114C116.539 322.114 116.043 321.991 115.611 321.744C115.183 321.494 114.846 321.125 114.599 320.636C114.357 320.148 114.236 319.544 114.236 318.824V313.273H115.935V318.619C115.935 319.214 116.099 319.687 116.429 320.04C116.759 320.392 117.187 320.568 117.713 320.568C118.031 320.568 118.348 320.489 118.662 320.33C118.98 320.17 119.243 319.93 119.452 319.608C119.664 319.286 119.768 318.877 119.764 318.381ZM123.751 322V313.273H125.393V314.659H125.484C125.643 314.189 125.924 313.82 126.325 313.551C126.731 313.278 127.189 313.142 127.7 313.142C127.806 313.142 127.931 313.146 128.075 313.153C128.223 313.161 128.339 313.17 128.422 313.182V314.807C128.354 314.788 128.232 314.767 128.058 314.744C127.884 314.718 127.71 314.705 127.536 314.705C127.134 314.705 126.776 314.79 126.462 314.96C126.151 315.127 125.905 315.36 125.723 315.659C125.541 315.955 125.45 316.292 125.45 316.67V322H123.751ZM56.7166 341.176C55.8719 341.176 55.1446 340.985 54.5348 340.602C53.9287 340.216 53.4628 339.684 53.1371 339.006C52.8113 338.328 52.6484 337.551 52.6484 336.676C52.6484 335.79 52.8151 335.008 53.1484 334.33C53.4818 333.648 53.9515 333.116 54.5575 332.733C55.1636 332.35 55.8776 332.159 56.6996 332.159C57.3625 332.159 57.9534 332.282 58.4723 332.528C58.9912 332.771 59.4098 333.112 59.728 333.551C60.05 333.991 60.2412 334.504 60.3018 335.091H58.6484C58.5575 334.682 58.3492 334.33 58.0234 334.034C57.7015 333.739 57.2696 333.591 56.728 333.591C56.2545 333.591 55.8397 333.716 55.4837 333.966C55.1314 334.212 54.8568 334.564 54.6598 335.023C54.4628 335.477 54.3643 336.015 54.3643 336.636C54.3643 337.273 54.4609 337.822 54.6541 338.284C54.8473 338.746 55.12 339.104 55.4723 339.358C55.8284 339.612 56.2469 339.739 56.728 339.739C57.05 339.739 57.3416 339.68 57.603 339.562C57.8681 339.441 58.0897 339.269 58.2678 339.045C58.4496 338.822 58.5765 338.553 58.6484 338.239H60.3018C60.2412 338.803 60.0575 339.307 59.7507 339.75C59.4439 340.193 59.0329 340.542 58.5178 340.795C58.0064 341.049 57.406 341.176 56.7166 341.176ZM65.7947 341.176C64.9766 341.176 64.2625 340.989 63.6527 340.614C63.0429 340.239 62.5694 339.714 62.2322 339.04C61.8951 338.366 61.7266 337.578 61.7266 336.676C61.7266 335.771 61.8951 334.979 62.2322 334.301C62.5694 333.623 63.0429 333.097 63.6527 332.722C64.2625 332.347 64.9766 332.159 65.7947 332.159C66.6129 332.159 67.3269 332.347 67.9368 332.722C68.5466 333.097 69.0201 333.623 69.3572 334.301C69.6944 334.979 69.8629 335.771 69.8629 336.676C69.8629 337.578 69.6944 338.366 69.3572 339.04C69.0201 339.714 68.5466 340.239 67.9368 340.614C67.3269 340.989 66.6129 341.176 65.7947 341.176ZM65.8004 339.75C66.3307 339.75 66.7701 339.61 67.1186 339.33C67.4671 339.049 67.7247 338.676 67.8913 338.21C68.0618 337.744 68.147 337.231 68.147 336.67C68.147 336.114 68.0618 335.602 67.8913 335.136C67.7247 334.667 67.4671 334.29 67.1186 334.006C66.7701 333.722 66.3307 333.58 65.8004 333.58C65.2663 333.58 64.8232 333.722 64.4709 334.006C64.1224 334.29 63.8629 334.667 63.6925 335.136C63.5258 335.602 63.4425 336.114 63.4425 336.67C63.4425 337.231 63.5258 337.744 63.6925 338.21C63.8629 338.676 64.1224 339.049 64.4709 339.33C64.8232 339.61 65.2663 339.75 65.8004 339.75ZM71.7592 341V332.273H73.3899V333.693H73.4979C73.6797 333.212 73.977 332.837 74.3899 332.568C74.8028 332.295 75.2971 332.159 75.8729 332.159C76.4562 332.159 76.9448 332.295 77.3388 332.568C77.7365 332.841 78.0301 333.216 78.2195 333.693H78.3104C78.5187 333.227 78.8501 332.856 79.3047 332.58C79.7592 332.299 80.3009 332.159 80.9297 332.159C81.7214 332.159 82.3672 332.407 82.8672 332.903C83.371 333.4 83.6229 334.148 83.6229 335.148V341H81.924V335.307C81.924 334.716 81.763 334.288 81.4411 334.023C81.1191 333.758 80.7346 333.625 80.2876 333.625C79.7346 333.625 79.3047 333.795 78.9979 334.136C78.6911 334.473 78.5376 334.907 78.5376 335.438V341H76.8445V335.199C76.8445 334.725 76.6967 334.345 76.4013 334.057C76.1058 333.769 75.7214 333.625 75.2479 333.625C74.9259 333.625 74.6286 333.71 74.3558 333.881C74.0869 334.047 73.8691 334.28 73.7024 334.58C73.5395 334.879 73.4581 335.225 73.4581 335.619V341H71.7592ZM85.8999 341V332.273H87.5305V333.693H87.6385C87.8203 333.212 88.1177 332.837 88.5305 332.568C88.9434 332.295 89.4377 332.159 90.0135 332.159C90.5968 332.159 91.0855 332.295 91.4794 332.568C91.8771 332.841 92.1707 333.216 92.3601 333.693H92.451C92.6593 333.227 92.9908 332.856 93.4453 332.58C93.8999 332.299 94.4415 332.159 95.0703 332.159C95.862 332.159 96.5078 332.407 97.0078 332.903C97.5116 333.4 97.7635 334.148 97.7635 335.148V341H96.0646V335.307C96.0646 334.716 95.9036 334.288 95.5817 334.023C95.2597 333.758 94.8752 333.625 94.4283 333.625C93.8752 333.625 93.4453 333.795 93.1385 334.136C92.8317 334.473 92.6783 334.907 92.6783 335.438V341H90.9851V335.199C90.9851 334.725 90.8374 334.345 90.5419 334.057C90.2464 333.769 89.862 333.625 89.3885 333.625C89.0665 333.625 88.7692 333.71 88.4964 333.881C88.2275 334.047 88.0097 334.28 87.843 334.58C87.6802 334.879 87.5987 335.225 87.5987 335.619V341H85.8999ZM105.569 337.381V332.273H107.273V341H105.603V339.489H105.512C105.311 339.955 104.989 340.343 104.546 340.653C104.107 340.96 103.559 341.114 102.904 341.114C102.344 341.114 101.847 340.991 101.415 340.744C100.987 340.494 100.65 340.125 100.404 339.636C100.162 339.148 100.04 338.544 100.04 337.824V332.273H101.739V337.619C101.739 338.214 101.904 338.687 102.234 339.04C102.563 339.392 102.991 339.568 103.518 339.568C103.836 339.568 104.152 339.489 104.467 339.33C104.785 339.17 105.048 338.93 105.256 338.608C105.469 338.286 105.573 337.877 105.569 337.381ZM111.255 335.818V341H109.556V332.273H111.187V333.693H111.295C111.496 333.231 111.81 332.86 112.238 332.58C112.67 332.299 113.213 332.159 113.869 332.159C114.463 332.159 114.984 332.284 115.431 332.534C115.878 332.78 116.225 333.148 116.471 333.636C116.717 334.125 116.84 334.729 116.84 335.449V341H115.141V335.653C115.141 335.021 114.977 334.527 114.647 334.17C114.317 333.811 113.865 333.631 113.289 333.631C112.895 333.631 112.545 333.716 112.238 333.886C111.935 334.057 111.694 334.307 111.516 334.636C111.342 334.962 111.255 335.356 111.255 335.818ZM119.119 341V332.273H120.817V341H119.119ZM119.977 330.926C119.681 330.926 119.427 330.828 119.215 330.631C119.007 330.43 118.903 330.191 118.903 329.915C118.903 329.634 119.007 329.396 119.215 329.199C119.427 328.998 119.681 328.898 119.977 328.898C120.272 328.898 120.524 328.998 120.732 329.199C120.944 329.396 121.05 329.634 121.05 329.915C121.05 330.191 120.944 330.43 120.732 330.631C120.524 330.828 120.272 330.926 119.977 330.926ZM127.177 332.273V333.636H122.41V332.273H127.177ZM123.688 330.182H125.387V338.438C125.387 338.767 125.436 339.015 125.535 339.182C125.633 339.345 125.76 339.456 125.915 339.517C126.075 339.574 126.247 339.602 126.433 339.602C126.569 339.602 126.688 339.593 126.79 339.574C126.893 339.555 126.972 339.54 127.029 339.528L127.336 340.932C127.237 340.97 127.097 341.008 126.915 341.045C126.734 341.087 126.506 341.11 126.234 341.114C125.787 341.121 125.37 341.042 124.984 340.875C124.597 340.708 124.285 340.451 124.046 340.102C123.808 339.754 123.688 339.316 123.688 338.79V330.182ZM130.13 344.273C129.876 344.273 129.645 344.252 129.437 344.21C129.228 344.172 129.073 344.131 128.971 344.085L129.38 342.693C129.691 342.777 129.967 342.813 130.21 342.801C130.452 342.79 130.666 342.699 130.852 342.528C131.041 342.358 131.208 342.08 131.352 341.693L131.562 341.114L128.369 332.273H130.187L132.397 339.045H132.488L134.698 332.273H136.522L132.925 342.165C132.759 342.619 132.547 343.004 132.289 343.318C132.031 343.636 131.725 343.875 131.369 344.034C131.013 344.193 130.6 344.273 130.13 344.273ZM140.126 329.364V330.455C140.126 330.777 140.065 331.116 139.944 331.472C139.826 331.824 139.66 332.163 139.444 332.489C139.228 332.814 138.974 333.095 138.683 333.33L137.842 332.727C138.065 332.402 138.258 332.055 138.421 331.688C138.588 331.32 138.671 330.915 138.671 330.472V329.364H140.126ZM147.205 334.403L145.665 334.676C145.601 334.479 145.499 334.292 145.359 334.114C145.222 333.936 145.037 333.79 144.802 333.676C144.567 333.562 144.273 333.506 143.921 333.506C143.44 333.506 143.039 333.614 142.717 333.83C142.395 334.042 142.234 334.316 142.234 334.653C142.234 334.945 142.342 335.18 142.558 335.358C142.773 335.536 143.122 335.682 143.603 335.795L144.989 336.114C145.792 336.299 146.391 336.585 146.785 336.972C147.179 337.358 147.376 337.86 147.376 338.477C147.376 339 147.224 339.466 146.921 339.875C146.622 340.28 146.203 340.598 145.665 340.83C145.131 341.061 144.512 341.176 143.808 341.176C142.83 341.176 142.033 340.968 141.415 340.551C140.798 340.131 140.419 339.534 140.279 338.761L141.921 338.511C142.023 338.939 142.234 339.263 142.552 339.483C142.87 339.699 143.285 339.807 143.796 339.807C144.353 339.807 144.798 339.691 145.131 339.46C145.465 339.225 145.631 338.939 145.631 338.602C145.631 338.33 145.529 338.1 145.325 337.915C145.124 337.729 144.815 337.589 144.398 337.494L142.921 337.17C142.107 336.985 141.504 336.689 141.114 336.284C140.728 335.879 140.535 335.366 140.535 334.744C140.535 334.229 140.679 333.778 140.967 333.392C141.254 333.006 141.652 332.705 142.16 332.489C142.667 332.269 143.249 332.159 143.904 332.159C144.847 332.159 145.59 332.364 146.131 332.773C146.673 333.178 147.031 333.722 147.205 334.403ZM63.5874 363.273V351.273H65.2464V352.688H65.3885C65.487 352.506 65.629 352.295 65.8146 352.057C66.0002 351.818 66.2578 351.61 66.5874 351.432C66.9169 351.25 67.3525 351.159 67.8942 351.159C68.5987 351.159 69.2275 351.337 69.7805 351.693C70.3336 352.049 70.7673 352.562 71.0817 353.233C71.3999 353.903 71.5589 354.71 71.5589 355.653C71.5589 356.597 71.4018 357.405 71.0874 358.08C70.773 358.75 70.3411 359.267 69.7919 359.631C69.2427 359.991 68.6158 360.17 67.9112 360.17C67.3809 360.17 66.9472 360.081 66.6101 359.903C66.2768 359.725 66.0154 359.517 65.826 359.278C65.6366 359.04 65.4908 358.828 65.3885 358.642H65.2862V363.273H63.5874ZM65.2521 355.636C65.2521 356.25 65.3411 356.788 65.5192 357.25C65.6972 357.712 65.9548 358.074 66.2919 358.335C66.629 358.593 67.0419 358.722 67.5305 358.722C68.0381 358.722 68.4624 358.587 68.8033 358.318C69.1442 358.045 69.4018 357.676 69.576 357.21C69.754 356.744 69.843 356.22 69.843 355.636C69.843 355.061 69.7559 354.544 69.5817 354.085C69.4112 353.627 69.1536 353.265 68.8089 353C68.468 352.735 68.0419 352.602 67.5305 352.602C67.0381 352.602 66.6214 352.729 66.2805 352.983C65.9434 353.237 65.6877 353.591 65.5135 354.045C65.3393 354.5 65.2521 355.03 65.2521 355.636ZM73.4624 360V351.273H75.1044V352.659H75.1953C75.3544 352.189 75.6347 351.82 76.0362 351.551C76.4415 351.278 76.8999 351.142 77.4112 351.142C77.5173 351.142 77.6423 351.146 77.7862 351.153C77.9339 351.161 78.0495 351.17 78.1328 351.182V352.807C78.0646 352.788 77.9434 352.767 77.7692 352.744C77.5949 352.718 77.4207 352.705 77.2464 352.705C76.8449 352.705 76.487 352.79 76.1726 352.96C75.862 353.127 75.6158 353.36 75.4339 353.659C75.2521 353.955 75.1612 354.292 75.1612 354.67V360H73.4624ZM82.9666 360.176C82.1484 360.176 81.4344 359.989 80.8246 359.614C80.2147 359.239 79.7412 358.714 79.4041 358.04C79.067 357.366 78.8984 356.578 78.8984 355.676C78.8984 354.771 79.067 353.979 79.4041 353.301C79.7412 352.623 80.2147 352.097 80.8246 351.722C81.4344 351.347 82.1484 351.159 82.9666 351.159C83.7848 351.159 84.4988 351.347 85.1087 351.722C85.7185 352.097 86.192 352.623 86.5291 353.301C86.8662 353.979 87.0348 354.771 87.0348 355.676C87.0348 356.578 86.8662 357.366 86.5291 358.04C86.192 358.714 85.7185 359.239 85.1087 359.614C84.4988 359.989 83.7848 360.176 82.9666 360.176ZM82.9723 358.75C83.5026 358.75 83.942 358.61 84.2905 358.33C84.639 358.049 84.8965 357.676 85.0632 357.21C85.2337 356.744 85.3189 356.231 85.3189 355.67C85.3189 355.114 85.2337 354.602 85.0632 354.136C84.8965 353.667 84.639 353.29 84.2905 353.006C83.942 352.722 83.5026 352.58 82.9723 352.58C82.4382 352.58 81.995 352.722 81.6428 353.006C81.2943 353.29 81.0348 353.667 80.8643 354.136C80.6977 354.602 80.6143 355.114 80.6143 355.67C80.6143 356.231 80.6977 356.744 80.8643 357.21C81.0348 357.676 81.2943 358.049 81.6428 358.33C81.995 358.61 82.4382 358.75 82.9723 358.75ZM88.9311 363.273V351.273H90.5902V352.688H90.7322C90.8307 352.506 90.9728 352.295 91.1584 352.057C91.344 351.818 91.6016 351.61 91.9311 351.432C92.2607 351.25 92.6963 351.159 93.2379 351.159C93.9425 351.159 94.5713 351.337 95.1243 351.693C95.6773 352.049 96.111 352.562 96.4254 353.233C96.7436 353.903 96.9027 354.71 96.9027 355.653C96.9027 356.597 96.7455 357.405 96.4311 358.08C96.1167 358.75 95.6849 359.267 95.1357 359.631C94.5864 359.991 93.9595 360.17 93.255 360.17C92.7247 360.17 92.291 360.081 91.9538 359.903C91.6205 359.725 91.3591 359.517 91.1697 359.278C90.9804 359.04 90.8345 358.828 90.7322 358.642H90.63V363.273H88.9311ZM90.5959 355.636C90.5959 356.25 90.6849 356.788 90.8629 357.25C91.041 357.712 91.2985 358.074 91.6357 358.335C91.9728 358.593 92.3857 358.722 92.8743 358.722C93.3819 358.722 93.8061 358.587 94.147 358.318C94.4879 358.045 94.7455 357.676 94.9197 357.21C95.0978 356.744 95.1868 356.22 95.1868 355.636C95.1868 355.061 95.0997 354.544 94.9254 354.085C94.755 353.627 94.4974 353.265 94.1527 353C93.8118 352.735 93.3857 352.602 92.8743 352.602C92.3819 352.602 91.9652 352.729 91.6243 352.983C91.2872 353.237 91.0315 353.591 90.8572 354.045C90.683 354.5 90.5959 355.03 90.5959 355.636ZM102.482 360.176C101.664 360.176 100.95 359.989 100.34 359.614C99.7304 359.239 99.2569 358.714 98.9197 358.04C98.5826 357.366 98.4141 356.578 98.4141 355.676C98.4141 354.771 98.5826 353.979 98.9197 353.301C99.2569 352.623 99.7304 352.097 100.34 351.722C100.95 351.347 101.664 351.159 102.482 351.159C103.3 351.159 104.014 351.347 104.624 351.722C105.234 352.097 105.708 352.623 106.045 353.301C106.382 353.979 106.55 354.771 106.55 355.676C106.55 356.578 106.382 357.366 106.045 358.04C105.708 358.714 105.234 359.239 104.624 359.614C104.014 359.989 103.3 360.176 102.482 360.176ZM102.488 358.75C103.018 358.75 103.458 358.61 103.806 358.33C104.155 358.049 104.412 357.676 104.579 357.21C104.749 356.744 104.835 356.231 104.835 355.67C104.835 355.114 104.749 354.602 104.579 354.136C104.412 353.667 104.155 353.29 103.806 353.006C103.458 352.722 103.018 352.58 102.488 352.58C101.954 352.58 101.511 352.722 101.158 353.006C100.81 353.29 100.55 353.667 100.38 354.136C100.213 354.602 100.13 355.114 100.13 355.67C100.13 356.231 100.213 356.744 100.38 357.21C100.55 357.676 100.81 358.049 101.158 358.33C101.511 358.61 101.954 358.75 102.488 358.75ZM114.987 353.403L113.447 353.676C113.382 353.479 113.28 353.292 113.14 353.114C113.004 352.936 112.818 352.79 112.583 352.676C112.348 352.562 112.055 352.506 111.702 352.506C111.221 352.506 110.82 352.614 110.498 352.83C110.176 353.042 110.015 353.316 110.015 353.653C110.015 353.945 110.123 354.18 110.339 354.358C110.555 354.536 110.903 354.682 111.384 354.795L112.771 355.114C113.574 355.299 114.172 355.585 114.566 355.972C114.96 356.358 115.157 356.86 115.157 357.477C115.157 358 115.005 358.466 114.702 358.875C114.403 359.28 113.985 359.598 113.447 359.83C112.913 360.061 112.293 360.176 111.589 360.176C110.612 360.176 109.814 359.968 109.197 359.551C108.579 359.131 108.201 358.534 108.06 357.761L109.702 357.511C109.805 357.939 110.015 358.263 110.333 358.483C110.651 358.699 111.066 358.807 111.577 358.807C112.134 358.807 112.579 358.691 112.913 358.46C113.246 358.225 113.413 357.939 113.413 357.602C113.413 357.33 113.31 357.1 113.106 356.915C112.905 356.729 112.596 356.589 112.18 356.494L110.702 356.17C109.888 355.985 109.286 355.689 108.896 355.284C108.509 354.879 108.316 354.366 108.316 353.744C108.316 353.229 108.46 352.778 108.748 352.392C109.036 352.006 109.433 351.705 109.941 351.489C110.449 351.269 111.03 351.159 111.685 351.159C112.629 351.159 113.371 351.364 113.913 351.773C114.454 352.178 114.812 352.722 114.987 353.403ZM119.565 360.193C119.012 360.193 118.512 360.091 118.065 359.886C117.618 359.678 117.263 359.377 117.002 358.983C116.745 358.589 116.616 358.106 116.616 357.534C116.616 357.042 116.71 356.636 116.9 356.318C117.089 356 117.345 355.748 117.667 355.562C117.989 355.377 118.349 355.237 118.746 355.142C119.144 355.047 119.549 354.975 119.962 354.926C120.485 354.866 120.909 354.816 121.235 354.778C121.561 354.737 121.798 354.67 121.945 354.58C122.093 354.489 122.167 354.341 122.167 354.136V354.097C122.167 353.6 122.027 353.216 121.746 352.943C121.47 352.67 121.057 352.534 120.508 352.534C119.936 352.534 119.485 352.661 119.156 352.915C118.83 353.165 118.604 353.443 118.479 353.75L116.883 353.386C117.072 352.856 117.349 352.428 117.712 352.102C118.08 351.773 118.502 351.534 118.979 351.386C119.457 351.235 119.959 351.159 120.485 351.159C120.834 351.159 121.203 351.201 121.593 351.284C121.987 351.364 122.354 351.511 122.695 351.727C123.04 351.943 123.322 352.252 123.542 352.653C123.762 353.051 123.871 353.568 123.871 354.205V360H122.212V358.807H122.144C122.034 359.027 121.87 359.242 121.65 359.455C121.43 359.667 121.148 359.843 120.803 359.983C120.459 360.123 120.046 360.193 119.565 360.193ZM119.934 358.83C120.404 358.83 120.805 358.737 121.138 358.551C121.476 358.366 121.731 358.123 121.906 357.824C122.084 357.521 122.173 357.197 122.173 356.852V355.727C122.112 355.788 121.995 355.845 121.82 355.898C121.65 355.947 121.455 355.991 121.235 356.028C121.015 356.062 120.801 356.095 120.593 356.125C120.385 356.152 120.21 356.174 120.07 356.193C119.741 356.235 119.44 356.305 119.167 356.403C118.898 356.502 118.682 356.644 118.519 356.83C118.36 357.011 118.281 357.254 118.281 357.557C118.281 357.977 118.436 358.295 118.746 358.511C119.057 358.723 119.453 358.83 119.934 358.83ZM127.833 348.364V360H126.134V348.364H127.833ZM136.658 353.403L135.119 353.676C135.054 353.479 134.952 353.292 134.812 353.114C134.675 352.936 134.49 352.79 134.255 352.676C134.02 352.562 133.727 352.506 133.374 352.506C132.893 352.506 132.492 352.614 132.17 352.83C131.848 353.042 131.687 353.316 131.687 353.653C131.687 353.945 131.795 354.18 132.011 354.358C132.227 354.536 132.575 354.682 133.056 354.795L134.442 355.114C135.246 355.299 135.844 355.585 136.238 355.972C136.632 356.358 136.829 356.86 136.829 357.477C136.829 358 136.677 358.466 136.374 358.875C136.075 359.28 135.656 359.598 135.119 359.83C134.585 360.061 133.965 360.176 133.261 360.176C132.283 360.176 131.486 359.968 130.869 359.551C130.251 359.131 129.872 358.534 129.732 357.761L131.374 357.511C131.477 357.939 131.687 358.263 132.005 358.483C132.323 358.699 132.738 358.807 133.249 358.807C133.806 358.807 134.251 358.691 134.585 358.46C134.918 358.225 135.085 357.939 135.085 357.602C135.085 357.33 134.982 357.1 134.778 356.915C134.577 356.729 134.268 356.589 133.852 356.494L132.374 356.17C131.56 355.985 130.958 355.689 130.567 355.284C130.181 354.879 129.988 354.366 129.988 353.744C129.988 353.229 130.132 352.778 130.42 352.392C130.708 352.006 131.105 351.705 131.613 351.489C132.121 351.269 132.702 351.159 133.357 351.159C134.3 351.159 135.043 351.364 135.585 351.773C136.126 352.178 136.484 352.722 136.658 353.403Z" fill="black"/>
<rect x="100.648" y="43" width="49" height="49" transform="rotate(45 100.648 43)" fill="#88F68C" stroke="#3E5F72" stroke-width="4" stroke-linejoin="round"/>
<path d="M102.063 63.5858C101.282 62.8047 100.015 62.8047 99.2342 63.5858L86.5063 76.3137C85.7253 77.0948 85.7253 78.3611 86.5063 79.1421C87.2874 79.9232 88.5537 79.9232 89.3347 79.1421L100.648 67.8284L111.962 79.1421C112.743 79.9232 114.01 79.9232 114.791 79.1421C115.572 78.3611 115.572 77.0948 114.791 76.3137L102.063 63.5858ZM98.6484 110C98.6484 111.105 99.5439 112 100.648 112C101.753 112 102.648 111.105 102.648 110L98.6484 110ZM98.6484 65L98.6484 110L102.648 110L102.648 65L98.6484 65Z" fill="#3E5F72"/>
<rect x="100.648" y="209" width="49" height="49" transform="rotate(45 100.648 209)" fill="#88F68C" stroke="#3E5F72" stroke-width="4" stroke-linejoin="round"/>
<path d="M88.5 245L98.5 255L114.5 239" stroke="#3E5F72" stroke-width="4" stroke-linecap="round" stroke-linejoin="round"/>
</svg>
