<svg width="275" height="72" viewBox="0 0 463 72" fill="none" xmlns="http://www.w3.org/2000/svg">
<path d="M76.5547 48.1484V36.7227H70.8516V48.1484H76.5547ZM53.7031 71V31H88V36.7227H93.7031V48.1484H88V53.8711H70.8516V71H53.7031Z" stroke="#000"/>
<path d="M122.258 48.1484V36.7227H116.555V48.1484H122.258ZM99.4062 71V31H133.703V36.7227H139.406V48.1484H133.703V53.8711H139.406V71H122.258V53.8711H116.555V71H99.4062Z" stroke="#000"/>
<path d="M156.535 71V31H173.684V71H156.535Z" stroke="#000"/>
<path d="M190.812 71V31H202.238V36.7227H207.961V42.4453H213.664V36.7227H219.387V31H230.812V71H213.664V53.8711H207.961V71H190.812Z" stroke="#000"/>
<path d="M259.367 65.2969V36.7227H253.664V65.2969H259.367ZM242.238 71V65.2969H236.516V36.7227H242.238V31H270.812V36.7227H276.516V65.2969H270.812V71H242.238Z" stroke="#000"/>
<path d="M305.07 48.1484V36.7227H299.367V48.1484H305.07ZM282.219 71V31H316.516V36.7227H322.219V48.1484H316.516V53.8711H322.219V71H305.07V53.8711H299.367V71H282.219Z" stroke="#000"/>
<path d="M350.773 65.2969V36.7227H345.07V65.2969H350.773ZM327.922 71V31H362.219V36.7227H367.922V65.2969H362.219V71H327.922Z" stroke="#000"/>
<path d="M385.051 71V31H402.199V71H385.051Z" stroke="#000"/>
<path d="M442.18 48.1484V36.7227H436.477V48.1484H442.18ZM419.328 71V36.7227H425.051V31H453.625V36.7227H459.328V71H442.18V53.8711H436.477V71H419.328Z" stroke="#000"/>
<path d="M74.1544 49.0049V39.0073H68.3757V49.0049H74.1544ZM51 69V34H85.7514V39.0073H91.53V49.0049H85.7514V54.0122H68.3757V69H51Z" stroke="#000"/>
<path d="M120.463 49.0049V39.0073H114.684V49.0049H120.463ZM97.3087 69V34H132.06V39.0073H137.839V49.0049H132.06V54.0122H137.839V69H120.463V54.0122H114.684V69H97.3087Z" stroke="#000"/>
<path d="M155.195 69V34H172.57V69H155.195Z" stroke="#000"/>
<path d="M189.926 69V34H201.503V39.0073H207.302V44.0146H213.081V39.0073H218.879V34H230.456V69H213.081V54.0122H207.302V69H189.926Z" stroke="#000"/>
<path d="M259.389 64.0098V39.0073H253.611V64.0098H259.389ZM242.033 69V64.0098H236.235V39.0073H242.033V34H270.986V39.0073H276.765V64.0098H270.986V69H242.033Z" stroke="#000"/>
<path d="M305.698 49.0049V39.0073H299.919V49.0049H305.698ZM282.544 69V34H317.295V39.0073H323.074V49.0049H317.295V54.0122H323.074V69H305.698V54.0122H299.919V69H282.544Z" stroke="#000"/>
<path d="M352.007 64.0098V39.0073H346.228V64.0098H352.007ZM328.852 69V34H363.604V39.0073H369.383V64.0098H363.604V69H328.852Z" stroke="#000"/>
<path d="M386.738 69V34H404.114V69H386.738Z" stroke="#000"/>
<path d="M444.624 49.0049V39.0073H438.846V49.0049H444.624ZM421.47 69V39.0073H427.268V34H456.221V39.0073H462V69H444.624V54.0122H438.846V69H421.47Z" stroke="#000"/>
<rect x="16.0957" y="21" width="0.435407" height="14.3684" fill="#000"/>
<rect x="15.6603" y="21.4354" width="0.435407" height="13.4976" fill="#000"/>
<rect x="15.2249" y="21.8708" width="0.435407" height="12.6268" fill="#000"/>
<rect x="14.7895" y="22.7416" width="0.435407" height="10.8852" fill="#000"/>
<rect x="17.4019" y="22.7416" width="0.435407" height="10.8852" fill="#000"/>
<rect x="16.9665" y="21.8708" width="0.435407" height="12.6268" fill="#000"/>
<rect x="16.5311" y="21.4354" width="0.435407" height="13.4976" fill="#000"/>
<rect x="22.1914" y="27.5311" width="0.435407" height="11.756" transform="rotate(90 22.1914 27.5311)" fill="#000"/>
<rect x="21.3206" y="27.0957" width="0.435407" height="10.0144" transform="rotate(90 21.3206 27.0957)" fill="#000"/>
<rect x="21.3206" y="28.8373" width="0.435407" height="10.0144" transform="rotate(90 21.3206 28.8373)" fill="#000"/>
<rect x="20.4498" y="29.2727" width="0.435407" height="8.27273" transform="rotate(90 20.4498 29.2727)" fill="#000"/>
<rect x="20.4498" y="26.6603" width="0.435407" height="8.27273" transform="rotate(90 20.4498 26.6603)" fill="#000"/>
<rect x="22.1914" y="28.4019" width="0.435407" height="11.756" transform="rotate(90 22.1914 28.4019)" fill="#000"/>
<rect x="22.6268" y="27.9665" width="0.435407" height="12.6268" transform="rotate(90 22.6268 27.9665)" fill="#000"/>
<rect x="19.8966" y="44" width="0.206897" height="6.82759" fill="#000"/>
<rect x="19.6897" y="44.2069" width="0.206897" height="6.41379" fill="#000"/>
<rect x="19.4828" y="44.4138" width="0.206897" height="6" fill="#000"/>
<rect x="19.2759" y="44.8276" width="0.206897" height="5.17241" fill="#000"/>
<rect x="20.5172" y="44.8276" width="0.206897" height="5.17241" fill="#000"/>
<rect x="20.3103" y="44.4138" width="0.206897" height="6" fill="#000"/>
<rect x="20.1034" y="44.2069" width="0.206897" height="6.41379" fill="#000"/>
<rect x="22.7931" y="47.1035" width="0.206897" height="5.58621" transform="rotate(90 22.7931 47.1035)" fill="#000"/>
<rect x="22.3793" y="46.8965" width="0.206897" height="4.75862" transform="rotate(90 22.3793 46.8965)" fill="#000"/>
<rect x="22.3793" y="47.7242" width="0.206897" height="4.75862" transform="rotate(90 22.3793 47.7242)" fill="#000"/>
<rect x="21.9655" y="47.931" width="0.206897" height="3.93103" transform="rotate(90 21.9655 47.931)" fill="#000"/>
<rect x="21.9655" y="46.6896" width="0.206897" height="3.93103" transform="rotate(90 21.9655 46.6896)" fill="#000"/>
<rect x="22.7931" y="47.5172" width="0.206897" height="5.58621" transform="rotate(90 22.7931 47.5172)" fill="#000"/>
<rect x="23" y="47.3103" width="0.206897" height="6" transform="rotate(90 23 47.3103)" fill="#000"/>
<rect x="28.8966" y="34" width="0.206897" height="6.82759" fill="#000"/>
<rect x="28.6897" y="34.2069" width="0.206897" height="6.41379" fill="#000"/>
<rect x="28.4828" y="34.4138" width="0.206897" height="6" fill="#000"/>
<rect x="28.2759" y="34.8276" width="0.206897" height="5.17241" fill="#000"/>
<rect x="29.5172" y="34.8276" width="0.206897" height="5.17241" fill="#000"/>
<rect x="29.3103" y="34.4138" width="0.206897" height="6" fill="#000"/>
<rect x="29.1034" y="34.2069" width="0.206897" height="6.41379" fill="#000"/>
<rect x="31.7931" y="37.1035" width="0.206897" height="5.58621" transform="rotate(90 31.7931 37.1035)" fill="#000"/>
<rect x="31.3793" y="36.8965" width="0.206897" height="4.75862" transform="rotate(90 31.3793 36.8965)" fill="#000"/>
<rect x="31.3793" y="37.7242" width="0.206897" height="4.75862" transform="rotate(90 31.3793 37.7242)" fill="#000"/>
<rect x="30.9655" y="37.931" width="0.206897" height="3.93103" transform="rotate(90 30.9655 37.931)" fill="#000"/>
<rect x="30.9655" y="36.6896" width="0.206897" height="3.93103" transform="rotate(90 30.9655 36.6896)" fill="#000"/>
<rect x="31.7931" y="37.5172" width="0.206897" height="5.58621" transform="rotate(90 31.7931 37.5172)" fill="#000"/>
<rect x="32" y="37.3103" width="0.206897" height="6" transform="rotate(90 32 37.3103)" fill="#000"/>
</svg>
