<svg width="206" height="20" viewBox="0 0 206 20" fill="none" xmlns="http://www.w3.org/2000/svg">
<path d="M37.1387 4.41599C38.0827 4.41599 38.944 4.58666 39.7227 4.93067C40.5014 5.272 41.168 5.77601 41.7226 6.44268C42.2774 7.10935 42.7093 7.92532 43.0134 8.88798C43.32 9.85067 43.4721 10.952 43.4721 12.1947C43.4721 13.5094 43.3093 14.6533 42.9867 15.624C42.6613 16.5973 42.2187 17.4053 41.6534 18.056C41.088 18.704 40.416 19.1893 39.64 19.5146C38.8613 19.8373 38.0267 20 37.1387 20C36.232 20 35.3893 19.8373 34.6107 19.5146C33.8347 19.1893 33.1627 18.704 32.5973 18.056C32.032 17.4053 31.5893 16.5973 31.264 15.624C30.9386 14.6533 30.7787 13.5094 30.7787 12.1947C30.7787 10.952 30.9307 9.85067 31.2373 8.88798C31.5414 7.92532 31.976 7.10935 32.5414 6.44268C33.1067 5.77601 33.7787 5.272 34.5546 4.93067C35.3333 4.58666 36.1947 4.41599 37.1387 4.41599ZM70.0267 19.6373H68.1681C68.0187 19.6373 67.9174 19.6 67.8614 19.528C67.8053 19.4533 67.7627 19.3706 67.736 19.2774C67.7094 19.184 67.6747 19.1013 67.64 19.0267C67.6027 18.952 67.536 18.9173 67.4453 18.9173C67.3334 18.9173 67.184 18.9706 67.0001 19.0827C66.816 19.1947 66.5093 19.3226 66.0827 19.472C65.6933 19.6 65.2906 19.6934 64.8746 19.7493C64.4586 19.8053 64.0454 19.832 63.64 19.832C62.8987 19.832 62.2027 19.736 61.5547 19.5413C60.9067 19.3467 60.3467 19.056 59.8747 18.6667C59.4026 18.2773 59.0266 17.7813 58.7494 17.1813C58.472 16.5787 58.3333 15.8694 58.3333 15.056C58.3333 14.2214 58.4774 13.4907 58.7627 12.8614C59.0507 12.232 59.448 11.712 59.9574 11.304C60.4666 10.8987 61.0693 10.592 61.7627 10.3893C62.4587 10.184 63.2027 10.0827 64 10.0827C64.9254 10.0827 65.6427 10.1706 66.152 10.3467C66.6614 10.5227 67.0187 10.6106 67.2213 10.6106C67.408 10.6106 67.5014 10.5093 67.5014 10.304C67.5014 9.23203 67.2187 8.48533 66.6533 8.06933C66.088 7.65334 65.36 7.44267 64.4721 7.44267C63.9734 7.44267 63.5173 7.496 63.112 7.59733C62.704 7.69867 62.352 7.80532 62.056 7.91732C61.76 8.02665 61.5147 8.13334 61.32 8.23467C61.1254 8.336 60.9814 8.38932 60.888 8.38932C60.816 8.38932 60.7227 8.32266 60.6106 8.19466C60.5014 8.064 60.3334 7.76801 60.112 7.30401C59.9067 6.88001 59.7813 6.59201 59.736 6.44268C59.6907 6.29601 59.6667 6.20267 59.6667 6.16534C59.6667 6 59.8053 5.81866 60.0827 5.62399C60.36 5.42933 60.736 5.24 61.208 5.05599C61.68 4.86932 62.24 4.71734 62.888 4.59733C63.536 4.47733 64.2214 4.41599 64.944 4.41599C65.7973 4.41599 66.5733 4.51732 67.2773 4.72266C67.9814 4.92532 68.584 5.25866 69.0827 5.72266C69.584 6.18399 69.9733 6.79201 70.2507 7.54134C70.528 8.29068 70.6667 9.20267 70.6667 10.2773V19C70.6667 19.184 70.6053 19.336 70.4854 19.4587C70.3654 19.5786 70.2134 19.6373 70.0267 19.6373ZM52.0267 7.38933C51.8427 7.38933 51.6907 7.448 51.5707 7.568C51.448 7.688 51.3894 7.84266 51.3894 8.02666V15.1387C51.3894 16.1574 51.9173 16.6667 52.9734 16.6667C53.3413 16.6667 53.6346 16.6241 53.848 16.5413C54.0587 16.4586 54.2586 16.416 54.4454 16.416C54.704 16.416 54.8347 16.528 54.8347 16.7494C54.8347 16.8053 54.824 16.8986 54.8053 17.0266C54.7867 17.1573 54.7627 17.2907 54.7361 17.4293C54.7094 17.568 54.68 17.7067 54.6534 17.848C54.624 17.9866 54.6027 18.0827 54.584 18.1387C54.5467 18.3413 54.4827 18.5306 54.3893 18.7067C54.296 18.8826 54.1494 19.0373 53.944 19.1653C53.6853 19.3333 53.3467 19.4773 52.9307 19.5973C52.5147 19.7174 52.0827 19.776 51.6401 19.776C51.1574 19.776 50.7093 19.6986 50.2906 19.5413C49.8747 19.384 49.5146 19.144 49.208 18.8187C48.904 18.496 48.6587 18.088 48.472 17.5973C48.288 17.1066 48.1947 16.536 48.1947 15.888V8.02666C48.1947 7.84266 48.1334 7.688 48.0133 7.568C47.8933 7.448 47.7413 7.38933 47.5546 7.38933H47.112C46.9253 7.38933 46.7734 7.32801 46.6533 7.20801C46.5333 7.08801 46.472 6.93332 46.472 6.74932V5.41598C46.472 5.23198 46.5333 5.07732 46.6533 4.95733C46.7734 4.83732 46.9253 4.77601 47.112 4.77601H47.5546C47.7413 4.77601 47.8933 4.71734 48.0133 4.59733C48.1334 4.47733 48.1947 4.32267 48.1947 4.13868V1.27731C48.1947 1.16532 48.2374 1.05066 48.32 0.930667C48.4027 0.810662 48.5094 0.730664 48.64 0.693323C49.1386 0.527994 49.528 0.391995 49.8054 0.29066C50.0827 0.189324 50.2907 0.119983 50.4294 0.0826501C50.5707 0.0453167 50.6587 0.0213137 50.6933 0.013314C50.7307 0.00264704 50.76 0 50.7787 0C50.944 0 51.088 0.055999 51.208 0.165332C51.328 0.277334 51.3894 0.434671 51.3894 0.637341V4.13868C51.3894 4.32267 51.448 4.47733 51.5707 4.59733C51.6907 4.71734 51.8427 4.77601 52.0267 4.77601H54.3067C54.4907 4.77601 54.6427 4.83732 54.7627 4.95733C54.8853 5.07732 54.944 5.23198 54.944 5.41598V6.74932C54.944 6.93332 54.8853 7.08801 54.7627 7.20801C54.6427 7.32801 54.4907 7.38933 54.3067 7.38933H52.0267ZM2.80533 19.6373H0.640007C0.45334 19.6373 0.301316 19.5786 0.181315 19.4587C0.0586484 19.336 0 19.184 0 19V1.05599C0 0.869321 0.0586484 0.717328 0.181315 0.597332C0.301316 0.477327 0.45334 0.415981 0.640007 0.415981H8.11198C10.184 0.415981 11.824 0.933335 13.0267 1.97067C14.232 3.00801 14.8347 4.51733 14.8347 6.49867C14.8347 7.536 14.6613 8.44001 14.32 9.20804C13.976 9.97597 13.5093 10.6106 12.9173 11.1093C12.3226 11.6106 11.616 11.9813 10.792 12.2213C9.968 12.4613 9.07465 12.584 8.11198 12.584H4.08265C3.89865 12.584 3.74399 12.6427 3.62399 12.7626C3.50399 12.8827 3.44531 13.0373 3.44531 13.2213V19C3.44531 19.184 3.384 19.336 3.264 19.4587C3.14399 19.5786 2.98934 19.6373 2.80533 19.6373ZM21.3893 19.6373H19.4453C19.2586 19.6373 19.1067 19.5786 18.9866 19.4587C18.8666 19.336 18.8053 19.184 18.8053 19V5.41598C18.8053 5.23198 18.8666 5.07732 18.9866 4.95733C19.1067 4.83732 19.2586 4.77601 19.4453 4.77601H21.1947C21.3787 4.77601 21.5333 4.83732 21.6534 4.95733C21.7733 5.07732 21.8347 5.23198 21.8347 5.41598C21.8347 5.71199 21.9253 5.86133 22.112 5.86133C22.2587 5.86133 22.3919 5.78667 22.5147 5.63734C22.6347 5.49067 22.768 5.37065 22.9173 5.27732C23.712 4.70398 24.6587 4.41599 25.7494 4.41599C26.1386 4.41599 26.5227 4.46132 26.904 4.55466C27.2826 4.64799 27.6027 4.76798 27.8614 4.91732C28.0827 5.06399 28.1947 5.26667 28.1947 5.528C28.1947 5.59999 28.1707 5.704 28.1253 5.832C28.0773 5.96267 27.944 6.26665 27.7226 6.74932C27.5013 7.23198 27.328 7.53065 27.208 7.65333C27.088 7.77332 26.9814 7.832 26.888 7.832C26.76 7.832 26.5706 7.76801 26.32 7.63734C26.0693 7.50933 25.6747 7.44267 25.1387 7.44267C24.4907 7.44267 23.9067 7.59199 23.3894 7.88799C23.296 7.94399 23.176 8.03999 23.0267 8.18132C22.88 8.31999 22.7306 8.48531 22.584 8.67998C22.4346 8.87464 22.3067 9.0933 22.1947 9.33335C22.0826 9.5733 22.0267 9.83206 22.0267 10.1093V19C22.0267 19.184 21.968 19.336 21.8479 19.4587C21.7253 19.5786 21.5734 19.6373 21.3893 19.6373ZM64.36 17.1946C64.5653 17.1946 64.8427 17.1813 65.1947 17.152C65.5467 17.1254 65.8934 17.072 66.2373 17C66.5787 16.9253 66.8747 16.824 67.1254 16.6933C67.3761 16.5653 67.5014 16.3894 67.5014 16.1653V13.1653C67.5014 13.0187 67.392 12.8933 67.1813 12.792C66.968 12.688 66.7173 12.6107 66.4294 12.5546C66.1441 12.4987 65.8427 12.4614 65.528 12.4427C65.2133 12.4266 64.9547 12.416 64.7493 12.416C64.288 12.416 63.8506 12.4613 63.4454 12.5546C63.0373 12.648 62.6747 12.792 62.36 12.9867C62.0454 13.1813 61.7974 13.4346 61.6107 13.7493C61.4266 14.064 61.3334 14.4427 61.3334 14.888C61.3334 15.704 61.624 16.2907 62.208 16.6533C62.792 17.0133 63.5094 17.1946 64.36 17.1946ZM37.1387 7.38933C36.12 7.38933 35.3147 7.792 34.7226 8.59733C34.1307 9.40271 33.8347 10.6106 33.8347 12.2213C33.8347 13.7947 34.1334 14.9947 34.736 15.8186C35.3387 16.6427 36.1387 17.056 37.1387 17.056C38.12 17.056 38.9174 16.6533 39.528 15.848C40.1387 15.0399 40.4453 13.832 40.4453 12.2213C40.4453 10.592 40.1387 9.37863 39.528 8.58398C38.9174 7.78665 38.12 7.38933 37.1387 7.38933ZM8.168 3.55466H4.05599C3.86932 3.55466 3.71733 3.61601 3.59733 3.736C3.47733 3.85601 3.41598 4.00799 3.41598 4.19466V8.91734C3.41598 9.10135 3.47733 9.25333 3.59733 9.37335C3.71733 9.49597 3.86932 9.55469 4.05599 9.55469H8.168C9.14667 9.55469 9.95735 9.32001 10.5973 8.84797C11.2373 8.37332 11.5547 7.6 11.5547 6.528C11.5547 5.47199 11.24 4.71198 10.6106 4.25065C9.98133 3.78665 9.168 3.55466 8.168 3.55466Z" fill="black"/>
<path d="M203.276 8.38932C202.815 8.07199 202.268 7.81066 201.636 7.59733C201.007 7.384 200.314 7.27732 199.554 7.27732C198.722 7.27732 198.13 7.41599 197.778 7.69333C197.426 7.97066 197.249 8.296 197.249 8.66667C197.249 9.00004 197.359 9.26666 197.583 9.47198C197.804 9.67471 198.073 9.85067 198.388 9.99996C198.74 10.1654 199.124 10.3146 199.54 10.4426C199.956 10.5733 200.378 10.6986 200.804 10.8186C201.231 10.9387 201.66 11.072 202.095 11.2213C202.532 11.3707 202.942 11.5467 203.332 11.7493C204.054 12.12 204.591 12.5733 204.943 13.1094C205.295 13.648 205.47 14.36 205.47 15.2506C205.47 16.232 205.281 17.032 204.903 17.6533C204.522 18.272 204.041 18.7547 203.458 19.096C202.873 19.44 202.239 19.6747 201.553 19.8053C200.868 19.9333 200.231 20 199.636 20C198.935 20 198.226 19.9333 197.513 19.8053C196.799 19.6747 196.156 19.5146 195.583 19.32C195.007 19.1253 194.54 18.912 194.18 18.68C193.817 18.448 193.636 18.232 193.636 18.0266C193.636 17.952 193.66 17.8 193.708 17.568C193.753 17.336 193.849 17.064 193.999 16.7494C194.238 16.2133 194.457 15.8827 194.652 15.7627C194.847 15.6427 194.962 15.584 194.998 15.584C195.073 15.584 195.226 15.6614 195.457 15.8186C195.689 15.976 195.99 16.144 196.359 16.32C196.729 16.496 197.174 16.6613 197.692 16.8186C198.212 16.976 198.815 17.056 199.497 17.056C200.369 17.056 201.055 16.912 201.553 16.624C202.055 16.336 202.302 15.8986 202.302 15.304C202.302 14.9333 202.188 14.6347 201.956 14.4027C201.727 14.1707 201.351 13.9627 200.831 13.776C200.553 13.6667 200.212 13.5546 199.804 13.4427C199.396 13.3333 198.975 13.208 198.541 13.0694C198.105 12.9306 197.67 12.7813 197.236 12.624C196.799 12.4667 196.407 12.2853 196.055 12.0827C195.815 11.952 195.578 11.7947 195.346 11.6106C195.113 11.4266 194.905 11.2026 194.721 10.9439C194.535 10.6853 194.382 10.3786 194.262 10.0266C194.143 9.67461 194.081 9.26667 194.081 8.80534C194.081 8.08267 194.225 7.448 194.514 6.90133C194.799 6.35467 195.193 5.89866 195.692 5.528C196.194 5.15733 196.78 4.88 197.457 4.69333C198.132 4.50933 198.86 4.41599 199.636 4.41599C200.268 4.41599 200.898 4.47198 201.526 4.58398C202.156 4.69332 202.722 4.84801 203.22 5.04001C203.721 5.23467 204.124 5.45332 204.429 5.69333C204.735 5.93333 204.887 6.19468 204.887 6.47201C204.887 6.52801 204.874 6.624 204.847 6.76267C204.817 6.90133 204.73 7.13867 204.583 7.472C204.378 7.95201 204.225 8.25866 204.124 8.38932C204.023 8.51732 203.897 8.58398 203.748 8.58398C203.62 8.58398 203.462 8.51732 203.276 8.38932ZM159.778 19.6373H158.026C157.842 19.6373 157.689 19.5786 157.569 19.4587C157.447 19.336 157.388 19.184 157.388 19C157.388 18.704 157.295 18.5546 157.11 18.5546C156.98 18.5546 156.86 18.6106 156.748 18.7226C156.638 18.832 156.425 18.9893 156.111 19.1947C155.759 19.4347 155.313 19.6294 154.777 19.776C154.239 19.9254 153.639 20 152.972 20C152.249 20 151.583 19.8987 150.972 19.6934C150.359 19.4906 149.833 19.1707 149.388 18.736C148.943 18.3013 148.596 17.7493 148.345 17.0827C148.095 16.416 147.972 15.6187 147.972 14.6933V5.41598C147.972 5.23198 148.03 5.07732 148.15 4.95733C148.27 4.83732 148.426 4.77601 148.609 4.77601H150.554C150.74 4.77601 150.892 4.83732 151.012 4.95733C151.132 5.07732 151.194 5.23198 151.194 5.41598V14.1387C151.194 15.1574 151.462 15.8827 151.999 16.32C152.535 16.7546 153.22 16.9707 154.055 16.9707C154.702 16.9707 155.295 16.824 155.833 16.528C155.924 16.472 156.045 16.384 156.193 16.264C156.34 16.144 156.49 15.9867 156.638 15.792C156.785 15.5974 156.916 15.3787 157.025 15.1387C157.137 14.8987 157.193 14.6374 157.193 14.36V5.41598C157.193 5.23198 157.254 5.07732 157.374 4.95733C157.495 4.83732 157.647 4.77601 157.834 4.77601H159.778C159.962 4.77601 160.113 4.83732 160.236 4.95733C160.356 5.07732 160.415 5.23198 160.415 5.41598V19C160.415 19.184 160.356 19.336 160.236 19.4587C160.113 19.5786 159.962 19.6373 159.778 19.6373ZM181.193 13.2213C180.878 13.2213 180.721 13.3787 180.721 13.6933C180.83 14.2853 181.004 14.7946 181.236 15.2214C181.466 15.648 181.743 15.9999 182.068 16.2773C182.393 16.5547 182.748 16.7627 183.138 16.9013C183.526 17.04 183.924 17.1093 184.332 17.1093C184.83 17.1093 185.244 17.04 185.569 16.9013C185.892 16.7627 186.161 16.6053 186.375 16.4293C186.588 16.2533 186.762 16.096 186.903 15.9573C187.042 15.8187 187.183 15.7493 187.332 15.7493C187.406 15.7493 187.495 15.7867 187.596 15.8613C187.697 15.9334 187.935 16.1387 188.302 16.472C188.674 16.7867 188.903 16.9893 188.986 17.0827C189.068 17.176 189.11 17.2667 189.11 17.36C189.11 17.4907 189.004 17.704 188.791 18C188.578 18.296 188.263 18.592 187.847 18.888C187.428 19.184 186.91 19.4427 186.29 19.6667C185.671 19.888 184.962 20 184.164 20C183.276 20 182.438 19.832 181.652 19.4987C180.865 19.1653 180.175 18.6693 179.583 18.0133C178.988 17.3547 178.521 16.536 178.18 15.5547C177.836 14.5734 177.665 13.4267 177.665 12.1094C177.665 10.888 177.818 9.80001 178.124 8.84797C178.428 7.89332 178.866 7.088 179.428 6.42933C179.994 5.77333 180.665 5.272 181.444 4.93067C182.22 4.58666 183.081 4.41599 184.025 4.41599C184.969 4.41599 185.831 4.58666 186.609 4.93067C187.388 5.272 188.055 5.77601 188.609 6.44268C189.164 7.10935 189.596 7.92532 189.903 8.88798C190.207 9.85067 190.359 10.944 190.359 12.1653C190.359 12.8693 190.174 13.2213 189.804 13.2213H181.193ZM105.582 13.2213C105.268 13.2213 105.11 13.3787 105.11 13.6933C105.22 14.2853 105.39 14.7946 105.623 15.2214C105.855 15.648 106.132 15.9999 106.457 16.2773C106.78 16.5547 107.138 16.7627 107.527 16.9013C107.916 17.04 108.314 17.1093 108.722 17.1093C109.22 17.1093 109.633 17.04 109.956 16.9013C110.282 16.7627 110.55 16.6053 110.761 16.4293C110.974 16.2533 111.151 16.096 111.289 15.9573C111.428 15.8187 111.572 15.7493 111.722 15.7493C111.796 15.7493 111.884 15.7867 111.986 15.8613C112.086 15.9334 112.321 16.1387 112.692 16.472C113.063 16.7867 113.289 16.9893 113.375 17.0827C113.457 17.176 113.501 17.2667 113.501 17.36C113.501 17.4907 113.391 17.704 113.18 18C112.967 18.296 112.652 18.592 112.236 18.888C111.818 19.184 111.3 19.4427 110.679 19.6667C110.057 19.888 109.351 20 108.554 20C107.665 20 106.828 19.832 106.041 19.4987C105.255 19.1653 104.564 18.6693 103.972 18.0133C103.378 17.3547 102.91 16.536 102.57 15.5547C102.225 14.5734 102.055 13.4267 102.055 12.1094C102.055 10.888 102.207 9.80001 102.513 8.84797C102.817 7.89332 103.255 7.088 103.817 6.42933C104.383 5.77333 105.055 5.272 105.834 4.93067C106.609 4.58666 107.47 4.41599 108.415 4.41599C109.359 4.41599 110.22 4.58666 110.998 4.93067C111.777 5.272 112.444 5.77601 112.999 6.44268C113.553 7.10935 113.985 7.92532 114.289 8.88798C114.596 9.85067 114.748 10.944 114.748 12.1653C114.748 12.8693 114.565 13.2213 114.193 13.2213H105.582ZM141.138 7.38933C140.954 7.38933 140.799 7.448 140.678 7.568C140.558 7.688 140.5 7.84266 140.5 8.02666V15.1387C140.5 16.1574 141.026 16.6667 142.081 16.6667C142.452 16.6667 142.746 16.6241 142.956 16.5413C143.169 16.4586 143.369 16.416 143.554 16.416C143.815 16.416 143.942 16.528 143.942 16.7494C143.942 16.8053 143.935 16.8986 143.916 17.0266C143.897 17.1573 143.873 17.2907 143.846 17.4293C143.818 17.568 143.791 17.7067 143.761 17.848C143.735 17.9866 143.711 18.0827 143.692 18.1387C143.654 18.3413 143.591 18.5306 143.5 18.7067C143.407 18.8826 143.257 19.0373 143.055 19.1653C142.796 19.3333 142.457 19.4773 142.042 19.5973C141.622 19.7174 141.193 19.776 140.748 19.776C140.268 19.776 139.818 19.6986 139.401 19.5413C138.986 19.384 138.623 19.144 138.319 18.8187C138.012 18.496 137.766 18.088 137.583 17.5973C137.396 17.1066 137.305 16.536 137.305 15.888V8.02666C137.305 7.84266 137.244 7.688 137.124 7.568C137.004 7.448 136.849 7.38933 136.665 7.38933H136.22C136.036 7.38933 135.884 7.32801 135.761 7.20801C135.641 7.08801 135.583 6.93332 135.583 6.74932V5.41598C135.583 5.23198 135.641 5.07732 135.761 4.95733C135.884 4.83732 136.036 4.77601 136.22 4.77601H136.665C136.849 4.77601 137.004 4.71734 137.124 4.59733C137.244 4.47733 137.305 4.32267 137.305 4.13868V1.27731C137.305 1.16532 137.345 1.05066 137.428 0.930667C137.513 0.810662 137.62 0.730664 137.748 0.693323C138.249 0.527994 138.639 0.391995 138.916 0.29066C139.193 0.189324 139.401 0.119983 139.54 0.0826501C139.679 0.0453167 139.767 0.0213137 139.804 0.013314C139.842 0.00264704 139.869 0 139.887 0C140.055 0 140.199 0.055999 140.318 0.165332C140.438 0.277334 140.5 0.434671 140.5 0.637341V4.13868C140.5 4.32267 140.558 4.47733 140.678 4.59733C140.799 4.71734 140.954 4.77601 141.138 4.77601H143.415C143.602 4.77601 143.753 4.83732 143.873 4.95733C143.993 5.07732 144.055 5.23198 144.055 5.41598V6.74932C144.055 6.93332 143.993 7.08801 143.873 7.20801C143.753 7.32801 143.602 7.38933 143.415 7.38933H141.138ZM93.6654 19.6373H90.8868C90.7774 19.6373 90.6573 19.5973 90.5267 19.5146C90.396 19.4293 90.3134 19.3333 90.2761 19.2213L83.5533 1.27731C83.516 1.22131 83.5 1.128 83.5 0.999996C83.5 0.85067 83.5533 0.717328 83.6654 0.597332C83.7774 0.477327 83.9347 0.415981 84.1373 0.415981H86.5C86.6094 0.415981 86.7241 0.458676 86.8467 0.54134C86.9667 0.624005 87.044 0.722663 87.0814 0.831999L91.6654 13.6667C91.7774 13.9627 91.98 14.1094 92.276 14.1094C92.572 14.1094 92.7774 13.9627 92.8867 13.6667L97.4445 0.831999C97.4809 0.722663 97.5586 0.624005 97.6786 0.54134C97.7985 0.458676 97.9165 0.415981 98.0249 0.415981H100.415C100.601 0.415981 100.754 0.477327 100.873 0.597332C100.993 0.717328 101.055 0.85067 101.055 0.999996C101.055 1.072 101.036 1.16532 100.999 1.27731L94.276 19.2213C94.2387 19.3333 94.156 19.4293 94.0253 19.5146C93.8973 19.5973 93.7774 19.6373 93.6654 19.6373ZM168.276 19.6373H166.332C166.148 19.6373 165.994 19.5786 165.873 19.4587C165.753 19.336 165.693 19.184 165.693 19V5.41598C165.693 5.23198 165.753 5.07732 165.873 4.95733C165.994 4.83732 166.148 4.77601 166.332 4.77601H168.082C168.268 4.77601 168.42 4.83732 168.54 4.95733C168.66 5.07732 168.721 5.23198 168.721 5.41598C168.721 5.71199 168.815 5.86133 168.999 5.86133C169.148 5.86133 169.282 5.78667 169.402 5.63734C169.522 5.49067 169.655 5.37065 169.804 5.27732C170.601 4.70398 171.545 4.41599 172.636 4.41599C173.025 4.41599 173.409 4.46132 173.791 4.55466C174.169 4.64799 174.49 4.76798 174.748 4.91732C174.969 5.06399 175.082 5.26667 175.082 5.528C175.082 5.59999 175.06 5.704 175.012 5.832C174.966 5.96267 174.831 6.26665 174.609 6.74932C174.388 7.23198 174.217 7.53065 174.094 7.65333C173.974 7.77332 173.868 7.832 173.778 7.832C173.647 7.832 173.457 7.76801 173.207 7.63734C172.956 7.50933 172.564 7.44267 172.026 7.44267C171.377 7.44267 170.796 7.59199 170.276 7.88799C170.183 7.94399 170.063 8.03999 169.916 8.18132C169.767 8.31999 169.62 8.48531 169.471 8.67998C169.324 8.87464 169.194 9.0933 169.081 9.33335C168.969 9.5733 168.916 9.83206 168.916 10.1093V19C168.916 19.184 168.855 19.336 168.735 19.4587C168.615 19.5786 168.462 19.6373 168.276 19.6373ZM121.804 19.6373H119.86C119.673 19.6373 119.521 19.5786 119.401 19.4587C119.281 19.336 119.22 19.184 119.22 19V5.41598C119.22 5.23198 119.281 5.07732 119.401 4.95733C119.521 4.83732 119.673 4.77601 119.86 4.77601H121.61C121.796 4.77601 121.948 4.83732 122.068 4.95733C122.188 5.07732 122.25 5.23198 122.25 5.41598C122.25 5.59998 122.281 5.72532 122.345 5.79199C122.41 5.856 122.489 5.88799 122.582 5.88799C122.711 5.88799 122.822 5.83734 122.916 5.736C123.007 5.63467 123.119 5.53601 123.249 5.44267C124.175 4.76001 125.313 4.41599 126.666 4.41599C128.295 4.41599 129.534 4.89331 130.388 5.84799C131.238 6.79998 131.665 8.25866 131.665 10.2213V19C131.665 19.184 131.604 19.336 131.484 19.4587C131.364 19.5786 131.212 19.6373 131.025 19.6373H129.082C128.897 19.6373 128.743 19.5786 128.623 19.4587C128.503 19.336 128.444 19.184 128.444 19V10.584C128.444 9.39734 128.183 8.57866 127.666 8.12533C127.148 7.66933 126.462 7.44267 125.609 7.44267C124.943 7.44267 124.351 7.59199 123.834 7.88799C123.721 7.94399 123.588 8.03999 123.428 8.18132C123.27 8.31999 123.119 8.47201 122.972 8.63734C122.822 8.80534 122.698 8.98929 122.596 9.19471C122.495 9.39734 122.444 9.59201 122.444 9.77603V19C122.444 19.184 122.383 19.336 122.263 19.4587C122.143 19.5786 121.991 19.6373 121.804 19.6373ZM183.998 7.30401C183.591 7.30401 183.198 7.38401 182.817 7.54134C182.438 7.69868 182.1 7.91198 181.804 8.18132C181.508 8.44798 181.271 8.75467 181.095 9.09598C180.922 9.44003 180.83 9.80529 180.83 10.1946C180.83 10.4347 180.874 10.6106 180.956 10.7227C181.042 10.832 181.193 10.888 181.415 10.888H186.609C186.98 10.888 187.164 10.656 187.164 10.1946C187.164 9.86132 187.081 9.52264 186.916 9.18128C186.748 8.83732 186.522 8.52799 186.236 8.25065C185.948 7.97066 185.615 7.744 185.236 7.568C184.855 7.39201 184.444 7.30401 183.998 7.30401ZM108.388 7.30401C107.98 7.30401 107.589 7.38401 107.207 7.54134C106.828 7.69868 106.489 7.91198 106.193 8.18132C105.897 8.44798 105.66 8.75467 105.484 9.09598C105.308 9.44003 105.22 9.80529 105.22 10.1946C105.22 10.4347 105.263 10.6106 105.345 10.7227C105.428 10.832 105.582 10.888 105.804 10.888H110.998C111.37 10.888 111.554 10.656 111.554 10.1946C111.554 9.86132 111.47 9.52264 111.305 9.18128C111.137 8.83732 110.911 8.52799 110.623 8.25065C110.337 7.97066 110.004 7.744 109.622 7.568C109.244 7.39201 108.834 7.30401 108.388 7.30401Z" fill="black"/>
</svg>
