<?xml version="1.0" encoding="UTF-8" standalone="no"?>
<!DOCTYPE svg PUBLIC "-//W3C//DTD SVG 1.1//EN" "http://www.w3.org/Graphics/SVG/1.1/DTD/svg11.dtd">
<svg width="100%" height="100%" viewBox="0 0 918 82" version="1.1" xmlns="http://www.w3.org/2000/svg" xmlns:xlink="http://www.w3.org/1999/xlink" xml:space="preserve" xmlns:serif="http://www.serif.com/" style="fill-rule:evenodd;clip-rule:evenodd;stroke-linejoin:round;stroke-miterlimit:2;">
    <g transform="matrix(1,0,0,1,-261.275,-204.574)">
        <g id="Logo-Prota-Ventures" serif:id="Logo Prota Ventures" transform="matrix(1,0,0,1,1.23166,-144.066)">
            <g id="Wordmark" transform="matrix(1,0,0,1,-1033.94,-750.855)">
                <path id="Prota" d="M1580.18,1122.46C1583.72,1122.46 1586.95,1123.1 1589.87,1124.39C1592.79,1125.67 1595.29,1127.56 1597.37,1130.06C1599.45,1132.56 1601.07,1135.62 1602.21,1139.23C1603.36,1142.84 1603.93,1146.97 1603.93,1151.63C1603.93,1156.56 1603.32,1160.85 1602.11,1164.49C1600.89,1168.14 1599.23,1171.17 1597.11,1173.61C1594.99,1176.04 1592.47,1177.86 1589.56,1179.08C1586.64,1180.29 1583.51,1180.9 1580.18,1180.9C1576.78,1180.9 1573.62,1180.29 1570.7,1179.08C1567.79,1177.86 1565.27,1176.04 1563.15,1173.61C1561.03,1171.17 1559.37,1168.14 1558.15,1164.49C1556.93,1160.85 1556.33,1156.56 1556.33,1151.63C1556.33,1146.97 1556.9,1142.84 1558.05,1139.23C1559.19,1135.62 1560.82,1132.56 1562.94,1130.06C1565.06,1127.56 1567.58,1125.67 1570.49,1124.39C1573.41,1123.1 1576.64,1122.46 1580.18,1122.46ZM1703.51,1179.54L1696.54,1179.54C1695.98,1179.54 1695.6,1179.4 1695.39,1179.13C1695.18,1178.85 1695.02,1178.54 1694.92,1178.19C1694.82,1177.84 1694.69,1177.53 1694.56,1177.25C1694.42,1176.97 1694.17,1176.84 1693.83,1176.84C1693.41,1176.84 1692.85,1177.04 1692.16,1177.46C1691.47,1177.88 1690.32,1178.36 1688.72,1178.92C1687.26,1179.4 1685.75,1179.75 1684.19,1179.96C1682.63,1180.17 1681.08,1180.27 1679.56,1180.27C1676.78,1180.27 1674.17,1179.91 1671.74,1179.18C1669.31,1178.45 1667.21,1177.36 1665.44,1175.9C1663.67,1174.44 1662.26,1172.58 1661.22,1170.33C1660.18,1168.07 1659.66,1165.41 1659.66,1162.36C1659.66,1159.23 1660.2,1156.49 1661.27,1154.13C1662.35,1151.77 1663.84,1149.82 1665.75,1148.29C1667.66,1146.77 1669.92,1145.62 1672.52,1144.86C1675.13,1144.09 1677.92,1143.71 1680.91,1143.71C1684.38,1143.71 1687.07,1144.04 1688.98,1144.7C1690.89,1145.36 1692.23,1145.69 1692.99,1145.69C1693.69,1145.69 1694.04,1145.31 1694.04,1144.54C1694.04,1140.52 1692.98,1137.72 1690.86,1136.16C1688.74,1134.6 1686.01,1133.81 1682.68,1133.81C1680.81,1133.81 1679.1,1134.01 1677.58,1134.39C1676.05,1134.77 1674.73,1135.17 1673.62,1135.59C1672.51,1136 1671.59,1136.4 1670.86,1136.78C1670.13,1137.16 1669.59,1137.36 1669.24,1137.36C1668.97,1137.36 1668.62,1137.11 1668.2,1136.63C1667.79,1136.14 1667.16,1135.03 1666.33,1133.29C1665.56,1131.7 1665.09,1130.62 1664.92,1130.06C1664.75,1129.51 1664.66,1129.16 1664.66,1129.02C1664.66,1128.4 1665.18,1127.72 1666.22,1126.99C1667.26,1126.26 1668.67,1125.55 1670.44,1124.86C1672.21,1124.16 1674.31,1123.59 1676.74,1123.14C1679.17,1122.69 1681.74,1122.46 1684.45,1122.46C1687.65,1122.46 1690.56,1122.84 1693.2,1123.61C1695.84,1124.37 1698.1,1125.62 1699.97,1127.36C1701.85,1129.09 1703.31,1131.37 1704.35,1134.18C1705.39,1136.99 1705.91,1140.41 1705.91,1144.44L1705.91,1177.15C1705.91,1177.84 1705.68,1178.41 1705.23,1178.87C1704.78,1179.32 1704.21,1179.54 1703.51,1179.54ZM1636.01,1133.61C1635.32,1133.61 1634.75,1133.83 1634.3,1134.28C1633.84,1134.73 1633.62,1135.31 1633.62,1136L1633.62,1162.67C1633.62,1166.49 1635.6,1168.4 1639.56,1168.4C1640.94,1168.4 1642.04,1168.24 1642.84,1167.93C1643.63,1167.62 1644.38,1167.46 1645.08,1167.46C1646.05,1167.46 1646.54,1167.88 1646.54,1168.71C1646.54,1168.92 1646.5,1169.27 1646.43,1169.75C1646.36,1170.24 1646.27,1170.74 1646.17,1171.26C1646.07,1171.78 1645.96,1172.3 1645.86,1172.83C1645.75,1173.35 1645.67,1173.71 1645.6,1173.92C1645.46,1174.68 1645.22,1175.39 1644.87,1176.05C1644.52,1176.71 1643.97,1177.29 1643.2,1177.77C1642.23,1178.4 1640.96,1178.94 1639.4,1179.39C1637.84,1179.84 1636.22,1180.06 1634.56,1180.06C1632.75,1180.06 1631.07,1179.77 1629.5,1179.18C1627.94,1178.59 1626.59,1177.69 1625.44,1176.47C1624.3,1175.26 1623.38,1173.73 1622.68,1171.89C1621.99,1170.05 1621.64,1167.91 1621.64,1165.48L1621.64,1136C1621.64,1135.31 1621.41,1134.73 1620.96,1134.28C1620.51,1133.83 1619.94,1133.61 1619.24,1133.61L1617.58,1133.61C1616.88,1133.61 1616.31,1133.38 1615.86,1132.93C1615.41,1132.48 1615.18,1131.9 1615.18,1131.21L1615.18,1126.21C1615.18,1125.52 1615.41,1124.94 1615.86,1124.49C1616.31,1124.04 1616.88,1123.81 1617.58,1123.81L1619.24,1123.81C1619.94,1123.81 1620.51,1123.59 1620.96,1123.14C1621.41,1122.69 1621.64,1122.11 1621.64,1121.42L1621.64,1110.69C1621.64,1110.27 1621.8,1109.84 1622.11,1109.39C1622.42,1108.94 1622.82,1108.64 1623.31,1108.5C1625.18,1107.88 1626.64,1107.37 1627.68,1106.99C1628.72,1106.61 1629.5,1106.35 1630.02,1106.21C1630.55,1106.07 1630.88,1105.98 1631.01,1105.95C1631.15,1105.91 1631.26,1105.9 1631.33,1105.9C1631.95,1105.9 1632.49,1106.11 1632.94,1106.52C1633.39,1106.94 1633.62,1107.53 1633.62,1108.29L1633.62,1121.42C1633.62,1122.11 1633.84,1122.69 1634.3,1123.14C1634.75,1123.59 1635.32,1123.81 1636.01,1123.81L1644.56,1123.81C1645.25,1123.81 1645.82,1124.04 1646.27,1124.49C1646.73,1124.94 1646.95,1125.52 1646.95,1126.21L1646.95,1131.21C1646.95,1131.9 1646.73,1132.48 1646.27,1132.93C1645.82,1133.38 1645.25,1133.61 1644.56,1133.61L1636.01,1133.61ZM1451.43,1179.54L1443.31,1179.54C1442.61,1179.54 1442.04,1179.32 1441.59,1178.87C1441.13,1178.41 1440.91,1177.84 1440.91,1177.15L1440.91,1109.86C1440.91,1109.16 1441.13,1108.59 1441.59,1108.14C1442.04,1107.69 1442.61,1107.46 1443.31,1107.46L1471.33,1107.46C1479.1,1107.46 1485.25,1109.4 1489.76,1113.29C1494.28,1117.18 1496.54,1122.84 1496.54,1130.27C1496.54,1134.16 1495.89,1137.55 1494.61,1140.43C1493.32,1143.31 1491.57,1145.69 1489.35,1147.56C1487.12,1149.44 1484.47,1150.83 1481.38,1151.73C1478.29,1152.63 1474.94,1153.09 1471.33,1153.09L1456.22,1153.09C1455.53,1153.09 1454.95,1153.31 1454.5,1153.76C1454.05,1154.21 1453.83,1154.79 1453.83,1155.48L1453.83,1177.15C1453.83,1177.84 1453.6,1178.41 1453.15,1178.87C1452.7,1179.32 1452.12,1179.54 1451.43,1179.54ZM1521.12,1179.54L1513.83,1179.54C1513.13,1179.54 1512.56,1179.32 1512.11,1178.87C1511.66,1178.41 1511.43,1177.84 1511.43,1177.15L1511.43,1126.21C1511.43,1125.52 1511.66,1124.94 1512.11,1124.49C1512.56,1124.04 1513.13,1123.81 1513.83,1123.81L1520.39,1123.81C1521.08,1123.81 1521.66,1124.04 1522.11,1124.49C1522.56,1124.94 1522.79,1125.52 1522.79,1126.21C1522.79,1127.32 1523.13,1127.88 1523.83,1127.88C1524.38,1127.88 1524.88,1127.6 1525.34,1127.04C1525.79,1126.49 1526.29,1126.04 1526.85,1125.69C1529.83,1123.54 1533.38,1122.46 1537.47,1122.46C1538.93,1122.46 1540.37,1122.63 1541.8,1122.98C1543.22,1123.33 1544.42,1123.78 1545.39,1124.34C1546.22,1124.89 1546.64,1125.65 1546.64,1126.63C1546.64,1126.9 1546.55,1127.29 1546.38,1127.77C1546.2,1128.26 1545.7,1129.4 1544.87,1131.21C1544.04,1133.02 1543.39,1134.14 1542.94,1134.6C1542.49,1135.05 1542.09,1135.27 1541.74,1135.27C1541.26,1135.27 1540.55,1135.03 1539.61,1134.54C1538.67,1134.06 1537.19,1133.81 1535.18,1133.81C1532.75,1133.81 1530.56,1134.37 1528.62,1135.48C1528.27,1135.69 1527.82,1136.05 1527.26,1136.58C1526.71,1137.1 1526.15,1137.72 1525.6,1138.45C1525.04,1139.18 1524.56,1140 1524.14,1140.9C1523.72,1141.8 1523.51,1142.77 1523.51,1143.81L1523.51,1177.15C1523.51,1177.84 1523.29,1178.41 1522.84,1178.87C1522.38,1179.32 1521.81,1179.54 1521.12,1179.54ZM1682.26,1170.38C1683.03,1170.38 1684.07,1170.33 1685.39,1170.22C1686.71,1170.12 1688.01,1169.92 1689.3,1169.65C1690.58,1169.37 1691.69,1168.99 1692.63,1168.5C1693.57,1168.02 1694.04,1167.36 1694.04,1166.52L1694.04,1155.27C1694.04,1154.72 1693.63,1154.25 1692.84,1153.87C1692.04,1153.48 1691.1,1153.19 1690.02,1152.98C1688.95,1152.77 1687.82,1152.63 1686.64,1152.56C1685.46,1152.5 1684.49,1152.46 1683.72,1152.46C1681.99,1152.46 1680.35,1152.63 1678.83,1152.98C1677.3,1153.33 1675.94,1153.87 1674.76,1154.6C1673.58,1155.33 1672.65,1156.28 1671.95,1157.46C1671.26,1158.64 1670.91,1160.06 1670.91,1161.73C1670.91,1164.79 1672,1166.99 1674.19,1168.35C1676.38,1169.7 1679.07,1170.38 1682.26,1170.38ZM1580.18,1133.61C1576.36,1133.61 1573.34,1135.12 1571.12,1138.14C1568.9,1141.16 1567.79,1145.69 1567.79,1151.73C1567.79,1157.63 1568.91,1162.13 1571.17,1165.22C1573.43,1168.31 1576.43,1169.86 1580.18,1169.86C1583.86,1169.86 1586.85,1168.35 1589.14,1165.33C1591.43,1162.3 1592.58,1157.77 1592.58,1151.73C1592.58,1145.62 1591.43,1141.07 1589.14,1138.09C1586.85,1135.1 1583.86,1133.61 1580.18,1133.61ZM1471.54,1119.23L1456.12,1119.23C1455.42,1119.23 1454.85,1119.46 1454.4,1119.91C1453.95,1120.36 1453.72,1120.93 1453.72,1121.63L1453.72,1139.34C1453.72,1140.03 1453.95,1140.6 1454.4,1141.05C1454.85,1141.51 1455.42,1141.73 1456.12,1141.73L1471.54,1141.73C1475.21,1141.73 1478.25,1140.85 1480.65,1139.08C1483.05,1137.3 1484.24,1134.4 1484.24,1130.38C1484.24,1126.42 1483.06,1123.57 1480.7,1121.84C1478.34,1120.1 1475.29,1119.23 1471.54,1119.23Z" style="fill:rgb(34,30,27);fill-rule:nonzero;"/>
                <path id="Ventures" d="M2203.2,1137.36C2201.47,1136.17 2199.42,1135.19 2197.05,1134.39C2194.69,1133.59 2192.09,1133.19 2189.24,1133.19C2186.12,1133.19 2183.9,1133.71 2182.58,1134.75C2181.26,1135.79 2180.6,1137.01 2180.6,1138.4C2180.6,1139.65 2181.01,1140.65 2181.85,1141.42C2182.68,1142.18 2183.69,1142.84 2184.87,1143.4C2186.19,1144.02 2187.63,1144.58 2189.19,1145.06C2190.75,1145.55 2192.33,1146.02 2193.93,1146.47C2195.53,1146.92 2197.14,1147.42 2198.77,1147.98C2200.41,1148.54 2201.95,1149.2 2203.41,1149.96C2206.12,1151.35 2208.13,1153.05 2209.45,1155.06C2210.77,1157.08 2211.43,1159.75 2211.43,1163.09C2211.43,1166.77 2210.72,1169.77 2209.3,1172.1C2207.87,1174.42 2206.07,1176.23 2203.88,1177.51C2201.69,1178.8 2199.31,1179.68 2196.74,1180.17C2194.17,1180.65 2191.78,1180.9 2189.55,1180.9C2186.92,1180.9 2184.26,1180.65 2181.59,1180.17C2178.91,1179.68 2176.5,1179.08 2174.35,1178.35C2172.19,1177.62 2170.44,1176.82 2169.09,1175.95C2167.73,1175.08 2167.05,1174.27 2167.05,1173.5C2167.05,1173.22 2167.14,1172.65 2167.32,1171.78C2167.49,1170.91 2167.85,1169.89 2168.41,1168.71C2169.31,1166.7 2170.13,1165.46 2170.86,1165.01C2171.59,1164.56 2172.02,1164.34 2172.16,1164.34C2172.44,1164.34 2173.01,1164.63 2173.88,1165.22C2174.75,1165.81 2175.88,1166.44 2177.26,1167.1C2178.65,1167.76 2180.32,1168.38 2182.26,1168.97C2184.21,1169.56 2186.47,1169.86 2189.03,1169.86C2192.3,1169.86 2194.87,1169.32 2196.74,1168.24C2198.62,1167.16 2199.55,1165.52 2199.55,1163.29C2199.55,1161.9 2199.12,1160.78 2198.25,1159.91C2197.39,1159.04 2195.98,1158.26 2194.03,1157.56C2192.99,1157.15 2191.71,1156.73 2190.18,1156.31C2188.65,1155.9 2187.07,1155.43 2185.44,1154.91C2183.81,1154.39 2182.18,1153.83 2180.55,1153.24C2178.91,1152.65 2177.44,1151.97 2176.12,1151.21C2175.22,1150.72 2174.33,1150.13 2173.46,1149.44C2172.59,1148.75 2171.81,1147.91 2171.12,1146.94C2170.42,1145.97 2169.85,1144.82 2169.4,1143.5C2168.95,1142.18 2168.72,1140.65 2168.72,1138.92C2168.72,1136.21 2169.26,1133.83 2170.34,1131.78C2171.41,1129.73 2172.89,1128.02 2174.76,1126.63C2176.64,1125.24 2178.84,1124.2 2181.38,1123.5C2183.91,1122.81 2186.64,1122.46 2189.55,1122.46C2191.92,1122.46 2194.28,1122.67 2196.64,1123.09C2199,1123.5 2201.12,1124.08 2202.99,1124.8C2204.87,1125.53 2206.38,1126.35 2207.52,1127.25C2208.67,1128.15 2209.24,1129.13 2209.24,1130.17C2209.24,1130.38 2209.19,1130.74 2209.09,1131.26C2208.98,1131.78 2208.65,1132.67 2208.1,1133.92C2207.33,1135.72 2206.76,1136.87 2206.38,1137.36C2206,1137.84 2205.53,1138.09 2204.97,1138.09C2204.49,1138.09 2203.9,1137.84 2203.2,1137.36ZM2040.08,1179.54L2033.51,1179.54C2032.82,1179.54 2032.25,1179.32 2031.8,1178.87C2031.34,1178.41 2031.12,1177.84 2031.12,1177.15C2031.12,1176.04 2030.77,1175.48 2030.08,1175.48C2029.59,1175.48 2029.14,1175.69 2028.72,1176.11C2028.31,1176.52 2027.51,1177.11 2026.33,1177.88C2025.01,1178.78 2023.34,1179.51 2021.33,1180.06C2019.31,1180.62 2017.06,1180.9 2014.56,1180.9C2011.85,1180.9 2009.35,1180.52 2007.06,1179.75C2004.76,1178.99 2002.79,1177.79 2001.12,1176.16C1999.45,1174.53 1998.15,1172.46 1997.21,1169.96C1996.27,1167.46 1995.81,1164.47 1995.81,1161L1995.81,1126.21C1995.81,1125.52 1996.03,1124.94 1996.48,1124.49C1996.93,1124.04 1997.51,1123.81 1998.2,1123.81L2005.49,1123.81C2006.19,1123.81 2006.76,1124.04 2007.21,1124.49C2007.66,1124.94 2007.89,1125.52 2007.89,1126.21L2007.89,1158.92C2007.89,1162.74 2008.9,1165.46 2010.91,1167.1C2012.92,1168.73 2015.49,1169.54 2018.62,1169.54C2021.05,1169.54 2023.27,1168.99 2025.29,1167.88C2025.63,1167.67 2026.08,1167.34 2026.64,1166.89C2027.19,1166.44 2027.75,1165.85 2028.31,1165.12C2028.86,1164.39 2029.35,1163.57 2029.76,1162.67C2030.18,1161.77 2030.39,1160.79 2030.39,1159.75L2030.39,1126.21C2030.39,1125.52 2030.62,1124.94 2031.07,1124.49C2031.52,1124.04 2032.09,1123.81 2032.79,1123.81L2040.08,1123.81C2040.77,1123.81 2041.34,1124.04 2041.8,1124.49C2042.25,1124.94 2042.47,1125.52 2042.47,1126.21L2042.47,1177.15C2042.47,1177.84 2042.25,1178.41 2041.8,1178.87C2041.34,1179.32 2040.77,1179.54 2040.08,1179.54ZM2120.39,1155.48C2119.21,1155.48 2118.62,1156.07 2118.62,1157.25C2119.03,1159.47 2119.68,1161.38 2120.55,1162.98C2121.41,1164.58 2122.45,1165.9 2123.67,1166.94C2124.89,1167.98 2126.22,1168.76 2127.68,1169.28C2129.14,1169.8 2130.63,1170.06 2132.16,1170.06C2134.03,1170.06 2135.58,1169.8 2136.8,1169.28C2138.01,1168.76 2139.02,1168.17 2139.82,1167.51C2140.62,1166.85 2141.27,1166.26 2141.8,1165.74C2142.32,1165.22 2142.85,1164.96 2143.41,1164.96C2143.69,1164.96 2144.02,1165.1 2144.4,1165.38C2144.78,1165.65 2145.67,1166.42 2147.05,1167.67C2148.44,1168.85 2149.3,1169.61 2149.61,1169.96C2149.92,1170.31 2150.08,1170.65 2150.08,1171C2150.08,1171.49 2149.68,1172.29 2148.88,1173.4C2148.08,1174.51 2146.9,1175.62 2145.34,1176.73C2143.77,1177.84 2141.83,1178.81 2139.5,1179.65C2137.18,1180.48 2134.52,1180.9 2131.53,1180.9C2128.2,1180.9 2125.06,1180.27 2122.11,1179.02C2119.16,1177.77 2116.57,1175.91 2114.35,1173.45C2112.12,1170.98 2110.37,1167.91 2109.09,1164.23C2107.8,1160.55 2107.16,1156.25 2107.16,1151.31C2107.16,1146.73 2107.73,1142.65 2108.88,1139.08C2110.02,1135.5 2111.66,1132.48 2113.77,1130.01C2115.89,1127.55 2118.41,1125.67 2121.33,1124.39C2124.24,1123.1 2127.47,1122.46 2131.01,1122.46C2134.55,1122.46 2137.78,1123.1 2140.7,1124.39C2143.62,1125.67 2146.12,1127.56 2148.2,1130.06C2150.28,1132.56 2151.9,1135.62 2153.05,1139.23C2154.19,1142.84 2154.76,1146.94 2154.76,1151.52C2154.76,1154.16 2154.07,1155.48 2152.68,1155.48L2120.39,1155.48ZM1836.85,1155.48C1835.67,1155.48 1835.08,1156.07 1835.08,1157.25C1835.49,1159.47 1836.13,1161.38 1837,1162.98C1837.87,1164.58 1838.91,1165.9 1840.13,1166.94C1841.34,1167.98 1842.68,1168.76 1844.14,1169.28C1845.6,1169.8 1847.09,1170.06 1848.62,1170.06C1850.49,1170.06 1852.04,1169.8 1853.25,1169.28C1854.47,1168.76 1855.48,1168.17 1856.27,1167.51C1857.07,1166.85 1857.73,1166.26 1858.25,1165.74C1858.77,1165.22 1859.31,1164.96 1859.87,1164.96C1860.15,1164.96 1860.48,1165.1 1860.86,1165.38C1861.24,1165.65 1862.12,1166.42 1863.51,1167.67C1864.9,1168.85 1865.75,1169.61 1866.07,1169.96C1866.38,1170.31 1866.54,1170.65 1866.54,1171C1866.54,1171.49 1866.13,1172.29 1865.34,1173.4C1864.54,1174.51 1863.36,1175.62 1861.8,1176.73C1860.23,1177.84 1858.29,1178.81 1855.96,1179.65C1853.63,1180.48 1850.98,1180.9 1847.99,1180.9C1844.66,1180.9 1841.52,1180.27 1838.57,1179.02C1835.62,1177.77 1833.03,1175.91 1830.81,1173.45C1828.58,1170.98 1826.83,1167.91 1825.55,1164.23C1824.26,1160.55 1823.62,1156.25 1823.62,1151.31C1823.62,1146.73 1824.19,1142.65 1825.34,1139.08C1826.48,1135.5 1828.12,1132.48 1830.23,1130.01C1832.35,1127.55 1834.87,1125.67 1837.79,1124.39C1840.7,1123.1 1843.93,1122.46 1847.47,1122.46C1851.01,1122.46 1854.24,1123.1 1857.16,1124.39C1860.08,1125.67 1862.58,1127.56 1864.66,1130.06C1866.74,1132.56 1868.36,1135.62 1869.5,1139.23C1870.65,1142.84 1871.22,1146.94 1871.22,1151.52C1871.22,1154.16 1870.53,1155.48 1869.14,1155.48L1836.85,1155.48ZM1970.18,1133.61C1969.49,1133.61 1968.91,1133.83 1968.46,1134.28C1968.01,1134.73 1967.79,1135.31 1967.79,1136L1967.79,1162.67C1967.79,1166.49 1969.76,1168.4 1973.72,1168.4C1975.11,1168.4 1976.21,1168.24 1977,1167.93C1977.8,1167.62 1978.55,1167.46 1979.24,1167.46C1980.22,1167.46 1980.7,1167.88 1980.7,1168.71C1980.7,1168.92 1980.67,1169.27 1980.6,1169.75C1980.53,1170.24 1980.44,1170.74 1980.34,1171.26C1980.23,1171.78 1980.13,1172.3 1980.02,1172.83C1979.92,1173.35 1979.83,1173.71 1979.76,1173.92C1979.62,1174.68 1979.38,1175.39 1979.04,1176.05C1978.69,1176.71 1978.13,1177.29 1977.37,1177.77C1976.4,1178.4 1975.13,1178.94 1973.57,1179.39C1972,1179.84 1970.39,1180.06 1968.72,1180.06C1966.92,1180.06 1965.23,1179.77 1963.67,1179.18C1962.11,1178.59 1960.75,1177.69 1959.61,1176.47C1958.46,1175.26 1957.54,1173.73 1956.85,1171.89C1956.15,1170.05 1955.81,1167.91 1955.81,1165.48L1955.81,1136C1955.81,1135.31 1955.58,1134.73 1955.13,1134.28C1954.68,1133.83 1954.1,1133.61 1953.41,1133.61L1951.74,1133.61C1951.05,1133.61 1950.48,1133.38 1950.02,1132.93C1949.57,1132.48 1949.35,1131.9 1949.35,1131.21L1949.35,1126.21C1949.35,1125.52 1949.57,1124.94 1950.02,1124.49C1950.48,1124.04 1951.05,1123.81 1951.74,1123.81L1953.41,1123.81C1954.1,1123.81 1954.68,1123.59 1955.13,1123.14C1955.58,1122.69 1955.81,1122.11 1955.81,1121.42L1955.81,1110.69C1955.81,1110.27 1955.96,1109.84 1956.27,1109.39C1956.59,1108.94 1956.99,1108.64 1957.47,1108.5C1959.35,1107.88 1960.81,1107.37 1961.85,1106.99C1962.89,1106.61 1963.67,1106.35 1964.19,1106.21C1964.71,1106.07 1965.04,1105.98 1965.18,1105.95C1965.32,1105.91 1965.42,1105.9 1965.49,1105.9C1966.12,1105.9 1966.66,1106.11 1967.11,1106.52C1967.56,1106.94 1967.79,1107.53 1967.79,1108.29L1967.79,1121.42C1967.79,1122.11 1968.01,1122.69 1968.46,1123.14C1968.91,1123.59 1969.49,1123.81 1970.18,1123.81L1978.72,1123.81C1979.42,1123.81 1979.99,1124.04 1980.44,1124.49C1980.89,1124.94 1981.12,1125.52 1981.12,1126.21L1981.12,1131.21C1981.12,1131.9 1980.89,1132.48 1980.44,1132.93C1979.99,1133.38 1979.42,1133.61 1978.72,1133.61L1970.18,1133.61ZM1792.16,1179.54L1781.74,1179.54C1781.33,1179.54 1780.88,1179.39 1780.39,1179.08C1779.9,1178.76 1779.59,1178.4 1779.45,1177.98L1754.24,1110.69C1754.1,1110.48 1754.04,1110.13 1754.04,1109.65C1754.04,1109.09 1754.24,1108.59 1754.66,1108.14C1755.08,1107.69 1755.67,1107.46 1756.43,1107.46L1765.29,1107.46C1765.7,1107.46 1766.13,1107.62 1766.59,1107.93C1767.04,1108.24 1767.33,1108.61 1767.47,1109.02L1784.66,1157.15C1785.08,1158.26 1785.84,1158.81 1786.95,1158.81C1788.06,1158.81 1788.83,1158.26 1789.24,1157.15L1806.33,1109.02C1806.47,1108.61 1806.76,1108.24 1807.21,1107.93C1807.66,1107.62 1808.1,1107.46 1808.51,1107.46L1817.47,1107.46C1818.17,1107.46 1818.74,1107.69 1819.19,1108.14C1819.64,1108.59 1819.87,1109.09 1819.87,1109.65C1819.87,1109.92 1819.8,1110.27 1819.66,1110.69L1794.45,1177.98C1794.31,1178.4 1794,1178.76 1793.51,1179.08C1793.03,1179.39 1792.58,1179.54 1792.16,1179.54ZM2071.95,1179.54L2064.66,1179.54C2063.97,1179.54 2063.39,1179.32 2062.94,1178.87C2062.49,1178.41 2062.26,1177.84 2062.26,1177.15L2062.26,1126.21C2062.26,1125.52 2062.49,1124.94 2062.94,1124.49C2063.39,1124.04 2063.97,1123.81 2064.66,1123.81L2071.22,1123.81C2071.92,1123.81 2072.49,1124.04 2072.94,1124.49C2073.39,1124.94 2073.62,1125.52 2073.62,1126.21C2073.62,1127.32 2073.97,1127.88 2074.66,1127.88C2075.22,1127.88 2075.72,1127.6 2076.17,1127.04C2076.62,1126.49 2077.12,1126.04 2077.68,1125.69C2080.67,1123.54 2084.21,1122.46 2088.3,1122.46C2089.76,1122.46 2091.2,1122.63 2092.63,1122.98C2094.05,1123.33 2095.25,1123.78 2096.22,1124.34C2097.05,1124.89 2097.47,1125.65 2097.47,1126.63C2097.47,1126.9 2097.39,1127.29 2097.21,1127.77C2097.04,1128.26 2096.53,1129.4 2095.7,1131.21C2094.87,1133.02 2094.23,1134.14 2093.77,1134.6C2093.32,1135.05 2092.92,1135.27 2092.58,1135.27C2092.09,1135.27 2091.38,1135.03 2090.44,1134.54C2089.5,1134.06 2088.03,1133.81 2086.01,1133.81C2083.58,1133.81 2081.4,1134.37 2079.45,1135.48C2079.1,1135.69 2078.65,1136.05 2078.1,1136.58C2077.54,1137.1 2076.99,1137.72 2076.43,1138.45C2075.88,1139.18 2075.39,1140 2074.97,1140.9C2074.55,1141.8 2074.35,1142.77 2074.35,1143.81L2074.35,1177.15C2074.35,1177.84 2074.12,1178.41 2073.67,1178.87C2073.22,1179.32 2072.65,1179.54 2071.95,1179.54ZM1897.68,1179.54L1890.39,1179.54C1889.69,1179.54 1889.12,1179.32 1888.67,1178.87C1888.22,1178.41 1887.99,1177.84 1887.99,1177.15L1887.99,1126.21C1887.99,1125.52 1888.22,1124.94 1888.67,1124.49C1889.12,1124.04 1889.69,1123.81 1890.39,1123.81L1896.95,1123.81C1897.65,1123.81 1898.22,1124.04 1898.67,1124.49C1899.12,1124.94 1899.35,1125.52 1899.35,1126.21C1899.35,1126.9 1899.47,1127.37 1899.71,1127.62C1899.95,1127.86 1900.25,1127.98 1900.6,1127.98C1901.08,1127.98 1901.5,1127.79 1901.85,1127.41C1902.19,1127.03 1902.61,1126.66 1903.1,1126.31C1906.57,1123.75 1910.84,1122.46 1915.91,1122.46C1922.02,1122.46 1926.67,1124.25 1929.87,1127.83C1933.06,1131.4 1934.66,1136.87 1934.66,1144.23L1934.66,1177.15C1934.66,1177.84 1934.43,1178.41 1933.98,1178.87C1933.53,1179.32 1932.96,1179.54 1932.26,1179.54L1924.97,1179.54C1924.28,1179.54 1923.7,1179.32 1923.25,1178.87C1922.8,1178.41 1922.58,1177.84 1922.58,1177.15L1922.58,1145.59C1922.58,1141.14 1921.6,1138.07 1919.66,1136.37C1917.72,1134.66 1915.15,1133.81 1911.95,1133.81C1909.45,1133.81 1907.23,1134.37 1905.29,1135.48C1904.87,1135.69 1904.37,1136.05 1903.77,1136.58C1903.18,1137.1 1902.61,1137.67 1902.06,1138.29C1901.5,1138.92 1901.03,1139.61 1900.65,1140.38C1900.27,1141.14 1900.08,1141.87 1900.08,1142.56L1900.08,1177.15C1900.08,1177.84 1899.85,1178.41 1899.4,1178.87C1898.95,1179.32 1898.38,1179.54 1897.68,1179.54ZM2130.91,1133.29C2129.38,1133.29 2127.91,1133.59 2126.48,1134.18C2125.06,1134.77 2123.79,1135.57 2122.68,1136.58C2121.57,1137.58 2120.68,1138.73 2120.02,1140.01C2119.37,1141.3 2119.03,1142.67 2119.03,1144.13C2119.03,1145.03 2119.19,1145.69 2119.5,1146.11C2119.82,1146.52 2120.39,1146.73 2121.22,1146.73L2140.7,1146.73C2142.09,1146.73 2142.78,1145.86 2142.78,1144.13C2142.78,1142.88 2142.47,1141.61 2141.85,1140.33C2141.22,1139.04 2140.37,1137.88 2139.3,1136.84C2138.22,1135.79 2136.97,1134.94 2135.55,1134.28C2134.12,1133.62 2132.58,1133.29 2130.91,1133.29ZM1847.37,1133.29C1845.84,1133.29 1844.37,1133.59 1842.94,1134.18C1841.52,1134.77 1840.25,1135.57 1839.14,1136.58C1838.03,1137.58 1837.14,1138.73 1836.48,1140.01C1835.82,1141.3 1835.49,1142.67 1835.49,1144.13C1835.49,1145.03 1835.65,1145.69 1835.96,1146.11C1836.27,1146.52 1836.85,1146.73 1837.68,1146.73L1857.16,1146.73C1858.55,1146.73 1859.24,1145.86 1859.24,1144.13C1859.24,1142.88 1858.93,1141.61 1858.31,1140.33C1857.68,1139.04 1856.83,1137.88 1855.75,1136.84C1854.68,1135.79 1853.43,1134.94 1852,1134.28C1850.58,1133.62 1849.04,1133.29 1847.37,1133.29Z" style="fill:rgb(34,30,27);fill-rule:nonzero;"/>
            </g>
            <g id="Brandmark" transform="matrix(1,0,0,1,-1041.51,-753.311)">
                <path d="M1379.82,1153.42C1384.04,1161.06 1388.14,1168.76 1392.13,1176.54C1392.13,1176.54 1392.55,1177.46 1392.57,1178.27C1392.61,1180.31 1390.89,1182.1 1388.81,1182.3C1363.49,1183.57 1338.02,1183.69 1312.53,1182.66L1363.06,1172.93C1364.48,1172.6 1364.89,1172.17 1365.51,1171.45L1379.54,1153.83C1379.64,1153.69 1379.73,1153.55 1379.82,1153.42ZM1301.55,1176.74C1301.81,1175.9 1302.19,1175.05 1302.61,1174.24C1315.09,1150.08 1328.72,1126.56 1343.45,1103.75C1343.45,1103.75 1344.65,1101.84 1347.14,1101.95C1349.26,1102.25 1350.46,1104.31 1351.51,1105.93C1360.19,1119.46 1368.45,1133.19 1376.32,1147.15C1376.1,1147.15 1375.94,1147.16 1375.94,1147.16L1338.29,1150.58C1337.54,1150.67 1336.85,1150.94 1336.23,1151.36L1301.55,1176.74Z" style="fill:rgb(179,157,100);fill-rule:nonzero;"/>
            </g>
        </g>
    </g>
</svg>
