<svg width="3000" height="293" viewBox="0 0 3000 293" fill="none" xmlns="http://www.w3.org/2000/svg">
<path d="M0 44.7484C49.9715 45.3642 100.785 43.5729 150.672 44.6365C180.094 45.2523 187.533 23.7278 207.887 37.0791C228.24 50.4305 255.304 56.3644 277.005 38.7026C284.276 31.593 294.439 22.1043 305.415 22.5522C332.479 20.7608 334.865 54.0132 357.605 59.3874C377.958 64.2017 392.837 62.9701 396.403 48.3592C399.968 33.7483 388.346 34.9239 396.571 16.7022C407.408 0.999683 425.796 -0.959634 439.244 11.72C448.368 20.3409 436.97 34.1961 443.483 43.8807C453.421 58.3797 471.921 58.3517 483.881 46.4559C491.068 38.6186 487.418 28.9899 500.697 22.3283C522.089 11.608 536.772 31.2851 553.476 41.1657C602.83 62.7742 615.098 25.2113 654.458 23.5878C666.81 23.8677 672.172 28.85 682.503 44.5245C717.568 97.762 741.964 4.35851 780.762 41.1377C821.834 70.7514 844.967 -2.69503 869.223 34.504C879.863 48.6671 888.397 69.1559 904.034 60.283C911.951 55.8046 923.433 34.532 938.004 31.733C959.48 27.6184 977.475 46.3999 999.092 46.12C1018.15 45.4762 1037.55 33.4964 1055.97 36.0715C1098.05 47.5755 1112.88 53.9852 1138.17 30.0536C1155.15 13.9592 1175.45 59.2474 1201.31 46.9317C1220.17 37.9468 1228.57 15.3587 1245.24 27.9543C1256.47 36.4353 1278.48 83.7109 1306.5 30.5574C1326.18 -6.78161 1366.1 45.6721 1397.49 38.8985C1413.55 36.1834 1434.24 20.8168 1447.88 30.2775C1468.35 44.4685 1489.37 56.6443 1520.96 31.817C1549.65 9.2848 1609.9 18.3256 1630.7 34.1681C1654.7 52.4458 1670.73 19.9771 1690.38 28.0383C1745.07 54.9089 1743.69 -0.0919389 1789.15 23.2799C1801.11 29.4378 1813.54 40.186 1827.47 41.4456C1852.57 43.265 1854.08 12.1398 1874.07 3.7427C1910.85 -11.7079 1902.93 39.9061 1922.58 59.0515C1937.12 73.7743 1980.47 56.3364 1964.33 36.7992C1942.6 7.43744 2002.2 -18.1736 2010.79 17.1501C2019.38 52.4738 2055.68 33.1325 2074.32 22.0763C2101.81 10.5444 2131.09 27.2825 2158.32 32.1528C2172.55 34.672 2189.28 31.0612 2199.5 20.4529C2210.37 10.0125 2231.82 8.08122 2241.84 17.8778C2257.9 33.5803 2246.05 50.1506 2275.92 48.947C2305.34 46.7637 2280.21 2.34321 2320.64 9.70465C2344 13.9592 2355.9 38.9265 2379.88 40.214C2396.69 39.9061 2411.4 29.1579 2426.93 24.6794C2451.02 18.6335 2469.83 39.7662 2492.87 42.2853C2511.12 44.1886 2525.19 21.1807 2541.05 29.6617C2572.66 46.5958 2598.88 41.2777 2630.21 39.5143L3000 39.5143V292.509L3.80461e-05 292.509L0 44.7484Z" fill="#6C8492"/>
</svg>
