<svg width="1440" height="33" viewBox="0 0 1440 33" fill="none" xmlns="http://www.w3.org/2000/svg">
<path d="M1513 22.547C1488.98 22.8435 1374.56 21.9809 1350.58 22.4931C1336.43 22.7896 1332.86 12.4252 1323.08 18.8541C1313.29 25.283 1300.28 28.1402 1289.85 19.6358C1286.36 16.2125 1281.47 11.6435 1276.2 11.8592C1263.19 10.9966 1262.04 27.0081 1251.11 29.5958C1241.33 31.914 1234.18 31.321 1232.46 24.2856C1230.75 17.2503 1236.34 17.8163 1232.38 9.04235C1227.17 1.48136 1218.33 0.537923 1211.87 6.64332C1207.48 10.7944 1212.96 17.4659 1209.83 22.1292C1205.06 29.1106 1196.16 29.0972 1190.41 23.3691C1186.96 19.5954 1188.71 14.9591 1182.33 11.7514C1172.05 6.58941 1164.99 16.0642 1156.96 20.8218C1133.24 31.2266 1127.34 13.1396 1108.42 12.3579C1102.49 12.4926 1099.91 14.8917 1094.94 22.4392C1078.09 48.0737 1066.36 3.09868 1047.71 20.8084C1027.97 35.0678 1016.85 -0.297693 1005.19 17.6142C1000.08 24.4339 995.977 34.2995 988.461 30.0271C984.656 27.8707 979.136 17.6276 972.133 16.2799C961.81 14.2986 953.16 23.3422 942.77 23.2074C933.607 22.8974 924.283 17.129 915.43 18.3689C895.203 23.9082 888.078 26.9946 875.92 15.4712C867.756 7.72153 857.999 29.5284 845.571 23.5983C836.503 19.2719 832.468 8.39542 824.453 14.4604C819.055 18.5441 808.476 41.3079 795.009 15.7138C785.549 -2.26544 766.36 22.9918 751.274 19.7302C743.555 18.4228 733.61 11.0236 727.052 15.579C717.215 22.4122 707.108 28.275 691.927 16.3203C678.136 5.47076 649.177 9.82405 639.178 17.4524C627.64 26.2534 619.935 10.6192 610.489 14.5008C584.203 27.4394 584.864 0.95573 563.017 12.2096C557.268 15.1747 551.29 20.3501 544.597 20.9566C532.534 21.8327 531.805 6.84549 522.197 2.80219C504.52 -4.6375 508.325 20.2154 498.879 29.4341C491.889 36.5234 471.054 28.1268 478.813 18.7193C489.258 4.58123 460.61 -7.75086 456.48 9.25799C452.351 26.2668 434.903 16.9538 425.943 11.6301C412.732 6.07725 398.658 14.1369 385.569 16.482C378.727 17.695 370.685 15.9564 365.773 10.8484C360.55 5.82118 350.241 4.89122 345.423 9.60841C337.705 17.1694 343.399 25.1482 329.042 24.5686C314.9 23.5174 326.977 2.12829 307.545 5.67292C296.318 7.72153 290.597 19.7436 279.073 20.3636C270.99 20.2154 263.919 15.0399 256.456 12.8835C244.878 9.97231 235.837 20.148 224.759 21.361C215.987 22.2774 209.227 11.1988 201.603 15.2825C186.408 23.4365 173.805 20.8758 158.745 20.0267H-19" stroke="#3D5E71"/>
</svg>
