<svg width="1440" height="24" viewBox="0 0 1440 24" fill="none" xmlns="http://www.w3.org/2000/svg">
<path d="M-27 16.2532C-10.0323 16.4631 284.461 15.8524 301.4 16.215C311.39 16.4249 313.916 9.08793 320.827 13.6389C327.738 18.19 336.927 20.2126 344.296 14.1923C346.765 11.7689 350.216 8.53455 353.943 8.6872C363.132 8.07658 363.942 19.4112 371.663 21.2431C378.575 22.8841 383.627 22.4643 384.837 17.4839C386.048 12.5036 382.101 12.9043 384.894 6.69315C388.574 1.34069 394.818 0.67282 399.384 4.99486C402.482 7.93346 398.612 12.6562 400.823 15.9574C404.198 20.8996 410.48 20.89 414.54 16.8351C416.981 14.1637 415.741 10.8816 420.25 8.61086C427.514 4.95669 432.499 11.664 438.171 15.0319C454.929 22.3975 459.095 9.59357 472.459 9.0402C476.654 9.13561 478.474 10.8339 481.982 16.1768C493.888 34.3236 502.172 2.48558 515.346 15.0223C529.292 25.1166 537.146 0.0812582 545.382 12.7611C548.995 17.5889 551.893 24.5728 557.203 21.5483C559.891 20.0218 563.79 12.7707 568.737 11.8166C576.029 10.4141 582.139 16.816 589.479 16.7206C595.952 16.5012 602.539 12.4177 608.792 13.2954C623.081 17.2167 628.114 19.4016 636.703 11.2441C642.47 5.75809 649.362 21.1953 658.141 16.9973C664.547 13.9347 667.397 6.23513 673.06 10.5285C676.873 13.4194 684.346 29.5341 693.859 11.4158C700.542 -1.31175 714.097 16.5679 724.754 14.259C730.207 13.3336 737.232 8.0956 741.865 11.3204C748.814 16.1577 755.954 20.308 766.678 11.8452C776.42 4.16473 796.876 7.24645 803.94 12.6466C812.09 18.8768 817.533 7.80936 824.206 10.5571C842.775 19.7164 842.308 0.968509 857.741 8.93518C861.802 11.0342 866.025 14.6979 870.753 15.1272C879.275 15.7474 879.789 5.1379 886.576 2.27562C899.064 -2.99097 896.376 14.6025 903.048 21.1285C907.986 26.147 922.704 20.203 917.223 13.5434C909.845 3.53501 930.082 -5.19494 932.999 6.8457C935.916 18.8864 948.242 12.2936 954.571 8.5249C963.903 4.59404 973.846 10.2995 983.092 11.9596C987.925 12.8183 993.607 11.5875 997.076 7.97152C1000.77 4.41276 1008.05 3.75443 1011.45 7.09375C1016.9 12.4462 1012.88 18.0944 1023.02 17.6842C1033.01 16.94 1024.48 1.79854 1038.21 4.3078C1046.14 5.75802 1050.18 14.2685 1058.32 14.7074C1064.03 14.6025 1069.03 10.9387 1074.3 9.41219C1082.48 7.35135 1088.86 14.5547 1096.69 15.4134C1102.89 16.0622 1107.66 8.21957 1113.05 11.1105C1123.78 16.8827 1132.68 15.0699 1143.32 14.4689L1466.45 14.4688" stroke="#EBE8CC"/>
</svg>
