<svg width="238" height="47" viewBox="0 0 238 47" fill="none" xmlns="http://www.w3.org/2000/svg">
<path d="M69.9024 25.5164C69.8965 26.5163 69.6032 27.3855 69.0265 28.1218C68.4536 28.8542 67.6702 29.4195 66.6741 29.8219C65.684 30.2183 64.5541 30.4154 63.2824 30.4154C61.182 30.4154 59.5384 29.9768 58.3514 29.0976C57.1703 28.2204 56.5108 27.0616 56.373 25.6231H61.2765C61.3415 26.0677 61.5561 26.4117 61.9202 26.6572C62.2903 26.8946 62.7549 27.0133 63.3159 27.0133C63.7686 27.0133 64.1426 26.9348 64.434 26.7759C64.7332 26.6169 64.8848 26.3916 64.8907 26.0999C64.8848 25.8323 64.7529 25.619 64.497 25.4601C64.247 25.3012 63.8533 25.1744 63.3159 25.0758L60.8828 24.6372C59.4813 24.3878 58.4321 23.9109 57.7333 23.2108C57.0345 22.5106 56.69 21.6073 56.6959 20.5048C56.69 19.529 56.94 18.7041 57.4478 18.0261C57.9616 17.3441 58.6919 16.825 59.6407 16.4709C60.5954 16.1108 61.7254 15.9317 63.0324 15.9317C65.0186 15.9317 66.5855 16.3522 67.7292 17.1932C68.8808 18.0342 69.4851 19.1991 69.5461 20.6859H65.0009C64.9773 20.4002 64.8789 20.1527 64.7056 19.9455C64.5324 19.7382 64.308 19.5793 64.0344 19.4707C63.7667 19.354 63.4675 19.2976 63.1387 19.2976C62.7155 19.2976 62.3513 19.3761 62.0462 19.535C61.7411 19.694 61.5935 19.9193 61.5994 20.211C61.5935 20.4183 61.6801 20.6094 61.8592 20.7864C62.0442 20.9635 62.3986 21.1003 62.9242 21.1989L65.7155 21.7119C67.1229 21.9735 68.1702 22.4161 68.8552 23.0378C69.5481 23.6534 69.8965 24.4803 69.9024 25.5164ZM80.9043 24.0176C80.9102 24.4803 80.8295 24.8807 80.6622 25.2146C80.5007 25.5446 80.2685 25.8001 79.9633 25.9832C79.6661 26.1602 79.3098 26.2488 78.8984 26.2488C78.2783 26.2488 77.7941 26.0516 77.4496 25.6553C77.109 25.2589 76.9358 24.7137 76.9299 24.0176V16.1148H71.991V25.0778C71.9969 26.1019 72.1977 27.0113 72.5914 27.804C72.991 28.5967 73.5481 29.2183 74.2646 29.669C74.987 30.1197 75.8276 30.345 76.7882 30.345C77.8138 30.345 78.6996 30.0955 79.4456 29.5946C80.1917 29.0876 80.7133 28.3874 81.0106 27.4921H81.1543V30.1619H85.8432V16.1148H80.9043V24.0176ZM101.821 19.0059C102.341 20.0662 102.599 21.4443 102.599 23.1404C102.599 24.8364 102.351 26.1059 101.857 27.1742C101.369 28.2405 100.711 29.0373 99.8883 29.5604C99.0714 30.0855 98.1738 30.347 97.1954 30.347C96.5517 30.347 95.975 30.2404 95.4691 30.0271C94.9671 29.8078 94.538 29.5121 94.1797 29.1399C93.8274 28.7616 93.5557 28.3351 93.3648 27.8603H93.2939V35.4331H88.355V16.1148H93.2585V18.5653H93.3667C93.5459 18.0905 93.8077 17.6539 94.1541 17.2576C94.5006 16.8552 94.9297 16.5353 95.4415 16.2979C95.9553 16.0544 96.5517 15.9317 97.2309 15.9317C98.1383 15.9317 99.0005 16.1792 99.8175 16.6721C100.64 17.165 101.31 17.9436 101.821 19.0039V19.0059ZM97.5183 23.1404C97.5183 22.4463 97.4317 21.8507 97.2584 21.3578C97.0911 20.8589 96.847 20.4766 96.5242 20.2151C96.2073 19.9475 95.8234 19.8127 95.3707 19.8127C94.9179 19.8127 94.5262 19.9475 94.1994 20.2151C93.8766 20.4766 93.6266 20.8589 93.4474 21.3578C93.2742 21.8507 93.1876 22.4463 93.1876 23.1404C93.1876 23.8345 93.2742 24.4139 93.4474 24.9149C93.6266 25.4078 93.8766 25.7921 94.1994 26.0677C94.5281 26.3353 94.9179 26.4701 95.3707 26.4701C95.8234 26.4701 96.2092 26.3393 96.5242 26.0778C96.847 25.8102 97.0911 25.4279 97.2584 24.935C97.4317 24.436 97.5183 23.8385 97.5183 23.1424V23.1404ZM117.894 20.1326C118.217 21.0218 118.376 22.0258 118.376 23.1404V24.3113H109.43V24.5306C109.43 24.9813 109.522 25.3836 109.707 25.7377C109.892 26.0918 110.158 26.3695 110.504 26.5707C110.851 26.7719 111.268 26.8725 111.756 26.8725C112.097 26.8725 112.406 26.8242 112.687 26.7256C112.973 26.629 113.219 26.4882 113.422 26.3051C113.624 26.116 113.774 25.8906 113.868 25.6291H118.378C118.223 26.6049 117.857 27.4519 117.278 28.1721C116.699 28.8864 115.933 29.4396 114.979 29.836C114.03 30.2263 112.92 30.4215 111.65 30.4215C110.182 30.4215 108.918 30.1358 107.857 29.5624C106.802 28.9829 105.987 28.154 105.414 27.0757C104.847 25.9912 104.563 24.6916 104.563 23.1806C104.563 21.6697 104.849 20.4605 105.422 19.3761C105.995 18.2917 106.802 17.4467 107.847 16.8431C108.89 16.2395 110.122 15.9378 111.542 15.9378C112.579 15.9378 113.52 16.1027 114.361 16.4307C115.201 16.7606 115.92 17.2395 116.516 17.8672C117.113 18.4889 117.571 19.2453 117.894 20.1346V20.1326ZM113.831 21.5309C113.825 21.1285 113.723 20.7744 113.526 20.4706C113.335 20.1587 113.075 19.9193 112.748 19.7483C112.426 19.5713 112.059 19.4827 111.648 19.4827C111.237 19.4827 110.882 19.5713 110.548 19.7483C110.213 19.9193 109.945 20.1567 109.743 20.4625C109.546 20.7683 109.441 21.1244 109.43 21.5329H113.831V21.5309ZM128.839 15.9337C128.105 15.9337 127.465 16.1631 126.916 16.6198C126.372 17.0765 125.977 17.7988 125.725 18.7866H125.581V16.1168H120.786V30.1619H125.725V22.8466C125.725 22.3095 125.835 21.8447 126.055 21.4484C126.276 21.046 126.577 20.7341 126.959 20.5148C127.347 20.2895 127.782 20.1768 128.266 20.1768C128.522 20.1768 128.829 20.199 129.187 20.2412C129.545 20.2835 129.847 20.3479 130.091 20.4324V16.1249C129.894 16.0645 129.687 16.0182 129.473 15.9881C129.264 15.9518 129.051 15.9337 128.837 15.9337H128.839ZM149.518 15.9337C148.498 15.9337 147.608 16.1953 146.85 16.7204C146.093 17.2395 145.598 17.9275 145.366 18.7866H145.222C145.079 17.9275 144.659 17.2374 143.961 16.7204C143.262 16.1953 142.431 15.9337 141.465 15.9337C140.498 15.9337 139.687 16.1892 138.994 16.7023C138.303 17.2153 137.813 17.9094 137.528 18.7866H137.384V16.1168H132.695V30.1619H137.634V21.9674C137.634 21.559 137.699 21.2089 137.831 20.9152C137.969 20.6174 138.16 20.3881 138.404 20.2291C138.648 20.0702 138.941 19.9917 139.282 19.9917C139.795 19.9917 140.203 20.1688 140.508 20.5229C140.813 20.8709 140.965 21.3518 140.965 21.9674V30.1619H145.689V21.9674C145.689 21.3518 145.835 20.8709 146.128 20.5229C146.427 20.1688 146.829 19.9917 147.337 19.9917C147.844 19.9917 148.258 20.1688 148.563 20.5229C148.868 20.8709 149.02 21.3518 149.02 21.9674V30.1619H153.959V20.6879C153.959 19.2494 153.547 18.0965 152.724 17.2314C151.907 16.3663 150.839 15.9337 149.522 15.9337H149.518ZM169.482 19.3902C170.049 20.4746 170.332 21.7381 170.332 23.1766C170.332 24.6151 170.049 25.8806 169.482 26.971C168.915 28.0555 168.1 28.9045 167.039 29.5141C165.978 30.1177 164.701 30.4194 163.21 30.4194C161.72 30.4194 160.443 30.1177 159.38 29.5141C158.319 28.9045 157.504 28.0575 156.937 26.971C156.37 25.8806 156.087 24.6151 156.087 23.1766C156.087 21.7381 156.37 20.4766 156.937 19.3902C157.504 18.2997 158.319 17.4507 159.38 16.8471C160.441 16.2375 161.718 15.9317 163.21 15.9317C164.703 15.9317 165.978 16.2375 167.039 16.8471C168.1 17.4507 168.915 18.2977 169.482 19.3902ZM165.285 23.1404C165.285 22.402 165.203 21.7723 165.035 21.2472C164.868 20.716 164.632 20.3076 164.329 20.0219C164.023 19.7362 163.663 19.5914 163.246 19.5914C162.805 19.5914 162.425 19.7342 162.11 20.0219C161.793 20.3076 161.553 20.716 161.386 21.2472C161.218 21.7723 161.136 22.402 161.136 23.1404C161.136 23.8787 161.218 24.5024 161.386 25.0336C161.553 25.5647 161.795 25.9731 162.11 26.2588C162.427 26.5445 162.805 26.6894 163.246 26.6894C163.663 26.6894 164.023 26.5465 164.329 26.2588C164.634 25.9731 164.868 25.5647 165.035 25.0336C165.203 24.5024 165.285 23.8727 165.285 23.1404ZM181.604 11.4331H186.543V30.1619H181.639V27.8583H181.531C181.34 28.3331 181.067 28.7596 180.708 29.1379C180.356 29.5101 179.927 29.8058 179.419 30.0251C178.917 30.2384 178.346 30.345 177.7 30.345C176.722 30.345 175.821 30.0835 174.998 29.5583C174.181 29.0332 173.525 28.2385 173.029 27.1722C172.541 26.1059 172.295 24.762 172.295 23.1384C172.295 21.5148 172.551 20.0662 173.065 19.0039C173.584 17.9436 174.252 17.165 175.069 16.6721C175.891 16.1792 176.758 15.9317 177.663 15.9317C178.342 15.9317 178.939 16.0544 179.452 16.2979C179.966 16.5353 180.395 16.8552 180.742 17.2576C181.088 17.6539 181.35 18.0905 181.529 18.5653H181.6V11.4331H181.604ZM181.712 23.1384C181.712 22.4443 181.622 21.8487 181.445 21.3558C181.271 20.8569 181.021 20.4746 180.693 20.2131C180.37 19.9455 179.982 19.8107 179.529 19.8107C179.076 19.8107 178.689 19.9455 178.366 20.2131C178.049 20.4746 177.805 20.8569 177.632 21.3558C177.464 21.8487 177.382 22.4443 177.382 23.1384C177.382 23.8325 177.464 24.43 177.632 24.931C177.805 25.4239 178.049 25.8061 178.366 26.0737C178.689 26.3353 179.076 26.4661 179.529 26.4661C179.982 26.4661 180.37 26.3313 180.693 26.0637C181.021 25.7901 181.271 25.4058 181.445 24.9108C181.624 24.4119 181.712 23.8204 181.712 23.1363V23.1384ZM197.881 24.0156C197.887 24.4783 197.807 24.8787 197.639 25.2126C197.478 25.5426 197.246 25.7981 196.94 25.9812C196.641 26.1582 196.287 26.2468 195.875 26.2468C195.255 26.2468 194.771 26.0496 194.427 25.6532C194.086 25.2569 193.913 24.7117 193.907 24.0156V16.1148H188.968V25.0778C188.974 26.1019 189.175 27.0113 189.568 27.804C189.968 28.5967 190.525 29.2183 191.242 29.669C191.964 30.1197 192.805 30.345 193.765 30.345C194.791 30.345 195.677 30.0955 196.423 29.5946C197.169 29.0876 197.69 28.3874 197.988 27.4921H198.131V30.1619H202.82V16.1148H197.881V24.0176V24.0156ZM205.332 30.1619H210.271V11.4331H205.332V30.1619ZM225.072 18.7303C225.363 19.2856 225.511 19.8891 225.511 20.541V30.1619H220.893V28.1862H220.787C220.513 28.7113 220.178 29.1338 219.785 29.4578C219.397 29.7817 218.952 30.015 218.452 30.1619C217.958 30.3088 217.411 30.3812 216.814 30.3812C215.938 30.3812 215.163 30.2343 214.487 29.9426C213.82 29.6449 213.295 29.1922 212.913 28.5886C212.531 27.985 212.34 27.2165 212.34 26.285C212.34 25.5164 212.468 24.8606 212.724 24.3194C212.98 23.7701 213.338 23.3235 213.799 22.9754C214.257 22.6273 214.791 22.3618 215.401 22.1807C216.015 21.9976 216.678 21.8789 217.387 21.8246C218.157 21.7642 218.775 21.6898 219.239 21.6053C219.71 21.5148 220.05 21.388 220.259 21.2311C220.468 21.0661 220.572 20.8508 220.572 20.5812V20.545C220.572 20.1789 220.434 19.8992 220.161 19.704C219.887 19.5089 219.535 19.4123 219.106 19.4123C218.635 19.4123 218.249 19.5189 217.952 19.7322C217.661 19.9394 217.484 20.2593 217.424 20.6919H212.879C212.938 19.8388 213.204 19.0522 213.676 18.3319C214.153 17.6056 214.848 17.0282 215.761 16.5936C216.674 16.155 217.812 15.9357 219.178 15.9357C220.163 15.9357 221.046 16.0544 221.826 16.2919C222.607 16.5232 223.273 16.8492 223.822 17.2696C224.371 17.6841 224.789 18.171 225.074 18.7323L225.072 18.7303ZM220.607 24.0156C220.476 24.0699 220.336 24.1222 220.186 24.1705C220.043 24.2188 219.887 24.265 219.722 24.3073C219.56 24.3495 219.387 24.3898 219.202 24.426C219.023 24.4622 218.836 24.4964 218.639 24.5266C218.257 24.5869 217.944 24.6875 217.7 24.8284C217.462 24.9632 217.283 25.1301 217.163 25.3313C217.048 25.5265 216.993 25.7458 216.993 25.9892C216.993 26.3795 217.127 26.6773 217.397 26.8845C217.665 27.0918 218.009 27.1964 218.426 27.1964C218.802 27.1964 219.155 27.1179 219.482 26.959C219.816 26.8 220.088 26.5727 220.296 26.2729C220.505 25.9751 220.609 25.611 220.609 25.1845V24.0135L220.607 24.0156ZM236.755 15.986C236.546 15.9498 236.334 15.9317 236.119 15.9317C235.385 15.9317 234.743 16.1611 234.196 16.6178C233.653 17.0745 233.257 17.7968 233.007 18.7846H232.863V16.1148H228.068V30.1619H233.007V22.8466C233.007 22.3095 233.117 21.8447 233.338 21.4484C233.558 21.046 233.859 20.7341 234.241 20.5148C234.629 20.2895 235.064 20.1768 235.548 20.1768C235.804 20.1768 236.111 20.199 236.47 20.2412C236.828 20.2835 237.129 20.3479 237.373 20.4324V16.1249C237.176 16.0645 236.97 16.0182 236.755 15.9881V15.986Z" fill="#031749"/>
<path fill-rule="evenodd" clip-rule="evenodd" d="M38.0519 20.0847C38.0519 24.9593 41.9913 28.8986 46.8658 28.8986V38.0521C36.9359 38.0521 28.8984 30.0146 28.8984 20.0847H38.0519Z" fill="#031749"/>
<path fill-rule="evenodd" clip-rule="evenodd" d="M28.8984 46.8658C28.8984 36.9359 36.9359 28.8984 46.8658 28.8984V38.0519C41.9913 38.0519 38.0519 41.9913 38.0519 46.8658H28.8984Z" fill="#031749"/>
<path fill-rule="evenodd" clip-rule="evenodd" d="M8.81387 26.7812C8.81387 21.9067 4.87453 17.9673 0 17.9673V8.81384C9.92986 8.81384 17.9673 16.8513 17.9673 26.7812H8.81387Z" fill="#031749"/>
<path fill-rule="evenodd" clip-rule="evenodd" d="M17.9673 0C17.9673 9.92986 9.92986 17.9673 0 17.9673V8.81387C4.87453 8.81387 8.81387 4.87453 8.81387 0H17.9673Z" fill="#031749"/>
<path fill-rule="evenodd" clip-rule="evenodd" d="M20.0845 8.81387C24.959 8.81387 28.8983 4.87453 28.8983 0H38.0518C38.0518 9.92986 30.0143 17.9673 20.0845 17.9673V8.81387Z" fill="#031749"/>
<path fill-rule="evenodd" clip-rule="evenodd" d="M46.8658 17.9673C36.9359 17.9673 28.8984 9.92986 28.8984 0H38.0519C38.0519 4.87453 41.9913 8.81387 46.8658 8.81387V17.9673Z" fill="#031749"/>
<path fill-rule="evenodd" clip-rule="evenodd" d="M26.7813 38.0519C21.9068 38.0519 17.9674 41.9913 17.9674 46.8658H8.81396C8.81396 36.9359 16.8515 28.8984 26.7813 28.8984V38.0519Z" fill="#031749"/>
<path fill-rule="evenodd" clip-rule="evenodd" d="M0 28.8984C9.92986 28.8984 17.9673 36.9359 17.9673 46.8658H8.81387C8.81387 41.9913 4.87453 38.0519 0 38.0519V28.8984Z" fill="#031749"/>
</svg>
