<svg width="1600" height="900" viewBox="0 0 1600 900" fill="none" xmlns="http://www.w3.org/2000/svg">
<rect width="1600" height="900" fill="white"/>
<path d="M588 340.293C588 339.682 588 339.084 588 338.473C588 317.846 590.942 297.91 596.401 279.049C596.467 280.099 596.546 281.161 596.586 282.25C596.931 289.423 598.587 296.064 599.833 303.196C604.656 329.003 613.772 351.012 628.215 371.851C635.41 381.826 643.413 389.968 652.742 397.605C658.32 401.829 665.263 406.425 672.325 404.286C676.062 398.269 670.828 391.788 670.524 385.519C660.427 361.77 653.484 338.314 649.972 311.989C646.381 283.884 649.562 256.789 657.671 229.919C666.84 199.583 682.727 172.354 703.742 149.084C714.184 143.745 725.115 139.242 736.458 135.683C732.92 138.605 729.475 141.66 726.136 144.914C695.726 173.762 673.704 209.398 665.899 251.967C659.195 289.556 663.262 327.516 680.978 360.774C681.495 362.102 681.535 362.992 682.038 364.32C696.269 390.114 716.953 410.662 740.631 427.928C747.575 432.537 754.081 437.598 757.579 445.062C758.559 446.815 758.215 449.073 757.407 450.906C754.518 455.98 748.767 457.614 743.454 458.756C739.876 458.929 737.239 459.951 733.662 460.124C729.62 459.872 725.155 460.084 721.114 459.832C704.895 457.919 691.234 453.191 677.016 446.244C633.449 424.063 604.285 386.01 588 340.28V340.293ZM620.662 300.912C622.835 303.674 623.418 307.327 627.486 307.128C631.13 306.543 631.713 301.602 631.978 298.733C634.363 263.443 639.69 230.052 654.53 199.078C658.969 189.063 664.19 179.527 670.1 170.522C644.897 190.126 624.227 215.309 609.93 244.211C609.93 260.893 612.434 277.774 617.893 294.51C618.821 296.914 619.324 298.946 620.649 300.925L620.662 300.912ZM958.018 245.499C952.784 248.447 954.493 255.992 957.382 260.348C976.383 292.199 992.23 323.757 996.709 361.252C999.24 383.061 997.994 404.698 993.476 425.471C1005.37 398.92 1012 369.474 1012 338.487C1012 310.913 1006.75 284.561 997.226 260.388C990.137 254.903 982.558 250.28 973.759 247C968.738 244.994 962.351 242.617 958.018 245.512V245.499ZM851.511 181.957C831.265 189.223 814.37 201.256 802.259 219.346C796.429 228.604 792.904 239.097 796.959 248.78C799.516 255.394 805.903 257.772 812.661 258.794C821.221 259.724 828.787 258.914 836.83 258.529C838.194 258.914 839.082 258.874 840.447 259.246C840.447 259.246 841.335 259.206 841.772 258.728C842.66 258.688 843.601 259.538 844.502 259.498C844.926 259.033 845.389 259.458 845.827 258.98C846.714 258.94 847.655 259.79 848.556 259.751C903.704 261.132 947.775 302.094 960.231 356.258C973.746 413.969 953.566 469.262 915.166 508.816C907.096 517.024 898.431 524.542 889.248 531.303C915.206 519.216 938.314 502.016 957.289 481.003C962.059 473.127 966.22 464.906 969.532 456.378C975.866 439.019 981.339 422.589 982.69 404.113C982.518 400.527 982.809 397.379 983.061 393.315C984.28 362.726 977.536 334.329 962.841 308.097C955.513 295.426 947.802 284.136 937.466 273.856C921.924 257.997 903.877 245.844 884.465 233.319C879.827 229.946 875.097 224.792 876.157 218.908C879.642 207.512 892.998 205.971 903.638 203.66C904.526 203.62 905.003 204.045 905.891 204.006C917.418 201.655 928.695 203.355 940.024 205.945C952.426 208.309 963.689 212.214 974.25 217.328C963.874 202.359 951.618 188.784 937.837 176.963C909.217 170.681 879.522 171.836 851.551 181.931L851.511 181.957ZM748.37 514.634C761.355 514.461 772.963 513.89 785.815 511.034C811.945 504.831 834.749 494.75 854.055 477.218C860.906 470.604 866.855 464.029 872.301 456.139C884.796 436.681 892.614 412.959 884.823 390.446C884.306 389.118 883.325 387.378 882.822 386.05C879.84 379.914 874.646 374.322 868.26 371.944C862.814 370.417 856.559 370.709 851.286 372.768C841.626 376.819 832.444 381.308 822.784 385.372C812.661 388.998 803.346 390.805 792.573 390.42C788.532 390.167 784.954 390.34 780.873 389.184C773.175 387.312 766.364 385.399 759.513 382.583C740.737 374.056 726.175 359.951 715.495 342.511C701.861 319.825 697.038 294.018 699.33 266.976C700.046 263.35 700.35 260.189 700.642 257.041C702.802 246.163 705.014 236.175 709.003 226.107C715.416 210.54 724.135 196.196 734.682 182.675C751.603 162.101 772.327 145.843 796.363 133.465C801.623 130.808 806.91 128.457 812.25 126.345C808.209 126.12 804.128 126 800.02 126C789.95 126 780.038 126.704 770.339 128.072C734.841 149.855 705.796 181.771 690.876 221.618C690.068 223.451 689.22 224.394 688.412 226.227C682.979 243.546 678.858 260.362 678.394 278.784C678.739 295.373 679.481 310.608 684.715 326.506C690.558 345.526 698.946 361.73 711.759 376.819C735.477 404.406 767.954 418.551 804.843 422.151C809.348 422.828 814.33 423.944 818.849 424.621C822.93 425.777 827.064 427.822 829.913 431.275C831.357 433.454 832.338 435.194 832.47 437.89C832.258 442.844 830.218 446.975 828.177 451.119C820.651 462.249 809.852 470.404 798.019 475.916C748.025 498.084 690.492 484.244 647.322 452.659C638.047 445.925 629.606 438.248 621.603 430.107C612.434 420.517 604.404 410.648 597.01 399.996C606.193 430.492 622.027 458.092 642.817 481.11C650.595 486.157 658.744 490.739 667.264 494.79C692.93 507.023 719.696 514.262 748.383 514.674L748.37 514.634ZM926.296 461.598C934.498 445.939 940.024 430.412 942.276 411.897C944.953 392.917 943.707 376.367 938.805 358.197C931.305 332.523 915.974 311.71 892.481 298.03C879.589 290.578 865.967 286.74 851.193 287.005C840.474 287.523 829.37 289.409 819.286 293.939C809.202 298.468 800.987 304.697 790.917 309.226C781.257 313.277 769.04 310.727 761.938 302.545C757.208 297.392 753.803 291.721 752.146 285.066C736.802 226.545 783.709 177.601 834.338 159.444C837.439 158.847 840.076 157.824 843.15 156.323C856.811 151.621 870.592 149.616 885.313 148.447C888.44 148.301 891.514 148.221 894.548 148.208C881.775 141.819 868.273 136.692 854.187 132.973C848.251 134.168 842.328 135.616 836.405 137.356C779.429 154.025 731.754 196.275 722.174 257.785C715.681 299.849 732.218 345.739 773.638 359.446C775.891 359.791 777.719 360.601 779.985 360.933C784.967 362.036 789.857 361.358 794.799 361.571C803.266 360.708 811.177 357.639 817.643 352.393C821.088 349.537 824.069 346.243 826.11 342.113C833.119 329.654 845.76 322.309 859.633 322.083C871.718 321.951 882.703 326.812 891.554 334.011C896.708 338.699 900.961 343.428 905.268 349.059C906.712 351.238 907.693 352.977 909.137 355.156C929.887 395.454 917.485 444.982 889.076 478.227C850.928 523.161 791.871 543.071 731.529 536.111C726.48 535.54 721.498 534.796 716.582 533.906C742.195 544.904 770.405 551 800.033 551C801.756 551 803.465 550.973 805.174 550.934C817.974 547.958 830.483 543.682 842.673 537.917C877.733 521.859 907.415 496.636 926.336 461.612L926.296 461.598Z" fill="black"/>
<path d="M370.377 655.267V747.937H348V655.267H370.377Z" fill="black"/>
<path d="M384.424 747.937V678.434H405.445V691.195H406.214C407.66 686.971 410.101 683.638 413.537 681.195C416.973 678.751 421.071 677.529 425.833 677.529C430.655 677.529 434.784 678.766 438.219 681.24C441.655 683.713 443.84 687.032 444.774 691.195H445.497C446.793 687.062 449.325 683.759 453.092 681.285C456.859 678.781 461.304 677.529 466.428 677.529C472.997 677.529 478.332 679.641 482.43 683.864C486.529 688.057 488.578 693.819 488.578 701.149V747.937H466.473V706.217C466.473 702.748 465.584 700.109 463.806 698.299C462.028 696.459 459.722 695.538 456.889 695.538C453.845 695.538 451.449 696.534 449.701 698.525C447.984 700.486 447.125 703.125 447.125 706.443V747.937H425.878V705.991C425.878 702.763 425.004 700.214 423.256 698.344C421.508 696.474 419.203 695.538 416.34 695.538C414.411 695.538 412.708 696.006 411.231 696.941C409.755 697.846 408.594 699.143 407.751 700.833C406.937 702.522 406.53 704.513 406.53 706.805V747.937H384.424Z" fill="black"/>
<path d="M502.276 774V678.434H524.155V690.335H524.833C525.737 688.223 527.018 686.187 528.676 684.226C530.363 682.265 532.503 680.667 535.095 679.43C537.717 678.163 540.851 677.529 544.498 677.529C549.32 677.529 553.825 678.796 558.014 681.33C562.233 683.864 565.639 687.771 568.231 693.05C570.822 698.329 572.118 705.056 572.118 713.231C572.118 721.104 570.868 727.695 568.366 733.005C565.895 738.314 562.55 742.296 558.331 744.95C554.142 747.605 549.485 748.932 544.362 748.932C540.866 748.932 537.837 748.359 535.276 747.213C532.714 746.066 530.559 744.558 528.811 742.688C527.094 740.817 525.767 738.811 524.833 736.67H524.381V774H502.276ZM523.929 713.186C523.929 716.926 524.426 720.184 525.421 722.959C526.446 725.735 527.907 727.891 529.806 729.43C531.735 730.938 534.04 731.692 536.722 731.692C539.435 731.692 541.74 730.938 543.639 729.43C545.537 727.891 546.969 725.735 547.933 722.959C548.928 720.184 549.425 716.926 549.425 713.186C549.425 709.445 548.928 706.202 547.933 703.457C546.969 700.712 545.537 698.585 543.639 697.077C541.77 695.569 539.465 694.814 536.722 694.814C534.01 694.814 531.704 695.554 529.806 697.032C527.907 698.51 526.446 700.621 525.421 703.367C524.426 706.112 523.929 709.385 523.929 713.186Z" fill="black"/>
<path d="M603.276 749.113C598.846 749.113 594.913 748.374 591.478 746.896C588.072 745.388 585.375 743.125 583.386 740.109C581.427 737.062 580.447 733.246 580.447 728.661C580.447 724.799 581.126 721.541 582.482 718.887C583.838 716.232 585.706 714.075 588.087 712.416C590.468 710.757 593.211 709.505 596.315 708.661C599.419 707.786 602.734 707.198 606.26 706.896C610.208 706.534 613.387 706.157 615.798 705.765C618.209 705.342 619.957 704.754 621.042 704C622.157 703.216 622.715 702.115 622.715 700.697V700.471C622.715 698.148 621.916 696.353 620.319 695.086C618.722 693.819 616.567 693.186 613.854 693.186C610.931 693.186 608.58 693.819 606.802 695.086C605.024 696.353 603.894 698.103 603.412 700.335L583.024 699.611C583.627 695.388 585.179 691.617 587.68 688.299C590.212 684.95 593.678 682.326 598.078 680.425C602.508 678.495 607.827 677.529 614.035 677.529C618.465 677.529 622.549 678.057 626.286 679.113C630.023 680.139 633.278 681.647 636.05 683.638C638.823 685.599 640.963 688.012 642.47 690.878C644.007 693.744 644.775 697.017 644.775 700.697V747.937H623.981V738.253H623.438C622.202 740.606 620.62 742.597 618.691 744.226C616.793 745.855 614.548 747.077 611.956 747.891C609.394 748.706 606.501 749.113 603.276 749.113ZM610.102 734.633C612.483 734.633 614.623 734.151 616.522 733.186C618.45 732.22 619.987 730.893 621.133 729.204C622.278 727.484 622.85 725.493 622.85 723.231V716.624C622.218 716.956 621.449 717.258 620.545 717.529C619.671 717.801 618.707 718.057 617.652 718.299C616.597 718.54 615.512 718.751 614.397 718.932C613.282 719.113 612.212 719.279 611.187 719.43C609.108 719.762 607.33 720.275 605.853 720.968C604.406 721.662 603.291 722.567 602.508 723.683C601.754 724.769 601.378 726.066 601.378 727.575C601.378 729.867 602.191 731.617 603.819 732.824C605.476 734.03 607.571 734.633 610.102 734.633Z" fill="black"/>
<path d="M690.704 749.249C683.381 749.249 677.097 747.741 671.853 744.724C666.64 741.707 662.631 737.514 659.829 732.145C657.026 726.745 655.624 720.501 655.624 713.412C655.624 706.293 657.026 700.048 659.829 694.679C662.661 689.279 666.685 685.071 671.899 682.054C677.142 679.038 683.396 677.529 690.659 677.529C697.078 677.529 702.668 678.691 707.43 681.014C712.222 683.336 715.959 686.624 718.641 690.878C721.353 695.101 722.785 700.063 722.936 705.765H702.277C701.855 702.205 700.649 699.415 698.66 697.394C696.701 695.373 694.14 694.362 690.975 694.362C688.414 694.362 686.168 695.086 684.24 696.534C682.311 697.952 680.804 700.063 679.719 702.869C678.664 705.644 678.137 709.083 678.137 713.186C678.137 717.288 678.664 720.757 679.719 723.593C680.804 726.398 682.311 728.525 684.24 729.973C686.168 731.391 688.414 732.1 690.975 732.1C693.025 732.1 694.833 731.662 696.4 730.787C697.997 729.913 699.308 728.63 700.333 726.941C701.358 725.222 702.005 723.14 702.277 720.697H722.936C722.725 726.428 721.293 731.436 718.641 735.719C716.019 740.003 712.327 743.336 707.566 745.719C702.834 748.072 697.214 749.249 690.704 749.249Z" fill="black"/>
<path d="M773.442 678.434V694.724H729.637V678.434H773.442ZM738.814 661.783H760.92V726.081C760.92 727.439 761.131 728.54 761.553 729.385C762.005 730.199 762.653 730.787 763.496 731.149C764.34 731.481 765.35 731.647 766.525 731.647C767.369 731.647 768.258 731.572 769.192 731.421C770.157 731.24 770.88 731.089 771.362 730.968L774.707 746.941C773.653 747.243 772.161 747.62 770.232 748.072C768.333 748.525 766.058 748.811 763.406 748.932C758.222 749.173 753.777 748.57 750.07 747.122C746.394 745.644 743.576 743.351 741.617 740.244C739.688 737.137 738.754 733.231 738.814 728.525V661.783Z" fill="black"/>
<path d="M862.113 683.05C861.811 679.732 860.47 677.152 858.089 675.312C855.739 673.442 852.378 672.507 848.008 672.507C845.115 672.507 842.704 672.884 840.776 673.638C838.847 674.392 837.4 675.433 836.436 676.76C835.471 678.057 834.974 679.551 834.944 681.24C834.884 682.627 835.155 683.849 835.758 684.905C836.391 685.961 837.295 686.896 838.47 687.71C839.676 688.495 841.122 689.189 842.81 689.792C844.497 690.395 846.396 690.923 848.506 691.376L856.462 693.186C861.043 694.181 865.081 695.508 868.577 697.167C872.103 698.827 875.056 700.802 877.437 703.095C879.848 705.388 881.672 708.027 882.907 711.014C884.143 714 884.776 717.348 884.806 721.059C884.776 726.911 883.299 731.934 880.376 736.127C877.452 740.32 873.248 743.532 867.763 745.765C862.309 747.997 855.724 749.113 848.008 749.113C840.263 749.113 833.513 747.952 827.756 745.629C822 743.306 817.525 739.777 814.33 735.041C811.136 730.305 809.493 724.317 809.403 717.077H830.83C831.011 720.063 831.81 722.552 833.226 724.543C834.643 726.534 836.586 728.042 839.058 729.068C841.559 730.094 844.452 730.606 847.737 730.606C850.751 730.606 853.313 730.199 855.422 729.385C857.562 728.57 859.204 727.439 860.35 725.991C861.495 724.543 862.082 722.884 862.113 721.014C862.082 719.264 861.54 717.771 860.485 716.534C859.43 715.267 857.803 714.181 855.603 713.276C853.433 712.341 850.66 711.481 847.285 710.697L837.611 708.434C829.595 706.594 823.281 703.623 818.67 699.52C814.059 695.388 811.769 689.807 811.799 682.778C811.769 677.047 813.306 672.024 816.41 667.71C819.514 663.397 823.808 660.033 829.293 657.62C834.778 655.207 841.032 654 848.054 654C855.226 654 861.45 655.222 866.724 657.665C872.028 660.078 876.141 663.472 879.065 667.846C881.988 672.22 883.48 677.288 883.54 683.05H862.113Z" fill="black"/>
<path d="M935.301 678.434V694.724H891.496V678.434H935.301ZM900.673 661.783H922.779V726.081C922.779 727.439 922.99 728.54 923.411 729.385C923.864 730.199 924.511 730.787 925.355 731.149C926.199 731.481 927.209 731.647 928.384 731.647C929.228 731.647 930.117 731.572 931.051 731.421C932.016 731.24 932.739 731.089 933.221 730.968L936.566 746.941C935.512 747.243 934.02 747.62 932.091 748.072C930.192 748.525 927.917 748.811 925.265 748.932C920.081 749.173 915.636 748.57 911.929 747.122C908.252 745.644 905.435 743.351 903.476 740.244C901.547 737.137 900.613 733.231 900.673 728.525V661.783Z" fill="black"/>
<path d="M946.579 747.937V678.434H968.052V691.104H968.775C970.041 686.519 972.106 683.11 974.969 680.878C977.832 678.615 981.162 677.484 984.959 677.484C985.984 677.484 987.038 677.56 988.123 677.71C989.208 677.831 990.218 678.027 991.152 678.299V697.529C990.097 697.167 988.711 696.881 986.993 696.67C985.306 696.459 983.799 696.353 982.473 696.353C979.851 696.353 977.485 696.941 975.375 698.118C973.296 699.264 971.653 700.878 970.448 702.959C969.273 705.011 968.685 707.424 968.685 710.199V747.937H946.579Z" fill="black"/>
<path d="M1029.01 749.249C1021.75 749.249 1015.48 747.816 1010.21 744.95C1004.96 742.054 1000.92 737.937 998.091 732.597C995.288 727.228 993.887 720.848 993.887 713.457C993.887 706.278 995.304 700.003 998.136 694.633C1000.97 689.234 1004.96 685.041 1010.12 682.054C1015.27 679.038 1021.34 677.529 1028.33 677.529C1033.28 677.529 1037.8 678.299 1041.9 679.837C1045.99 681.376 1049.54 683.653 1052.52 686.67C1055.5 689.686 1057.82 693.412 1059.48 697.846C1061.14 702.25 1061.97 707.303 1061.97 713.005V718.525H1001.62V705.674H1041.4C1041.37 703.321 1040.81 701.225 1039.73 699.385C1038.64 697.544 1037.15 696.112 1035.25 695.086C1033.38 694.03 1031.23 693.502 1028.79 693.502C1026.31 693.502 1024.1 694.06 1022.14 695.176C1020.18 696.262 1018.63 697.756 1017.48 699.656C1016.34 701.526 1015.74 703.653 1015.68 706.036V719.113C1015.68 721.949 1016.23 724.437 1017.35 726.579C1018.46 728.691 1020.05 730.335 1022.1 731.511C1024.14 732.688 1026.59 733.276 1029.42 733.276C1031.38 733.276 1033.16 733.005 1034.75 732.462C1036.35 731.919 1037.72 731.119 1038.87 730.063C1040.01 729.008 1040.87 727.71 1041.44 726.172L1061.74 726.76C1060.9 731.315 1059.04 735.282 1056.18 738.661C1053.35 742.009 1049.63 744.618 1045.01 746.489C1040.4 748.329 1035.07 749.249 1029.01 749.249Z" fill="black"/>
<path d="M1092.83 749.113C1088.4 749.113 1084.47 748.374 1081.03 746.896C1077.63 745.388 1074.93 743.125 1072.94 740.109C1070.98 737.062 1070 733.246 1070 728.661C1070 724.799 1070.68 721.541 1072.04 718.887C1073.39 716.232 1075.26 714.075 1077.64 712.416C1080.02 710.757 1082.77 709.505 1085.87 708.661C1088.97 707.786 1092.29 707.198 1095.81 706.896C1099.76 706.534 1102.94 706.157 1105.35 705.765C1107.76 705.342 1109.51 704.754 1110.6 704C1111.71 703.216 1112.27 702.115 1112.27 700.697V700.471C1112.27 698.148 1111.47 696.353 1109.87 695.086C1108.28 693.819 1106.12 693.186 1103.41 693.186C1100.49 693.186 1098.14 693.819 1096.36 695.086C1094.58 696.353 1093.45 698.103 1092.97 700.335L1072.58 699.611C1073.18 695.388 1074.73 691.617 1077.24 688.299C1079.77 684.95 1083.23 682.326 1087.63 680.425C1092.06 678.495 1097.38 677.529 1103.59 677.529C1108.02 677.529 1112.1 678.057 1115.84 679.113C1119.58 680.139 1122.83 681.647 1125.61 683.638C1128.38 685.599 1130.52 688.012 1132.02 690.878C1133.56 693.744 1134.33 697.017 1134.33 700.697V747.937H1113.54V738.253H1112.99C1111.76 740.606 1110.17 742.597 1108.25 744.226C1106.35 745.855 1104.1 747.077 1101.51 747.891C1098.95 748.706 1096.06 749.113 1092.83 749.113ZM1099.66 734.633C1102.04 734.633 1104.18 734.151 1106.08 733.186C1108.01 732.22 1109.54 730.893 1110.69 729.204C1111.83 727.484 1112.4 725.493 1112.4 723.231V716.624C1111.77 716.956 1111 717.258 1110.1 717.529C1109.23 717.801 1108.26 718.057 1107.21 718.299C1106.15 718.54 1105.07 718.751 1103.95 718.932C1102.84 719.113 1101.77 719.279 1100.74 719.43C1098.66 719.762 1096.88 720.275 1095.41 720.968C1093.96 721.662 1092.85 722.567 1092.06 723.683C1091.31 724.769 1090.93 726.066 1090.93 727.575C1090.93 729.867 1091.75 731.617 1093.37 732.824C1095.03 734.03 1097.13 734.633 1099.66 734.633Z" fill="black"/>
<path d="M1147.85 747.937V678.434H1168.87V691.195H1169.64C1171.08 686.971 1173.52 683.638 1176.96 681.195C1180.39 678.751 1184.49 677.529 1189.25 677.529C1194.08 677.529 1198.21 678.766 1201.64 681.24C1205.08 683.713 1207.26 687.032 1208.2 691.195H1208.92C1210.21 687.062 1212.75 683.759 1216.51 681.285C1220.28 678.781 1224.73 677.529 1229.85 677.529C1236.42 677.529 1241.75 679.641 1245.85 683.864C1249.95 688.057 1252 693.819 1252 701.149V747.937H1229.89V706.217C1229.89 702.748 1229.01 700.109 1227.23 698.299C1225.45 696.459 1223.14 695.538 1220.31 695.538C1217.27 695.538 1214.87 696.534 1213.12 698.525C1211.41 700.486 1210.55 703.125 1210.55 706.443V747.937H1189.3V705.991C1189.3 702.763 1188.43 700.214 1186.68 698.344C1184.93 696.474 1182.62 695.538 1179.76 695.538C1177.83 695.538 1176.13 696.006 1174.65 696.941C1173.18 697.846 1172.02 699.143 1171.17 700.833C1170.36 702.522 1169.95 704.513 1169.95 706.805V747.937H1147.85Z" fill="black"/>
</svg>
